<?xml version="1.0" standalone="no"?>
<!DOCTYPE svg PUBLIC "-//W3C//DTD SVG 20010904//EN"
 "http://www.w3.org/TR/2001/REC-SVG-20010904/DTD/svg10.dtd">
<svg version="1.0" xmlns="http://www.w3.org/2000/svg"
 width="261.000000pt" height="261.000000pt" viewBox="0 0 261.000000 261.000000"
 preserveAspectRatio="xMidYMid meet">
<metadata>
Created by potrace 1.11, written by Peter Selinger 2001-2013
</metadata>
<g transform="translate(0.000000,261.000000) scale(0.100000,-0.100000)"
fill="#000000" stroke="none">
<path d="M677 1690 c-98 -31 -183 -100 -229 -187 l-23 -43 -65 0 -66 0 0 -80
0 -80 31 -1 c66 -2 68 -3 71 -34 15 -141 102 -264 233 -328 62 -30 73 -32 171
-32 98 0 110 2 170 32 36 18 84 50 107 71 77 74 114 152 132 283 1 3 45 6 100
6 l98 1 6 -51 c9 -73 58 -169 117 -227 166 -167 441 -157 594 22 47 55 78 119
91 193 l11 60 43 1 c24 1 46 6 50 12 5 8 6 104 2 145 -1 4 -29 7 -63 7 l-63 0
-23 41 c-107 187 -334 261 -527 171 -73 -35 -152 -108 -184 -171 l-21 -41
-135 0 c-109 0 -135 3 -135 14 0 26 -88 131 -138 164 -102 69 -240 89 -355 52z
m230 -169 c182 -92 181 -338 -1 -434 -56 -29 -155 -29 -212 1 -201 104 -168
400 51 453 46 11 120 2 162 -20z m1018 -1 c81 -44 122 -103 132 -188 20 -170
-153 -312 -315 -258 -142 48 -208 212 -138 344 60 114 212 163 321 102z"/>
</g>
</svg>
