<?xml version="1.0" standalone="no"?>
<!DOCTYPE svg PUBLIC "-//W3C//DTD SVG 1.1//EN" "http://www.w3.org/Graphics/SVG/1.1/DTD/svg11.dtd" >
<svg xmlns="http://www.w3.org/2000/svg" xmlns:xlink="http://www.w3.org/1999/xlink" version="1.1">
<metadata></metadata>
<defs>
<font id="sintesi_sansthin_italic" horiz-adv-x="1236" >
<font-face units-per-em="2048" ascent="1638" descent="-410" />
<missing-glyph horiz-adv-x="524" />
<glyph unicode="&#xfb01;" horiz-adv-x="1128" d="M-25 -420q205 119 222 391l61 926h-141l6 96h133q7 128 34 227.5t66.5 162t94 102.5t110.5 55.5t121 15.5q92 0 183 -35t141 -89h32l-18 -279h-115l15 223q-42 36 -110 59t-132 23q-66 1 -118.5 -25t-86 -69t-56.5 -105t-34.5 -126t-15.5 -140h274l-8 -96h-266l-62 -926 q-21 -337 -282 -475zM827 0l68 993h113l-68 -993h-113z" />
<glyph unicode="&#xfb02;" horiz-adv-x="1126" d="M-25 -420q205 119 222 391l61 926h-141l6 96h133q7 128 34 227.5t66.5 162t94 102.5t110.5 55.5t121 15.5q82 0 165 -29t138 -75l55 29l-102 -1481h-111l95 1374q-42 38 -111 61t-133 23q-66 1 -118.5 -25t-86 -69t-56.5 -105t-34.5 -126t-15.5 -140h274l-8 -96h-266 l-62 -926q-21 -337 -282 -475z" />
<glyph unicode="&#xfb03;" horiz-adv-x="1701" d="M-25 -420q205 119 222 391l61 926h-141l6 96h133q7 128 34 227.5t66.5 162t94 102.5t110.5 55.5t121 15.5q82 0 165 -29t138 -75q104 104 270 104q92 0 183 -35t141 -89h33l-21 -279h-112l14 223q-42 36 -110 59t-132 23q-66 1 -118.5 -25t-86 -69t-56.5 -105t-34.5 -126 t-15.5 -140h274l-8 -96h-266l-61 -926q-21 -337 -283 -475l-47 84q204 118 221 391l61 926h-141l6 96h133q11 238 95 379q-41 38 -111 62t-135 24q-66 1 -118.5 -25t-86 -69t-56.5 -105t-34.5 -126t-15.5 -140h274l-8 -96h-266l-62 -926q-21 -337 -282 -475zM1401 0l67 993 h113l-68 -993h-112z" />
<glyph unicode="&#xfb04;" horiz-adv-x="1699" d="M-25 -420q205 119 222 391l61 926h-141l6 96h133q7 128 34 227.5t66.5 162t94 102.5t110.5 55.5t121 15.5q82 0 165 -29t138 -75q104 104 270 104q82 0 165.5 -29t138.5 -75l55 29l-103 -1481h-110l94 1374q-42 38 -111 61t-133 23q-66 1 -118.5 -25t-86 -69t-56.5 -105 t-34.5 -126t-15.5 -140h274l-8 -96h-266l-61 -926q-21 -337 -283 -475l-47 84q204 118 221 391l61 926h-141l6 96h133q11 238 95 379q-41 38 -111 62t-135 24q-66 1 -118.5 -25t-86 -69t-56.5 -105t-34.5 -126t-15.5 -140h274l-8 -96h-266l-62 -926q-21 -337 -282 -475z" />
<glyph horiz-adv-x="524" />
<glyph horiz-adv-x="524" />
<glyph horiz-adv-x="682" />
<glyph unicode="&#xd;" horiz-adv-x="524" />
<glyph unicode=" "  horiz-adv-x="524" />
<glyph unicode="&#x09;" horiz-adv-x="524" />
<glyph unicode="&#xa0;" horiz-adv-x="524" />
<glyph unicode="!" horiz-adv-x="616" d="M317 -8l13 205h110l-12 -205h-111zM340 328l78 1120l114 59l-81 -1179h-111z" />
<glyph unicode="&#x22;" horiz-adv-x="903" d="M295 854l39 567h102l-39 -567h-102zM637 854l39 567h102l-39 -567h-102z" />
<glyph unicode="#" d="M76 348l6 94h262l35 502h-262l8 94h262l25 367h98l-25 -367h424l27 367h98l-24 -367h252l-7 -94h-251l-35 -502h252l-7 -94h-253l-23 -348h-98l22 348h-426l-22 -348h-99l23 348h-262zM444 442h424l35 502h-424z" />
<glyph unicode="$" d="M135 276l98 37q22 -64 68.5 -112.5t102 -75t109 -39t101.5 -12.5q165 0 285.5 70.5t130.5 199.5q3 36 -7 70t-26 60.5t-46.5 53.5t-57 46t-70.5 43t-74 38t-79 37q-182 82 -236 113q-166 94 -204 207q-15 46 -11 98q7 91 50.5 158.5t114.5 106t154 56.5t181 19l26 201 l113 -11l-27 -200q125 -23 222 -95.5t131 -183.5l-99 -35q-43 115 -145 171.5t-219 56.5q-60 0 -112 -6.5t-102.5 -24t-87 -44t-61 -69.5t-28.5 -98q-3 -42 19.5 -83t54.5 -70t85 -60.5t90 -48t91 -40t69 -30.5q60 -28 102.5 -50t94.5 -54t86.5 -65t65 -73.5t43.5 -89.5 t10 -104q-7 -91 -55 -163t-123.5 -115.5t-166 -66t-188.5 -22.5h-14l-33 -198l-112 10l34 203q-123 25 -218 98t-130 186z" />
<glyph unicode="%" horiz-adv-x="2004" d="M188 971q0 67 10.5 129t36 124t65 107.5t102.5 74t143 28.5q176 0 268 -113t90 -301q0 -86 -19 -164t-58 -146t-109.5 -108.5t-163.5 -40.5q-181 0 -273 109t-92 301zM285 950q5 -149 68.5 -230t187.5 -81q75 0 129.5 34.5t83.5 94t42 127.5t13 147q0 147 -67.5 230.5 t-194.5 83.5q-77 0 -131 -36.5t-81 -99t-38.5 -128t-11.5 -142.5zM487 -66l1061 1514h103l-1059 -1514h-105zM1219 332q0 67 10 129t36 124t65 107.5t102 74t143 28.5q176 0 268 -113t90 -301q0 -86 -19 -164t-58 -146t-109.5 -108.5t-163.5 -40.5q-181 0 -272.5 109 t-91.5 301zM1315 311q5 -149 68.5 -230t187.5 -81q75 0 129.5 34.5t83.5 94t42 127.5t13 147q0 147 -67.5 230.5t-194.5 83.5q-77 0 -131 -36.5t-81 -99t-38.5 -128t-11.5 -142.5z" />
<glyph unicode="&#x26;" horiz-adv-x="1337" d="M98 346q4 66 32 127t77 115t103.5 98t125.5 90q-12 16 -44 58t-44.5 60.5t-35 54.5t-31 60.5t-15 58.5t-4.5 67q9 126 119 214.5t254 88.5q80 0 150.5 -36t112.5 -102.5t36 -146.5q-7 -103 -98 -200t-250 -195l381 -465q73 109 102.5 243t5.5 261l99 20 q30 -167 -9 -324.5t-133 -279.5l174 -213h-137l-111 133q-177 -166 -401 -166q-227 0 -349 104.5t-110 274.5zM203 350q-4 -59 15 -108t54.5 -82t84.5 -55.5t103 -33t111 -10.5q185 0 328 146l-403 495q-132 -81 -209 -166t-84 -186zM371 1133q-2 -32 5.5 -63t26.5 -64.5 t33.5 -55t45.5 -61.5t44 -58q58 37 103.5 70t93.5 75.5t75.5 86.5t30.5 86q6 79 -56.5 135.5t-143.5 56.5q-57 0 -113 -23t-98 -72t-47 -113z" />
<glyph unicode="'" horiz-adv-x="565" d="M295 854l39 567h102l-39 -567h-102z" />
<glyph unicode="(" horiz-adv-x="620" d="M168.5 207.5q-0.5 105.5 3 184.5t12.5 200q8 122 15.5 201t22.5 184.5t34.5 173t51.5 141.5t73.5 117t101 73t133.5 34v-86q-49 -6 -88.5 -25t-69 -59.5t-52 -75.5t-39 -104t-26.5 -113t-19 -135t-13 -136t-11 -148l-3 -42q-22 -318 -19 -437q8 -269 114 -354 q45 -36 110 -43l-15 -90q-73 4 -128.5 34t-90.5 73t-56.5 117.5t-31 142t-10 173z" />
<glyph unicode=")" horiz-adv-x="620" d="M88 -242q56 6 100.5 33.5t75 70.5t53.5 102t37.5 127.5t24 147.5t16 161.5t12.5 170.5v7t0.5 7t0.5 7q24 321 20 446q-8 272 -119 354q-43 31 -102 38l10 86q74 -4 129.5 -33.5t90.5 -73t57 -117.5t31.5 -142t9.5 -172.5t-4 -184.5t-13 -201q-9 -123 -16 -200.5t-22 -184 t-34 -173t-51 -141.5t-73 -118t-100.5 -73t-133.5 -34v90z" />
<glyph unicode="*" horiz-adv-x="964" d="M174 1108l37 88l307 -111l4 2l15 334h92l-29 -336q4 -2 4 -4l320 113l20 -86l-326 -98v-6l181 -263l-76 -53l-174 270h-4l-207 -270l-70 53l221 263l-4 4z" />
<glyph unicode="+" d="M225 434l6 98h373l27 377h106l-26 -377h372l-8 -98h-373l-24 -375h-107l25 375h-371z" />
<glyph unicode="," horiz-adv-x="458" d="M182 -203q37 28 68.5 82t36.5 121h-39l12 203h109q15 -68 8 -170q-10 -181 -144 -293z" />
<glyph unicode="-" horiz-adv-x="954" d="M209 436l6 101h596l-6 -101h-596z" />
<glyph unicode="." horiz-adv-x="505" d="M260 0l12 203h115l-12 -203h-115z" />
<glyph unicode="/" horiz-adv-x="911" d="M229 -33l551 1487h109l-549 -1487h-111z" />
<glyph unicode="0" horiz-adv-x="1284" d="M168 629q0 78 5.5 151.5t21 157t40 155t65 139t93.5 114.5t128.5 75.5t166.5 28.5q109 0 195 -35t143 -95t94.5 -145t53.5 -179t16 -203q0 -73 -5.5 -144t-20.5 -154.5t-39 -156t-64 -141.5t-92 -118t-127.5 -78.5t-165.5 -29.5q-508 0 -508 658zM279 598 q0 -53 4.5 -101.5t16 -103t30 -100t49 -87.5t70 -71.5t95.5 -47t124 -17.5q80 0 145.5 31t109 87t75 126t49 157.5t25 171.5t7.5 176q0 52 -4.5 101t-16.5 103.5t-30.5 101t-49 89.5t-70 73.5t-95.5 48.5t-123 18q-75 0 -136.5 -27t-103.5 -70.5t-73.5 -107t-50 -128.5 t-29.5 -143.5t-14.5 -143.5t-3.5 -136z" />
<glyph unicode="1" horiz-adv-x="786" d="M100 1266l535 190l-100 -1456h-111l90 1313h-6l-397 -144z" />
<glyph unicode="2" horiz-adv-x="1210" d="M162 51q186 338 538 623q23 19 74.5 61t71 58.5t56.5 49.5t51.5 52.5t34.5 48t28 55t10 56.5q4 62 -13 113t-48.5 84.5t-76 56.5t-93 33t-101.5 10q-55 0 -109.5 -13.5t-107 -41t-96.5 -76.5t-68 -113l-96 29q27 80 81.5 142t122.5 97.5t139 53.5t142 18q69 0 132.5 -13 t121.5 -42.5t99.5 -73.5t63.5 -111.5t16 -150.5q-3 -36 -13 -70t-22.5 -61t-36.5 -58t-42.5 -51.5t-53.5 -51.5t-57 -48.5t-64.5 -51.5t-65.5 -53q-289 -238 -463 -506v-6h764l-4 -100h-880z" />
<glyph unicode="3" horiz-adv-x="1181" d="M125 281l98 34q44 -116 144 -182.5t208 -66.5q175 0 284.5 74.5t119.5 221.5q10 153 -115.5 239.5t-341.5 88.5l6 94q216 0 329 78t122 211q6 90 -44 157t-130 98.5t-176 31.5q-44 0 -91 -11.5t-99 -36.5t-98.5 -72.5t-76.5 -111.5l-94 33q35 86 95.5 147.5t129 91.5 t128 43t114.5 13q129 0 233.5 -44t166 -132.5t53.5 -206.5q-4 -59 -25 -112t-59 -98.5t-99 -77.5t-139 -44v-6q154 -25 243.5 -128.5t78.5 -241.5q-13 -191 -153 -293.5t-366 -102.5q-95 0 -184 35.5t-160.5 107.5t-101.5 169z" />
<glyph unicode="4" horiz-adv-x="1093" d="M102 350l467 1067l117 19l-453 -1035v-6h435l14 219l115 21l-19 -240h295l-8 -96h-293l-20 -299h-111l18 299h-524z" />
<glyph unicode="5" horiz-adv-x="1183" d="M156 268l98 33q32 -113 132 -175.5t224 -62.5q173 0 276.5 107.5t112.5 273.5q5 83 -14 153t-54.5 117.5t-83.5 81t-100.5 49t-107.5 15.5q-209 0 -367 -186l-77 35l49 712h833l-8 -100h-731l-33 -490h4q130 127 353 127q89 0 171.5 -33.5t148 -95.5t101 -163t27.5 -224 q-7 -101 -43 -186.5t-98 -150.5t-156 -101.5t-209 -36.5q-156 0 -282 79t-166 222z" />
<glyph unicode="6" horiz-adv-x="1243" d="M170 684q5 68 10.5 120.5t16 119t24.5 117.5t37 107.5t51.5 98.5t69 81.5t90 64.5t114 40t140.5 15q143 0 249 -71t144 -212l-98 -32q-22 65 -58.5 111t-80 68t-82.5 31t-80 9q-95 0 -166 -30t-118 -81.5t-78.5 -134t-48 -175t-25.5 -216.5h4q46 82 162.5 135t240.5 53 q203 0 323 -137t105 -344q-15 -210 -151.5 -331.5t-335.5 -121.5q-247 0 -365 179t-94 536zM283 530q-5 -67 3 -131t33 -125t64 -106.5t101.5 -73.5t140.5 -28q92 0 175.5 40.5t141 122t64.5 187.5q12 163 -79.5 276t-252.5 113q-94 0 -185 -44.5t-146.5 -108t-59.5 -122.5z " />
<glyph unicode="7" horiz-adv-x="1067" d="M154 1321l8 100h870l31 -47l-664 -1374h-118l643 1315v6h-770z" />
<glyph unicode="8" horiz-adv-x="1249" d="M176 391q0 78 28 146.5t73.5 115.5t96 77.5t101.5 43.5v4q-95 31 -155 116t-60 212q0 158 124 251t312 93q114 0 204.5 -39.5t145 -119t54.5 -185.5q0 -125 -67 -210t-171 -116v-6q108 -28 190.5 -129t82.5 -254q0 -58 -17 -115.5t-55 -113.5t-92.5 -98.5t-137.5 -68.5 t-182 -26q-100 0 -182.5 26t-135.5 68t-89.5 98t-52 113.5t-15.5 116.5zM291 393q0 -63 22.5 -120t65.5 -104t115 -75t163 -28q162 0 263.5 93t101.5 234t-93 236.5t-259 95.5q-88 0 -161 -27t-120 -73t-72.5 -106t-25.5 -126zM369 1100q0 -125 82 -201t223 -76q62 0 118 17 t101 50t71.5 86t26.5 120q0 123 -82 191.5t-217 68.5t-229 -69.5t-94 -186.5z" />
<glyph unicode="9" horiz-adv-x="1243" d="M190 268l99 33q22 -65 61 -113.5t85 -73.5t88 -36.5t81 -11.5q71 0 128.5 15.5t100 42.5t75 71t54 93.5t37 118.5t24 137t15.5 158h-6q-49 -82 -163 -134t-238 -52q-204 0 -323 136t-107 345q13 207 152 329t335 122q247 0 365 -179t94 -536q-7 -97 -12.5 -155.5 t-22 -149t-38.5 -146.5t-63 -122t-95 -103t-134.5 -62.5t-181.5 -25.5q-143 0 -257.5 78.5t-152.5 220.5zM311 1001q-11 -164 80 -276.5t252 -112.5q71 0 143 27t125 67.5t87.5 89t37.5 91.5q6 85 -10.5 164t-54.5 148t-109.5 111t-167.5 42q-69 0 -134.5 -24t-119 -67.5 t-88.5 -111t-41 -148.5z" />
<glyph unicode=":" horiz-adv-x="532" d="M342 0l12 203h115l-12 -203h-115zM395 788l13 203h114l-12 -203h-115z" />
<glyph unicode=";" horiz-adv-x="536" d="M268 -203q37 28 68.5 82t36.5 121h-39l12 203h109q15 -68 8 -170q-10 -181 -144 -293zM389 788l12 203h115l-12 -203h-115z" />
<glyph unicode="&#x3c;" d="M223 436l8 107l887 493l-6 -112l-770 -430v-7l709 -430l-7 -114z" />
<glyph unicode="=" d="M209 205l8 100h850l-6 -100h-852zM242 668l8 98h852l-8 -98h-852z" />
<glyph unicode="&#x3e;" d="M186 -57l9 114l770 430v7l-709 430l8 112l817 -493l-6 -107z" />
<glyph unicode="?" horiz-adv-x="1058" d="M156 1163q67 152 202 226.5t299 74.5q80 0 154 -22.5t134.5 -65.5t94 -114.5t27.5 -161.5q-5 -64 -38 -120.5t-82 -98.5t-107.5 -80.5t-116.5 -73.5t-106.5 -68.5t-80 -73.5t-34.5 -83q-5 -52 21.5 -82.5t84.5 -30.5q28 0 68.5 18t58.5 52l76 -56q-32 -53 -99.5 -83.5 t-113.5 -30.5q-110 0 -159.5 57.5t-41.5 155.5q4 55 35.5 105.5t80 89.5t106 76t115.5 73t106.5 73t80 83.5t35.5 97.5q5 69 -21.5 122.5t-73.5 84t-101 46t-111 15.5t-105 -9t-102.5 -32.5t-103.5 -72.5t-90 -121zM502 -20l12 202h113l-13 -202h-112z" />
<glyph unicode="@" horiz-adv-x="2070" d="M125 432q0 232 74.5 426.5t209.5 330.5t329.5 212t428.5 76q181 0 342 -68t274 -182t179 -268t66 -322q0 -84 -21.5 -176t-65 -181t-103 -160.5t-143.5 -115t-179 -43.5q-49 0 -104 17.5t-93 58.5l27 352h-5q-32 -89 -73 -161t-94 -131t-121.5 -91.5t-145.5 -32.5 q-52 0 -98 11.5t-94 43.5t-81.5 82.5t-55 136t-21.5 197.5q0 84 18.5 165.5t59 158t98.5 134.5t144.5 93t189.5 35q198 0 303 -131h6l17 94h102l-61 -907q39 -27 96 -27q88 0 164 57.5t124.5 145.5t75.5 187t27 188q0 150 -58.5 287t-158.5 237t-240 159.5t-297 59.5 q-211 0 -386.5 -68.5t-296 -192.5t-187 -300t-66.5 -387q0 -144 46 -271t124 -220t179.5 -161t214.5 -102t227 -34q327 0 592 180l57 -78q-295 -201 -653 -201q-107 0 -214 27.5t-206.5 78.5t-185.5 129.5t-150 174.5t-100.5 219t-36.5 258zM666 430q0 -168 67.5 -261 t190.5 -93q22 0 46.5 5.5t60.5 23.5t70.5 47.5t73.5 82.5t72 122.5t64.5 174t52.5 230.5q-49 90 -134.5 130t-166.5 40q-83 0 -151 -29.5t-113 -79t-75.5 -115t-44 -135.5t-13.5 -143z" />
<glyph unicode="A" horiz-adv-x="1265" d="M66 0l616 1421h109l407 -1421h-117l-94 322h-668l-137 -322h-116zM356 422h609l-238 835h-6z" />
<glyph unicode="B" horiz-adv-x="1300" d="M201 0l98 1421h434q254 0 365 -102q101 -93 101 -249q0 -16 -1 -32q-18 -235 -280 -297v-6q162 -18 246 -125q75 -95 74 -227q0 -17 -1 -35q-10 -174 -138.5 -261t-359.5 -87h-538zM317 96h428q366 0 381 262q1 14 1 28q0 71 -26 125q-31 65 -89 101t-126.5 53t-148.5 17 h-379zM367 778h329q72 0 137 13.5t123 42.5t94 81t40 121q1 15 1 29q0 119 -76 185q-85 74 -290 75h-322z" />
<glyph unicode="C" horiz-adv-x="1384" d="M186 754q8 112 32.5 210t73.5 189t118.5 156t174 104t232.5 39q199 0 336.5 -80t189.5 -233q-9 -2 -49 -15.5t-49 -15.5q-27 70 -74 120t-107.5 76.5t-121 38t-127.5 11.5q-108 0 -194 -34t-142.5 -89.5t-96 -135t-59 -162.5t-26.5 -179q-3 -39 -3 -77q0 -67 8 -131 q12 -98 48.5 -186t94.5 -152t147 -101t201 -37q141 0 255 66t173 198l98 -29q-55 -156 -199.5 -246t-333.5 -90q-136 0 -243.5 42t-177 114.5t-113.5 173.5t-59 215q-10 74 -10 153q0 43 3 87z" />
<glyph unicode="D" horiz-adv-x="1404" d="M201 0l98 1421h363q86 0 161 -12.5t134.5 -35.5t110.5 -55t88 -71t68 -84t50 -94.5t33.5 -101t19.5 -103.5q5 -54 7 -106q1 -15 1 -30q0 -36 -4 -71q-7 -109 -34.5 -202.5t-83.5 -178.5t-137 -145t-202.5 -95.5t-273.5 -35.5h-399zM317 96h289q128 0 230.5 30t170 80.5 t114.5 123.5t69.5 153t28.5 174q3 42 3 83q0 50 -4 98q-8 87 -44 178t-97.5 157.5t-169.5 109t-252 42.5h-252z" />
<glyph unicode="E" horiz-adv-x="1282" d="M201 0l98 1421h913l-8 -96h-801l-38 -551h639l-9 -96h-637l-41 -582h801l-4 -96h-913z" />
<glyph unicode="F" horiz-adv-x="1173" d="M201 0l98 1421h883l-8 -96h-771l-38 -551h608l-6 -96h-609l-47 -678h-110z" />
<glyph unicode="G" horiz-adv-x="1384" d="M162 754q8 115 34.5 214.5t77.5 189.5t123 153.5t178 101t236 37.5q77 0 151 -13.5t151 -44t137.5 -90.5t90.5 -143l-96 -41q-101 236 -438 236q-245 0 -377.5 -157.5t-155.5 -438.5q-4 -53 -4 -103q0 -88 13 -165q21 -121 78 -217t163.5 -149.5t255.5 -53.5 q82 0 193 27.5t192 78.5l33 502h-307l6 96h420l-45 -653q-100 -69 -241.5 -109.5t-250.5 -40.5q-147 0 -260 41.5t-184 112.5t-113.5 172t-56.5 213q-8 68 -8 142q0 50 4 102z" />
<glyph unicode="H" horiz-adv-x="1366" d="M201 0l98 1421h111l-45 -647h743l45 647h111l-99 -1421h-110l45 678h-742l-47 -678h-110z" />
<glyph unicode="I" horiz-adv-x="514" d="M201 0l98 1421h111l-99 -1421h-110z" />
<glyph unicode="J" horiz-adv-x="512" d="M-25 -418q121 66 168 171t60 288l96 1380h111l-97 -1380q-13 -208 -74.5 -334.5t-215.5 -208.5z" />
<glyph unicode="K" horiz-adv-x="1263" d="M199 0l98 1421h113l-99 -1421h-112zM412 715l735 725l74 -66l-672 -653v-4l649 -717h-143z" />
<glyph unicode="L" horiz-adv-x="1134" d="M201 0q12 184 36 530t42 604.5t20 286.5h111l-93 -1325h760l-4 -96h-872z" />
<glyph unicode="M" horiz-adv-x="1710" d="M201 0l98 1421h127l457 -1155h4l588 1155h133l-99 -1421h-106l84 1210h-4l-572 -1120h-73l-443 1120h-4l-84 -1210h-106z" />
<glyph unicode="N" horiz-adv-x="1404" d="M201 0l98 1421h113l694 -1214h6l84 1214h107l-99 -1421h-112l-695 1214h-6l-84 -1214h-106z" />
<glyph unicode="O" horiz-adv-x="1423" d="M156 664q0 111 16.5 215t58.5 210t106.5 184t169 128t236.5 51h14q115 0 208 -31q99 -33 168.5 -94.5t116 -149t68 -193.5t21.5 -230q0 -83 -9 -161t-30 -157t-52.5 -147t-79 -127t-106.5 -101t-139 -66t-173 -24q-157 0 -273 48.5t-186 141t-103 217.5q-32 121 -32 277 v9zM270 641q0 -98 14.5 -180.5t48.5 -156t87 -124.5t134.5 -80.5t186.5 -29.5q109 0 193.5 38.5t139 103.5t89.5 157.5t49.5 192.5t14.5 216q0 121 -26 222.5t-80.5 182.5t-147.5 127t-217 46q-109 0 -195 -42t-139.5 -110t-88.5 -163t-49 -193t-14 -207z" />
<glyph unicode="P" horiz-adv-x="1220" d="M201 0l98 1421h389q95 0 176 -15t153 -50.5t120.5 -89.5t72.5 -136q18 -62 19 -136q0 -24 -2 -50q-5 -74 -24.5 -133.5t-48.5 -101t-72 -72t-89 -48.5t-106.5 -28.5t-116 -14t-125.5 -3.5h-293l-39 -543h-112zM356 639h287q43 0 73 1t71 4t70.5 9t64.5 17t59.5 26.5 t49.5 39t41 53t27.5 69.5t14.5 88q2 21 2 41q0 61 -17 113q-22 68 -62 109.5t-98.5 68.5t-119 37t-129.5 10h-287z" />
<glyph unicode="Q" horiz-adv-x="1425" d="M156 664q0 111 16.5 215t58.5 210t106.5 184t169 128t236.5 51h14q115 0 208 -31q99 -33 168.5 -94.5t116 -149t68 -193.5t21.5 -230q0 -83 -9 -161t-30 -157t-52.5 -147t-79 -127t-106.5 -101t-139 -66t-173 -24q-157 0 -273 48.5t-186 141t-103 217.5q-32 121 -32 277 v9zM270 641q0 -98 14.5 -180.5t48.5 -156t87 -124.5t134.5 -80.5t186.5 -29.5q109 0 193.5 38.5t139 103.5t89.5 157.5t49.5 192.5t14.5 216q0 121 -26 222.5t-80.5 182.5t-147.5 127t-217 46q-109 0 -195 -42t-139.5 -110t-88.5 -163t-49 -193t-14 -207zM600 -354l8 104 l500 -4l-8 -100h-500z" />
<glyph unicode="R" d="M201 0l98 1421h377q66 0 128.5 -9.5t125.5 -29.5t114 -55.5t90 -82.5q40 -48 58 -116q14 -52 14 -112q0 -19 -2 -39q-5 -70 -28.5 -127.5t-60.5 -96t-85 -69t-102 -44.5t-110 -24q-47 -8 -91 -8h-19q-54 2 -104 6v-4l539 -610h-135l-553 618l41 97q42 -9 90 -15 q44 -6 96 -6h9q57 0 110.5 8t105 28t90 51t64.5 81t31 115q1 14 1 27q-1 62 -19 112q-22 62 -63 100t-98.5 63.5t-118 35.5t-126.5 10h-265l-92 -1325h-110z" />
<glyph unicode="S" horiz-adv-x="1269" d="M139 276l99 37q22 -64 68 -112.5t101.5 -75t109 -39t101.5 -12.5q165 0 285.5 70.5t130.5 199.5q1 8 1 17q0 27 -8 53q-10 34 -26 60.5t-46.5 53.5t-57 46t-70.5 43t-74 38t-79 37q-182 82 -236 113q-166 94 -204 207q-12 36 -12 76q0 11 1 22q5 75 36 133.5t78.5 97 t112.5 63.5t134.5 35.5t148.5 10.5q153 0 283.5 -77t171.5 -212l-98 -35q-29 78 -90.5 131t-130.5 75t-144 22q-60 0 -112 -6.5t-102.5 -24t-87 -44t-61 -69.5t-28.5 -98q0 -5 -1 -10q1 -37 21 -73q22 -41 54 -70t85 -60.5t90 -48t91 -40t69 -30.5q60 -28 102.5 -50 t94.5 -54t86.5 -65t65 -73.5t43.5 -89.5q11 -40 11 -84q0 -10 -1 -20q-7 -91 -55 -163t-123.5 -115.5t-166 -66t-188.5 -22.5h-6q-97 0 -188 31q-94 32 -171.5 102t-107.5 166z" />
<glyph unicode="T" horiz-adv-x="1079" d="M147 1321l9 100h964l-6 -100h-430l-90 -1321h-111l90 1321h-426z" />
<glyph unicode="U" horiz-adv-x="1314" d="M213 463l68 958h110l-67 -958q-1 -17 -1 -33q0 -62 15 -115q19 -67 54 -111.5t84 -74.5t101 -43.5t107 -13.5q67 0 129 23t114.5 68.5t86.5 121t41 172.5l67 964h109l-68 -964q-12 -160 -80.5 -271t-171.5 -162t-233 -51q-92 0 -176 29t-154 86q-68 57 -106 154 q-30 78 -31 174q0 23 2 47z" />
<glyph unicode="V" horiz-adv-x="1204" d="M156 1421h116l342 -1239h7l489 1239h115l-568 -1421h-110z" />
<glyph unicode="W" horiz-adv-x="1708" d="M164 1421h112l230 -1253h4l352 1120h144l211 -1122h4l391 1255h108l-444 -1421h-137l-211 1147h-6l-359 -1147h-137z" />
<glyph unicode="X" horiz-adv-x="1175" d="M59 0l514 709l-417 712h129l362 -620h4l443 620h118l-510 -714l412 -707h-127l-360 618h-4l-447 -618h-117z" />
<glyph unicode="Y" horiz-adv-x="1132" d="M164 1419h119l335 -854h5l426 854l116 2l-469 -923q-29 -67 -34 -123l-25 -375h-113l25 371v15q0 50 -17 101z" />
<glyph unicode="Z" horiz-adv-x="1230" d="M104 57l961 1258v6h-821l8 100h938l35 -57l-959 -1258l-2 -6h854l-4 -100h-975z" />
<glyph unicode="[" horiz-adv-x="583" d="M139 -330l131 1866h322l-6 -96h-211l-117 -1673h211l-8 -97h-322z" />
<glyph unicode="\" horiz-adv-x="960" d="M96 1454h109l551 -1487h-111z" />
<glyph unicode="]" horiz-adv-x="585" d="M80 -330l6 97h211l119 1673h-213l8 96h321l-131 -1866h-321z" />
<glyph unicode="^" horiz-adv-x="1142" d="M199 594l428 827h90l307 -827h-111l-249 688h-5l-348 -688h-112z" />
<glyph unicode="_" horiz-adv-x="1214" d="M176 -229l8 96h850l-6 -96h-852z" />
<glyph unicode="`" horiz-adv-x="925" d="M449 1614h112q-6 -95 77.5 -199t235.5 -190l-43 -86q-193 94 -293 217.5t-89 257.5z" />
<glyph unicode="a" horiz-adv-x="1189" d="M147 434q0 88 17.5 171.5t56 160.5t94.5 135t138.5 92.5t181.5 34.5q95 0 181 -32t136 -95h4l17 92h100l-72 -993h-100l23 395h-4q-30 -98 -74 -174t-89 -121t-95.5 -74.5t-92 -40t-80.5 -10.5q-172 0 -257 119t-85 340zM258 430q0 -169 63 -261.5t185 -92.5 q22 0 46.5 5.5t60 23.5t70 47t73.5 82.5t72.5 123t65 174t52.5 230.5q-33 62 -91.5 102.5t-110 54t-99.5 13.5q-83 0 -150 -30t-110.5 -78.5t-72.5 -115t-41.5 -135.5t-12.5 -143z" />
<glyph unicode="b" horiz-adv-x="1193" d="M188 0l99 1421l114 60l-59 -854h4q35 104 78.5 180.5t83.5 118t87.5 66.5t83 31.5t77.5 6.5q173 0 264.5 -118t93.5 -339q0 -89 -17 -172.5t-55 -161t-93.5 -135.5t-138.5 -92.5t-183 -34.5q-92 0 -179.5 35t-138.5 99h-4l-20 -111h-97zM315 246q33 -62 91.5 -102.5 t110 -54t99.5 -13.5q84 0 152.5 32t111 82.5t71.5 117t41 131.5t12 130q0 178 -70 270.5t-195 92.5q-277 0 -424 -686z" />
<glyph unicode="c" horiz-adv-x="1138" d="M156 520q8 110 41 200t93 159.5t154 108t215 38.5q143 0 253.5 -65.5t150.5 -188.5l-98 -33q-24 68 -76.5 112.5t-110 61.5t-121.5 17q-94 0 -167 -31.5t-119.5 -88.5t-72.5 -129.5t-32 -160.5q-1 -22 -2 -43q0 -67 14 -127q18 -80 60.5 -142t114 -98t165.5 -36 q98 0 197.5 52.5t147.5 149.5l94 -36q-40 -85 -118 -147t-163 -90t-166 -28q-97 0 -176.5 29.5t-133 80.5t-88.5 120q-34 69 -48 149q-9 55 -10 113q0 26 2 53z" />
<glyph unicode="d" horiz-adv-x="1193" d="M147 434q0 88 17.5 171.5t56 160.5t94.5 135t138.5 92.5t181.5 34.5q94 0 180 -32.5t135 -94.5h6l39 522l113 58l-104 -1481h-101l21 395h-4q-38 -121 -94 -208t-116.5 -130.5t-114 -62.5t-103.5 -19q-172 0 -258.5 119t-86.5 340zM258 430q0 -169 64 -261.5t186 -92.5 q22 0 46 5.5t60 23.5t70 47t73 82.5t72 123t64.5 174t52.5 230.5q-33 62 -91.5 102.5t-110 54t-99.5 13.5q-83 0 -150 -30t-110.5 -78.5t-72.5 -115t-41.5 -135.5t-12.5 -143z" />
<glyph unicode="e" horiz-adv-x="1134" d="M139 530q7 102 40.5 189.5t93 157t152.5 109.5t210 40q73 0 135.5 -14.5t122.5 -52.5t99.5 -96.5t58.5 -154.5q12 -61 12 -132q0 -41 -4 -87h-815q-1 -15 0 -30q0 -155 85 -265q94 -120 261 -120q237 0 358 194l94 -39q-40 -72 -98 -124t-121.5 -79t-122 -39t-116.5 -12 q-148 0 -254 74.5t-154 200.5q-39 101 -39 220q0 29 2 60zM254 578h702v25q0 67 -14 121q-16 64 -46 103t-75 63.5t-91.5 34t-102.5 9.5q-84 0 -150.5 -28.5t-110.5 -79t-71.5 -112.5t-40.5 -136z" />
<glyph unicode="f" horiz-adv-x="638" d="M-25 -420q205 119 222 391l61 926h-141l6 96h133q7 128 34 227.5t66.5 162t94 102.5t110.5 55.5t121 15.5q94 0 187.5 -37t140.5 -92l-70 -69q-37 43 -113.5 71.5t-148.5 28.5h-5q-63 0 -113 -25q-53 -26 -86.5 -69t-56.5 -105t-34.5 -126t-15.5 -140h274l-8 -96h-266 l-62 -926q-21 -337 -282 -475z" />
<glyph unicode="g" horiz-adv-x="1116" d="M86 -225q0 171 180 239q-135 64 -135 209q0 66 45.5 123.5t108.5 89.5q-107 91 -107 244v5q0 141 107 237q109 97 317 100q171 0 283 -74l16 232h105l-19 -273l-22 -37q57 -80 57 -190q0 -69 -25.5 -129.5t-75.5 -108.5t-132 -76t-187 -28q-138 0 -233 45 q-58 -24 -96 -65q-37 -41 -37 -90q0 -168 237 -171q62 4 100 4q241 0 365.5 -73t124.5 -213q0 -142 -123 -217.5t-367 -75.5q-239 0 -363 76t-124 217zM195 -225q0 -100 95.5 -151.5t282.5 -51.5q383 0 383 203q0 196 -383 196q-378 0 -378 -196zM285 680q0 -112 78.5 -181 t238.5 -69q152 0 234 70.5t82 179.5q0 105 -82.5 177.5t-233.5 72.5q-153 0 -235 -72t-82 -178z" />
<glyph unicode="h" horiz-adv-x="1163" d="M188 0l99 1423l114 56l-71 -983h4q44 154 94.5 260t107 165.5t115 85t129.5 25.5q134 0 202 -96q57 -82 57 -227q0 -26 -1 -54l-45 -655h-110l41 610q2 34 2 65q0 253 -162 253q-27 0 -55 -10t-63.5 -37t-70 -70t-73 -116t-73.5 -167t-71.5 -229.5t-66.5 -298.5h-103z " />
<glyph unicode="i" horiz-adv-x="489" d="M188 0l68 993h113l-68 -993h-113zM272 1225l15 205h112l-14 -205h-113z" />
<glyph unicode="j" horiz-adv-x="489" d="M-35 -420q201 116 221 391l72 1022h111l-72 -1022q-21 -335 -287 -475zM272 1225l15 205h112l-14 -205h-113z" />
<glyph unicode="k" horiz-adv-x="1062" d="M188 0l99 1421l114 60l-102 -1481h-111zM377 555l571 475l62 -78l-486 -401v-6l492 -545h-137z" />
<glyph unicode="l" horiz-adv-x="487" d="M188 0l99 1421l114 60l-102 -1481h-111z" />
<glyph unicode="m" horiz-adv-x="1736" d="M188 0l68 993h98l-28 -504h6q36 131 78.5 229.5t84 157t88.5 95t87 49t84 12.5q64 0 110 -26t72 -73t36 -105q8 -46 8 -99q0 -15 -1 -31l-18 -206h4q47 161 96 269t101 166t103 81.5t113 23.5q91 0 147 -49.5t75 -129.5q14 -58 13 -132q0 -27 -1 -57l-45 -664h-113 l43 616q2 37 2 70q0 242 -137 242q-245 0 -438 -928h-101l43 616q3 50 3 94q0 35 -2 65q-4 69 -38 111t-100 42q-28 0 -56.5 -14t-65 -48.5t-74 -102.5t-77.5 -166.5t-82.5 -251t-82.5 -345.5h-103z" />
<glyph unicode="n" horiz-adv-x="1163" d="M188 0l68 993h100l-32 -506h6q47 158 98 266t108 168.5t115 85.5t129 25q134 0 202 -96q57 -82 57 -227q0 -26 -1 -54l-45 -655h-110l41 610q2 34 2 65q0 253 -162 253q-27 0 -55 -10t-63.5 -37t-70 -70t-73 -116t-73.5 -167t-71.5 -229.5t-66.5 -298.5h-103z" />
<glyph unicode="o" horiz-adv-x="1177" d="M135 489q0 84 19 162t58 147t94 120t132 80.5t168 29.5q225 0 352 -143t127 -379q0 -82 -16.5 -157.5t-53 -144t-89 -119t-130 -80.5t-171.5 -30q-231 0 -360.5 133.5t-129.5 380.5zM248 475q0 -82 21 -152.5t64 -127.5t116.5 -90t171.5 -33q111 0 192.5 58.5t121.5 157 t40 224.5q0 79 -20 150.5t-61.5 133t-114.5 98t-169 36.5q-88 0 -159 -38t-114 -102.5t-66 -145t-23 -169.5z" />
<glyph unicode="p" horiz-adv-x="1191" d="M154 -475l100 1468h96l-8 -366h4q35 105 78.5 182t83.5 118.5t88 66t83 30.5t77 6q173 0 264.5 -118t93.5 -339q0 -89 -17 -172.5t-55 -161t-93.5 -135.5t-138.5 -92.5t-183 -34.5q-92 0 -179.5 35t-138.5 99h-4l-43 -586h-108zM315 246q33 -62 91.5 -102.5t110 -54 t99.5 -13.5q84 0 152.5 32t111 82.5t71.5 117t41 131.5t12 130q0 178 -70 270.5t-195 92.5q-277 0 -424 -686z" />
<glyph unicode="q" horiz-adv-x="1191" d="M147 434q0 88 17.5 171.5t56 160.5t94.5 135t138.5 92.5t181.5 34.5q94 0 180.5 -32.5t136.5 -94.5h4l17 92h100l-106 -1468h-105l62 870h-4q-38 -121 -94 -208t-116.5 -130.5t-114 -62.5t-103.5 -19q-172 0 -258.5 119t-86.5 340zM258 430q0 -169 64 -261.5t186 -92.5 q22 0 46 5.5t60 23.5t70 47t73 82.5t72 123t64.5 174t52.5 230.5q-33 62 -91.5 102.5t-110 54t-99.5 13.5q-83 0 -150 -30t-110.5 -78.5t-72.5 -115t-41.5 -135.5t-12.5 -143z" />
<glyph unicode="r" horiz-adv-x="798" d="M188 0l68 993h100l-32 -501h4q127 538 364 538q83 0 135 -34t86 -101l-73 -64q-31 50 -61.5 72.5t-88.5 22.5q-189 0 -348 -713l-47 -213h-107z" />
<glyph unicode="s" horiz-adv-x="1021" d="M111 240l100 34q24 -66 83 -114.5t123.5 -69t125.5 -20.5q120 0 196 46.5t80 127.5q1 28 -10 54t-26 45t-43.5 37.5t-50.5 30t-59.5 25t-57 20t-56.5 17.5q-54 18 -86 30t-76.5 32t-71 40.5t-52.5 48.5q-26 29 -36 65q-9 30 -8 65v14q4 128 99 196t266 68q284 0 397 -221 l-96 -39q-95 166 -309 166q-119 0 -185 -44q-70 -46 -69 -129q1 -47 37 -83q38 -38 77.5 -56t131.5 -51q8 -3 13 -5t12 -4.5t13 -4.5q42 -13 65 -20.5t67 -24.5t70 -32.5t60 -41t52 -52.5q19 -26 31 -64q11 -32 10 -68v-12q-6 -129 -117.5 -201t-275.5 -72 q-86 0 -167.5 26.5t-153.5 89t-103 151.5z" />
<glyph unicode="t" horiz-adv-x="700" d="M100 897l6 96h150l31 428l112 60l-34 -488h268l-6 -96h-269l-45 -653q-1 -9 -1 -18q0 -70 36 -105q40 -39 96 -39q80 0 166 80l52 -70q-52 -52 -116 -81t-126 -29q-117 0 -170 74q-46 64 -46 156q0 14 1 28l45 657h-150z" />
<glyph unicode="u" horiz-adv-x="1165" d="M193 338l45 655h112l-41 -610q-4 -39 -4 -75q0 -24 2 -48q4 -58 17.5 -101t46 -68t82.5 -25q27 0 55.5 9.5t66 37t73.5 70.5t76 115.5t77 166.5t74 229.5t67 298.5h102l-67 -993h-103l33 506h-4q-46 -155 -99.5 -263.5t-113.5 -168.5t-120 -85.5t-130 -25.5 q-134 1 -196 95q-52 79 -53 222q0 28 2 58z" />
<glyph unicode="v" horiz-adv-x="999" d="M129 993h111l278 -868h4l375 868h111l-430 -993h-132z" />
<glyph unicode="w" horiz-adv-x="1564" d="M147 993h109l209 -864h6l313 813h131l199 -807h4l328 858h106l-374 -993h-134l-204 807h-4l-310 -807h-137z" />
<glyph unicode="x" horiz-adv-x="1034" d="M80 0l407 504l-329 489h129l282 -415h4l340 415h119l-407 -501l331 -492h-131l-282 416h-4l-340 -416h-119z" />
<glyph unicode="y" horiz-adv-x="991" d="M133 993h115l287 -817h6l350 817h110l-632 -1468h-105l191 463q8 18 8.5 39.5t-6.5 46.5t-13.5 44t-18.5 47.5t-17 41.5z" />
<glyph unicode="z" horiz-adv-x="1024" d="M70 61l735 830v6h-631l8 96h756l33 -59l-735 -832l-3 -6h668l-4 -96h-799z" />
<glyph unicode="{" horiz-adv-x="675" d="M92 553l8 90q161 0 174 213l15 260q5 63 11.5 108.5t23.5 103t41 93.5t66.5 61t98.5 25h68q-6 -48 -6 -96h-64q-104 0 -120 -231q-12 -210 -23 -342q-5 -87 -40.5 -154t-94.5 -80v-4q53 -18 79.5 -89t20.5 -157q-1 -14 -9.5 -112t-10.5 -150q-10 -164 4 -224 q20 -82 82 -83h61l-6 -96h-68q-47 0 -82 16t-55.5 47t-33 66.5t-15.5 83.5t-2.5 88t4.5 90q2 52 9.5 139.5t9.5 122.5q8 101 -28.5 156t-117.5 55z" />
<glyph unicode="|" horiz-adv-x="749" d="M315 -57l109 1568h111l-109 -1568h-111z" />
<glyph unicode="}" horiz-adv-x="692" d="M178 -311l6 96h64q19 0 35.5 7t28 22.5t21 31.5t16 42.5t11 46.5t8 53t5 51.5t4.5 52.5l16 262q5 86 42 157t93 89v4q-57 13 -82.5 79.5t-19.5 154.5q1 24 25 342q16 231 -89 231h-61l6 96h68q56 0 95 -24t57.5 -63.5t28 -90.5t7.5 -105.5t-4 -107.5q-18 -254 -18 -260 q-19 -213 143 -213l-6 -90q-80 0 -124 -55.5t-50 -155.5q-4 -42 -6.5 -84.5t-5.5 -94t-5 -83.5q-4 -61 -10.5 -108.5t-23.5 -103.5t-41.5 -92.5t-67 -61.5t-98.5 -25h-68z" />
<glyph unicode="~" horiz-adv-x="1277" d="M252 516q43 45 110.5 77t120.5 32q46 0 99.5 -19t93 -42.5t84 -42.5t76.5 -19q62 0 98.5 21t85.5 73l67 -76q-58 -67 -115 -97t-136 -30q-42 0 -90 19.5t-84.5 43t-85 43t-91.5 19.5q-41 0 -90.5 -23.5t-85.5 -56.5z" />
<glyph unicode="&#xa1;" horiz-adv-x="755" d="M416 -522l82 1179h110l-80 -1122zM506 791l16 202h111l-15 -202h-112z" />
<glyph unicode="&#xa2;" d="M221 520q8 110 41 200t93 159.5t154.5 108t215.5 38.5q27 0 39 -2l45 174l104 -20l-45 -170q94 -27 162 -87t98 -149l-98 -33q-24 68 -76 112.5t-109.5 61.5t-121.5 17q-94 0 -167 -31.5t-119.5 -88.5t-72.5 -129.5t-32 -160.5q-6 -90 12.5 -169.5t60.5 -142t113.5 -98.5 t165.5 -36q98 0 197 52.5t147 149.5l94 -36q-59 -125 -188.5 -195t-257.5 -70q-16 0 -66 5l-41 -166l-104 20l41 168q-102 36 -170.5 115.5t-95.5 182t-19 220.5z" />
<glyph unicode="&#xa3;" d="M180 70q48 17 95 37.5t99.5 51t92 62.5t66.5 73t30 83q1 26 0 41.5t-18.5 66t-55.5 123.5h-288l8 97h237q-56 93 -95.5 199t-35.5 171q12 166 149.5 260.5t350.5 94.5q54 0 110 -14t115 -44.5t107.5 -88.5t73.5 -136l-99 -29q-25 62 -65 107t-84.5 67t-83.5 31.5t-76 9.5 q-166 0 -271 -66t-112 -196q-8 -116 137 -366h541l-6 -97h-492q33 -59 52 -121.5t16 -103.5q-7 -87 -74.5 -157t-173.5 -117l-2 -5h662l-9 -104h-884z" />
<glyph unicode="&#xa4;" horiz-adv-x="1243" d="M254 823l74 74l121 -121q97 74 215 74q128 0 221 -80l127 125l69 -70l-127 -127q68 -98 68 -209q0 -122 -74 -215l135 -131l-75 -75l-136 131q-90 -68 -208 -68t-211 68l-127 -129l-70 69l125 127q-80 96 -80 223q0 120 72 211zM408 489q0 -106 75 -181t181 -75 q103 0 177 75t74 181q0 107 -74 183t-177 76q-106 0 -181 -76t-75 -183z" />
<glyph unicode="&#xa5;" d="M219 1421h119l336 -856h4l428 856h115l-469 -929h331l-6 -97h-356q-1 -8 -7.5 -91.5t-6.5 -90.5h356l-6 -98h-357l-8 -115h-110l6 115h-363l6 98h365q0 4 3 49.5t5.5 88t1.5 44.5h-360l6 97h336z" />
<glyph unicode="&#xa6;" horiz-adv-x="731" d="M305 -57l43 632h111l-43 -632h-111zM371 891l45 635h110l-45 -635h-110z" />
<glyph unicode="&#xa7;" horiz-adv-x="1085" d="M208.5 699.5q5.5 116.5 74.5 230.5t182 190q-67 112 -84 152q-30 71 -25 137q3 51 29.5 100t67.5 86.5t96.5 60t114 25t123 -24t120.5 -81.5l-73 -66q-63 58 -130 73t-117 -7.5t-83.5 -66t-36.5 -95.5q-7 -79 49 -170l354 -571q229 -362 -176 -680q5 -8 24.5 -40t25 -42 t20 -36.5t19.5 -41t12.5 -37.5t9 -43t0.5 -41q-4 -62 -40.5 -120.5t-95 -96.5t-127.5 -54t-146.5 7t-143.5 86l72 78q50 -50 104.5 -69.5t99.5 -10.5t82.5 34.5t59.5 63.5t24 78q3 41 -13 85t-60 114l-357 571q-61 106 -55.5 222.5zM314.5 669.5q4.5 -72.5 45.5 -139.5 l279 -454q94 70 147 151t59.5 175.5t-52.5 189.5l-273 444q-63 -48 -109.5 -105.5t-73.5 -123t-22.5 -138z" />
<glyph unicode="&#xa8;" horiz-adv-x="1107" d="M346 1276l16 205h111l-14 -205h-113zM821 1276l15 205h112l-14 -205h-113z" />
<glyph unicode="&#xa9;" horiz-adv-x="1861" d="M117 694q0 219 107.5 408.5t295.5 302.5t412 113q167 0 318.5 -66.5t259.5 -178.5t171.5 -263.5t63.5 -315.5q0 -166 -63.5 -317.5t-171.5 -262.5t-259.5 -177t-318.5 -66q-168 0 -319.5 66t-260 177t-172 262.5t-63.5 317.5zM203 694q0 -201 96 -371.5t264 -271 t369 -100.5q149 0 284 59.5t232 159.5t154 237t57 287q0 148 -57 285t-153.5 238t-232 161t-284.5 60q-150 0 -286 -60t-232.5 -161t-153.5 -238t-57 -285zM440 723q4 97 35.5 183t90 155.5t153.5 110t215 40.5q133 0 258 -71.5t156 -175.5l-88 -27q-20 52 -60 91t-88.5 59 t-94.5 29t-89 9q-99 0 -174 -32t-120.5 -89t-69 -128.5t-27.5 -157.5q-4 -98 15 -179.5t62.5 -145.5t121 -100t182.5 -36q63 0 125.5 18.5t119 62.5t82.5 107l88 -28q-28 -75 -100.5 -133.5t-156.5 -86.5t-163 -28q-102 0 -184 29t-137 80t-90.5 121.5t-50 151t-11.5 171.5z " />
<glyph unicode="&#xaa;" horiz-adv-x="985" d="M158 944q0 72 15.5 140.5t49.5 132t82.5 111t119.5 76t155 28.5q80 0 153.5 -27t116.5 -78h4l14 76h84l-59 -815h-86l20 323h-6q-31 -99 -78.5 -170.5t-99.5 -107t-97.5 -51t-88.5 -15.5q-147 0 -223 98t-76 279zM252 942q0 -139 57 -215t162 -76q22 0 47.5 7.5t62 26 t72.5 59.5t72 99t68 153.5t53 215.5q-28 51 -77.5 84t-93.5 44.5t-85 11.5q-71 0 -128.5 -24t-96 -64.5t-64.5 -94t-37.5 -110.5t-11.5 -117z" />
<glyph unicode="&#xab;" horiz-adv-x="1179" d="M199 469l6 78l454 407l-8 -127l-346 -317v-4l301 -324l-10 -125zM616 469l7 78l454 407l-8 -127l-346 -317v-4l301 -324l-10 -125z" />
<glyph unicode="&#xac;" d="M240 643l6 100h850l-37 -544h-107l33 444h-745z" />
<glyph unicode="&#xad;" horiz-adv-x="1705" />
<glyph unicode="&#xae;" horiz-adv-x="1304" d="M174 973q0 145 71.5 269.5t194.5 197.5t267 73q145 0 268.5 -73t195.5 -197.5t72 -269.5q0 -109 -42.5 -208.5t-114.5 -171.5t-171 -114.5t-208 -42.5q-108 0 -206.5 42.5t-170 114.5t-114 171.5t-42.5 208.5zM252 973q0 -125 61 -231.5t166 -169t228 -62.5 q124 0 229.5 62.5t167 169t61.5 231.5q0 126 -61.5 233.5t-167 170.5t-229.5 63q-187 0 -321 -137.5t-134 -329.5zM467 641l47 672h225q39 0 72.5 -4.5t71 -18t62.5 -36t40 -61.5t12 -91q-3 -44 -20 -76.5t-41 -51.5t-60.5 -30.5t-71 -16t-81.5 -5.5v-4l229 -277h-102 l-258 305l18 49q51 -9 95 -11t93.5 5t80 36t34.5 79q2 35 -9 61t-29 40t-45 22t-48.5 10t-48.5 2h-143l-41 -598h-82z" />
<glyph unicode="&#xaf;" horiz-adv-x="1103" d="M276 1280l15 104h706l-14 -104h-707z" />
<glyph unicode="&#xb0;" horiz-adv-x="964" d="M207 1083q0 141 98.5 239.5t239.5 98.5q142 0 241 -98.5t99 -239.5t-98.5 -238t-241.5 -97q-141 0 -239.5 97t-98.5 238zM295 1083q0 -106 72.5 -181t177.5 -75q106 0 180 75t74 181t-74.5 182t-179.5 76t-177.5 -75.5t-72.5 -182.5z" />
<glyph unicode="&#xb1;" d="M197 0l8 96h850l-6 -96h-852zM233 575l7 97h372l27 372h106l-26 -372h373l-9 -97h-372l-25 -370h-106l24 370h-371z" />
<glyph unicode="&#xb2;" horiz-adv-x="864" d="M201 639q65 92 147.5 167.5t151.5 120.5t130.5 84.5t100.5 79t45 83.5q7 47 -10 84.5t-50 60t-70.5 34t-74.5 11.5q-45 0 -91 -15t-92 -52.5t-73 -92.5l-86 21q45 104 143 160.5t208 56.5q53 0 106 -16t99.5 -46.5t71.5 -84t15 -121.5q-9 -59 -45.5 -106t-94 -87 t-120.5 -78.5t-140.5 -100t-137.5 -132.5v-4h512l-15 -82h-608z" />
<glyph unicode="&#xb3;" horiz-adv-x="876" d="M203 782l88 17q10 -49 37 -83.5t62 -50t63.5 -22t54.5 -6.5q115 0 183.5 40t80.5 120q10 83 -56 125.5t-214 48.5l10 76q131 7 188.5 43.5t65.5 105.5q7 52 -26 90.5t-82.5 55t-104.5 16.5q-23 0 -50 -5t-66 -18.5t-75 -47t-57 -81.5l-86 15q23 56 61.5 98.5t76 64 t81.5 35t72 16.5t55 3q59 0 113.5 -15t98.5 -43.5t67 -75t16 -104.5q-10 -93 -65 -136t-133 -50v-4q42 -2 78.5 -14.5t68 -36.5t47.5 -66.5t10 -99.5q-15 -116 -110.5 -176t-253.5 -60q-31 0 -62.5 4t-72.5 18.5t-73 38t-57.5 66t-33.5 98.5z" />
<glyph unicode="&#xb4;" horiz-adv-x="888" d="M426 1225q166 87 265.5 191t105.5 198h108q-7 -133 -124 -257t-322 -218z" />
<glyph unicode="&#xb5;" horiz-adv-x="1183" d="M154 -469l102 1462h111l-39 -592q-6 -87 16.5 -154t63.5 -104t86.5 -55t91.5 -18q47 0 97.5 18t100.5 55t85.5 104t41.5 154l41 592h111l-68 -993h-94l-10 123h-4q-45 -65 -137.5 -107.5t-169.5 -42.5q-66 0 -148 39t-121 109h-4l-43 -590h-110z" />
<glyph unicode="&#xb6;" horiz-adv-x="1220" d="M219 1032q12 159 129 266t275 107h94l-96 -1405h-105l45 664q-151 2 -251.5 110t-90.5 258zM911 0l99 1405h102l-98 -1405h-103z" />
<glyph unicode="&#xb7;" horiz-adv-x="616" d="M352 422l13 203h114l-12 -203h-115z" />
<glyph unicode="&#xb8;" horiz-adv-x="1107" d="M322 -309l6 98h252q32 38 39 79.5t-4 78t-37 82.5h104q102 -161 -51 -338h-309z" />
<glyph unicode="&#xb9;" horiz-adv-x="501" d="M121 1364l319 84l-59 -862h-94l53 757h-4l-205 -57z" />
<glyph unicode="&#xba;" horiz-adv-x="960" d="M154 983q0 116 45.5 214.5t140 162t221.5 63.5q193 0 304.5 -116.5t111.5 -309.5q0 -84 -24.5 -160.5t-72 -139t-126 -99.5t-176.5 -37q-197 0 -310.5 111t-113.5 311zM248 971q0 -90 32.5 -162.5t107.5 -120t185 -47.5q143 0 227.5 102t84.5 258q0 51 -11 99.5 t-36.5 93.5t-61.5 78.5t-90.5 53.5t-120.5 20q-99 0 -173 -54t-109 -138t-35 -183z" />
<glyph unicode="&#xbb;" horiz-adv-x="1179" d="M166 57l8 125l346 324v4l-301 317l8 127l400 -407l-6 -78zM586 57l6 125l346 324l2 4l-301 317l8 127l397 -407l-4 -78z" />
<glyph unicode="&#xbc;" horiz-adv-x="1628" d="M156 1364l319 84l-59 -862h-94l53 757h-4l-205 -57zM207 -66l1061 1514h102l-1059 -1514h-104zM887 160l313 639l100 8l-296 -602v-2h286l10 125l95 12l-11 -137h156l-4 -78h-156l-14 -166h-92l12 166h-371z" />
<glyph unicode="&#xbd;" horiz-adv-x="1716" d="M156 1364l319 84l-59 -862h-94l53 757h-4l-205 -57zM176 -66l1061 1514h102l-1058 -1514h-105zM1028 16q65 92 147.5 167.5t151.5 120.5t131 84.5t101 79t45 83.5q7 47 -10 84.5t-50 60t-70.5 34t-74.5 11.5q-45 0 -91 -14.5t-92 -52t-73 -92.5l-86 20 q45 104 142.5 160.5t207.5 56.5q53 0 106 -16t100 -46.5t72 -84t15 -121.5q-9 -59 -45.5 -106t-94.5 -87t-121 -78.5t-140.5 -100t-137.5 -132.5v-4h512l-14 -82h-608z" />
<glyph unicode="&#xbe;" horiz-adv-x="1871" d="M231 782l88 17q10 -49 37.5 -83.5t62 -50t63.5 -22t55 -6.5q115 0 183.5 40t80.5 120q10 83 -56.5 125.5t-214.5 48.5l11 76q131 7 188.5 43.5t65.5 105.5q7 52 -26 90.5t-82.5 55t-104.5 16.5q-23 0 -50 -5t-66 -18.5t-75 -47t-57 -81.5l-86 15q23 56 61.5 98.5t76 64 t81.5 35t72 16.5t55 3q59 0 113.5 -15t98.5 -43.5t67 -75t16 -104.5q-10 -93 -65.5 -136t-133.5 -50v-4q42 -2 78.5 -14.5t68.5 -36.5t48 -66.5t10 -99.5q-15 -116 -110.5 -176t-254.5 -60q-31 0 -62.5 4t-72.5 18.5t-73 38t-57.5 66t-33.5 98.5zM506 -66l1061 1514h102 l-1059 -1514h-104zM1139 160l313 639l100 8l-297 -602v-2h287l10 125l95 12l-11 -137h156l-4 -78h-156l-14 -166h-92l12 166h-371z" />
<glyph unicode="&#xbf;" horiz-adv-x="874" d="M57 -127q5 64 38 120.5t82 98.5t107.5 80.5t117 73.5t107 68.5t80 73.5t34.5 83q5 52 -22 82.5t-85 30.5q-28 0 -68.5 -18t-58.5 -52l-76 55q32 53 99.5 84t113.5 31q110 0 159.5 -57.5t41.5 -155.5q-4 -55 -35.5 -105.5t-80 -89.5t-106 -76t-115.5 -73t-106.5 -73 t-80 -83.5t-35.5 -97.5q-5 -69 21.5 -122.5t73.5 -84t101 -46t111 -15.5t105.5 9t102.5 32.5t103.5 72.5t90.5 121l92 -30q-67 -152 -202.5 -227t-299.5 -75q-63 0 -123.5 13.5t-115 43t-94 71.5t-61 103t-16.5 134zM498 791l12 202h113l-13 -202h-112z" />
<glyph unicode="&#xc0;" horiz-adv-x="1265" d="M66 0l616 1421h109l407 -1421h-117l-94 322h-668l-137 -322h-116zM356 422h609l-238 835h-6zM547 2042h112q-6 -95 78 -199t236 -190l-43 -86q-194 94 -293.5 218t-89.5 257z" />
<glyph unicode="&#xc1;" horiz-adv-x="1265" d="M66 0l616 1421h109l407 -1421h-117l-94 322h-668l-137 -322h-116zM356 422h609l-238 835h-6zM561 1653q166 87 265.5 191t105.5 198h108q-7 -133 -124 -257t-322 -218z" />
<glyph unicode="&#xc2;" horiz-adv-x="1265" d="M66 0l616 1421h109l407 -1421h-117l-94 322h-668l-137 -322h-116zM342 1653q142 75 248 191.5t125 197.5h114q10 -83 100.5 -200t219.5 -189l-45 -80q-120 62 -206 157t-132 185h-6q-60 -91 -157 -185.5t-224 -156.5zM356 422h609l-238 835h-6z" />
<glyph unicode="&#xc3;" horiz-adv-x="1265" d="M66 0l616 1421h109l407 -1421h-117l-94 322h-668l-137 -322h-116zM348 1739q3 91 62 153t139 62q58 0 118 -26.5t102 -58.5t92.5 -58.5t90.5 -26.5q44 0 78.5 32.5t38.5 81.5h96q-3 -95 -68.5 -155t-144.5 -60q-49 0 -95 17.5t-82 42.5t-70.5 50t-74 42.5t-79.5 17.5 q-43 0 -72.5 -34t-34.5 -80h-96zM356 422h609l-238 835h-6z" />
<glyph unicode="&#xc4;" horiz-adv-x="1265" d="M66 0l616 1421h109l407 -1421h-117l-94 322h-668l-137 -322h-116zM356 422h609l-238 835h-6zM449 1704l16 205h110l-14 -205h-112zM924 1704l14 205h113l-15 -205h-112z" />
<glyph unicode="&#xc5;" horiz-adv-x="1265" d="M66 0l616 1421h109l407 -1421h-117l-94 322h-668l-137 -322h-116zM356 422h609l-238 835h-6zM516 1833q0 98 69.5 159.5t170.5 61.5q99 0 168 -61.5t69 -159.5q0 -99 -69 -161t-168 -62q-100 0 -170 62.5t-70 160.5zM610 1833q0 -67 42 -108.5t104 -41.5q61 0 102 42 t41 108q0 65 -41 107t-102 42q-62 0 -104 -42t-42 -107z" />
<glyph unicode="&#xc6;" horiz-adv-x="1943" d="M66 0l833 1421h977l-8 -96h-801l-41 -551h639l-6 -96h-639l-41 -586h803l-4 -92h-914l21 322h-508l-193 -322h-118zM426 416h467l61 884h-6z" />
<glyph unicode="&#xc7;" horiz-adv-x="1384" d="M186 754q8 112 32.5 210t73.5 189t118.5 156t174 104t232.5 39q199 0 336.5 -80t189.5 -233q-9 -2 -49 -15.5t-49 -15.5q-27 70 -74 120t-107.5 76.5t-121 38t-127.5 11.5q-108 0 -194 -34t-142.5 -89.5t-96 -135t-59 -162.5t-26.5 -179q-7 -110 5.5 -208.5t48.5 -186 t94 -151.5t147 -101t201 -37q141 0 255 66t173 198l98 -29q-52 -145 -180.5 -233.5t-300.5 -100.5q48 -136 -78 -280h-309l6 98h252q65 81 24 182q-124 8 -222 54t-162 119t-104 171t-53.5 207.5t-5.5 231.5z" />
<glyph unicode="&#xc8;" horiz-adv-x="1282" d="M201 0l98 1421h913l-8 -96h-801l-38 -551h639l-9 -96h-637l-41 -582h801l-4 -96h-913zM557 2042h113q-6 -95 77.5 -199t235.5 -190l-43 -86q-194 94 -293.5 218t-89.5 257z" />
<glyph unicode="&#xc9;" horiz-adv-x="1282" d="M201 0l98 1421h913l-8 -96h-801l-38 -551h639l-9 -96h-637l-41 -582h801l-4 -96h-913zM575 1653q166 87 265.5 191t105.5 198h109q-7 -133 -124.5 -257t-322.5 -218z" />
<glyph unicode="&#xca;" horiz-adv-x="1282" d="M201 0l98 1421h913l-8 -96h-801l-38 -551h639l-9 -96h-637l-41 -582h801l-4 -96h-913zM354 1653q142 75 248 191.5t125 197.5h115q10 -83 100 -200t219 -189l-45 -80q-120 62 -206 157t-132 185h-6q-60 -91 -157 -185.5t-224 -156.5z" />
<glyph unicode="&#xcb;" horiz-adv-x="1282" d="M201 0l98 1421h913l-8 -96h-801l-38 -551h639l-9 -96h-637l-41 -582h801l-4 -96h-913zM459 1704l16 205h111l-15 -205h-112zM934 1704l14 205h113l-14 -205h-113z" />
<glyph unicode="&#xcc;" horiz-adv-x="514" d="M174 2042h113q-6 -95 77.5 -199t235.5 -190l-43 -86q-194 94 -293.5 218t-89.5 257zM201 0l98 1421h111l-99 -1421h-110z" />
<glyph unicode="&#xcd;" horiz-adv-x="514" d="M188 1653q166 87 265.5 191t105.5 198h109q-7 -133 -124.5 -257t-322.5 -218zM201 0l98 1421h111l-99 -1421h-110z" />
<glyph unicode="&#xce;" horiz-adv-x="514" d="M-31 1653q142 75 248 191.5t125 197.5h115q10 -83 100 -200t219 -189l-45 -80q-120 62 -206 157t-132 185h-6q-60 -91 -157 -185.5t-224 -156.5zM201 0l98 1421h111l-99 -1421h-110z" />
<glyph unicode="&#xcf;" horiz-adv-x="514" d="M76 1704l16 205h111l-15 -205h-112zM201 0l98 1421h111l-99 -1421h-110zM551 1704l14 205h113l-14 -205h-113z" />
<glyph unicode="&#xd0;" horiz-adv-x="1388" d="M47 680l8 90h199l45 651h363q86 0 161 -12.5t134.5 -35.5t110.5 -55t88 -71t68 -84t50 -94.5t33.5 -101t19.5 -104t7.5 -105t-3.5 -101.5q-7 -109 -34.5 -202.5t-83.5 -178.5t-137 -145t-202.5 -95.5t-273.5 -35.5h-399l47 680h-201zM317 96h289q128 0 230.5 30t170 80.5 t114.5 123.5t69.5 153t28.5 174q7 94 -1.5 181t-44 178t-97 157.5t-169.5 109t-252 42.5h-252l-38 -555h575q0 -34 -8 -90h-574z" />
<glyph unicode="&#xd1;" horiz-adv-x="1404" d="M201 0l98 1421h113l694 -1214h6l84 1214h107l-99 -1421h-112l-695 1214h-6l-84 -1214h-106zM401 1739q3 91 62 153t139 62q48 0 95.5 -17.5t86.5 -42.5t75.5 -50t74.5 -42.5t72 -17.5q43 0 77.5 32.5t38.5 81.5h97q-3 -95 -68.5 -155t-144.5 -60q-49 0 -95.5 17.5 t-82.5 42.5t-70.5 50t-74 42.5t-79.5 17.5q-43 0 -72 -34t-34 -80h-97z" />
<glyph unicode="&#xd2;" horiz-adv-x="1423" d="M156 664q0 111 16.5 215t58.5 210t106.5 184t169 128t236.5 51q123 2 222 -31t168.5 -94.5t116 -149t68 -193.5t21.5 -230q0 -83 -9 -161t-30 -157t-52.5 -147t-79 -127t-106.5 -101t-139 -66t-173 -24q-157 0 -273 48.5t-186 141t-103 217.5t-32 286zM270 641 q0 -98 14.5 -180.5t48.5 -156t87 -124.5t134.5 -80.5t186.5 -29.5q109 0 193.5 38.5t139 103.5t89.5 157.5t49.5 192.5t14.5 216q0 121 -26 222.5t-80.5 182.5t-147.5 127t-217 46q-109 0 -195 -42t-139.5 -110t-88.5 -163t-49 -193t-14 -207zM625 2042h112q-6 -95 78 -199 t236 -190l-43 -86q-194 94 -293.5 218t-89.5 257z" />
<glyph unicode="&#xd3;" horiz-adv-x="1423" d="M156 664q0 111 16.5 215t58.5 210t106.5 184t169 128t236.5 51q123 2 222 -31t168.5 -94.5t116 -149t68 -193.5t21.5 -230q0 -83 -9 -161t-30 -157t-52.5 -147t-79 -127t-106.5 -101t-139 -66t-173 -24q-157 0 -273 48.5t-186 141t-103 217.5t-32 286zM270 641 q0 -98 14.5 -180.5t48.5 -156t87 -124.5t134.5 -80.5t186.5 -29.5q109 0 193.5 38.5t139 103.5t89.5 157.5t49.5 192.5t14.5 216q0 121 -26 222.5t-80.5 182.5t-147.5 127t-217 46q-109 0 -195 -42t-139.5 -110t-88.5 -163t-49 -193t-14 -207zM639 1653q166 87 265.5 191 t105.5 198h108q-7 -133 -124 -257t-322 -218z" />
<glyph unicode="&#xd4;" horiz-adv-x="1423" d="M156 664q0 111 16.5 215t58.5 210t106.5 184t169 128t236.5 51q123 2 222 -31t168.5 -94.5t116 -149t68 -193.5t21.5 -230q0 -83 -9 -161t-30 -157t-52.5 -147t-79 -127t-106.5 -101t-139 -66t-173 -24q-157 0 -273 48.5t-186 141t-103 217.5t-32 286zM270 641 q0 -98 14.5 -180.5t48.5 -156t87 -124.5t134.5 -80.5t186.5 -29.5q109 0 193.5 38.5t139 103.5t89.5 157.5t49.5 192.5t14.5 216q0 121 -26 222.5t-80.5 182.5t-147.5 127t-217 46q-109 0 -195 -42t-139.5 -110t-88.5 -163t-49 -193t-14 -207zM422 1653q142 75 248 191.5 t125 197.5h114q10 -83 100.5 -200t219.5 -189l-45 -80q-120 62 -206 157t-132 185h-6q-60 -91 -157 -185.5t-224 -156.5z" />
<glyph unicode="&#xd5;" horiz-adv-x="1423" d="M156 664q0 111 16.5 215t58.5 210t106.5 184t169 128t236.5 51q123 2 222 -31t168.5 -94.5t116 -149t68 -193.5t21.5 -230q0 -83 -9 -161t-30 -157t-52.5 -147t-79 -127t-106.5 -101t-139 -66t-173 -24q-157 0 -273 48.5t-186 141t-103 217.5t-32 286zM270 641 q0 -98 14.5 -180.5t48.5 -156t87 -124.5t134.5 -80.5t186.5 -29.5q109 0 193.5 38.5t139 103.5t89.5 157.5t49.5 192.5t14.5 216q0 121 -26 222.5t-80.5 182.5t-147.5 127t-217 46q-109 0 -195 -42t-139.5 -110t-88.5 -163t-49 -193t-14 -207zM428 1739q3 91 62 153t139 62 q58 0 118 -26.5t102 -58.5t92.5 -58.5t90.5 -26.5q44 0 78.5 32.5t38.5 81.5h96q-3 -95 -68.5 -155t-144.5 -60q-49 0 -95 17.5t-82 42.5t-70.5 50t-74 42.5t-79.5 17.5q-43 0 -72.5 -34t-34.5 -80h-96z" />
<glyph unicode="&#xd6;" horiz-adv-x="1423" d="M156 664q0 111 16.5 215t58.5 210t106.5 184t169 128t236.5 51q123 2 222 -31t168.5 -94.5t116 -149t68 -193.5t21.5 -230q0 -83 -9 -161t-30 -157t-52.5 -147t-79 -127t-106.5 -101t-139 -66t-173 -24q-157 0 -273 48.5t-186 141t-103 217.5t-32 286zM270 641 q0 -98 14.5 -180.5t48.5 -156t87 -124.5t134.5 -80.5t186.5 -29.5q109 0 193.5 38.5t139 103.5t89.5 157.5t49.5 192.5t14.5 216q0 121 -26 222.5t-80.5 182.5t-147.5 127t-217 46q-109 0 -195 -42t-139.5 -110t-88.5 -163t-49 -193t-14 -207zM528 1704l17 205h110l-14 -205 h-113zM1004 1704l14 205h112l-14 -205h-112z" />
<glyph unicode="&#xd7;" d="M281 199l301 282l-265 283l80 76l265 -285l301 283l65 -70l-301 -283l262 -284l-80 -74l-264 285l-301 -283z" />
<glyph unicode="&#xd8;" horiz-adv-x="1423" d="M156 664q0 111 16.5 215t58.5 210t106.5 184t169 128t236.5 51q68 0 117 -8l33 143l106 -14l-32 -152q187 -62 279.5 -237.5t92.5 -429.5q0 -83 -9 -161t-30 -157t-52.5 -147t-79 -127t-106.5 -101t-139 -66t-173 -24q-10 0 -31 1t-31 1l-33 -159l-104 16l31 158 q-429 89 -426 676zM270 641q0 -98 14.5 -180.5t48.5 -156t87 -124.5t134.5 -80.5t186.5 -29.5q109 0 193.5 38.5t139 103.5t89.5 157.5t49.5 192.5t14.5 216q0 121 -26 222.5t-80.5 182.5t-147.5 127t-217 46q-109 0 -195 -42t-139.5 -110t-88.5 -163t-49 -193t-14 -207z " />
<glyph unicode="&#xd9;" horiz-adv-x="1314" d="M213 463l68 958h110l-67 -958q-5 -81 14 -148t54 -111.5t84 -74.5t101 -43.5t107 -13.5q67 0 129 23t114.5 68.5t86.5 121t41 172.5l67 964h109l-68 -964q-12 -160 -80.5 -271t-171.5 -162t-233 -51q-92 0 -176 29t-153.5 86t-107 154t-28.5 221zM571 2042h113 q-6 -95 77.5 -199t235.5 -190l-43 -86q-194 94 -293.5 218t-89.5 257z" />
<glyph unicode="&#xda;" horiz-adv-x="1314" d="M213 463l68 958h110l-67 -958q-5 -81 14 -148t54 -111.5t84 -74.5t101 -43.5t107 -13.5q67 0 129 23t114.5 68.5t86.5 121t41 172.5l67 964h109l-68 -964q-12 -160 -80.5 -271t-171.5 -162t-233 -51q-92 0 -176 29t-153.5 86t-107 154t-28.5 221zM586 1653 q165 87 264.5 190.5t105.5 198.5h109q-7 -133 -124.5 -257t-322.5 -218z" />
<glyph unicode="&#xdb;" horiz-adv-x="1314" d="M213 463l68 958h110l-67 -958q-5 -81 14 -148t54 -111.5t84 -74.5t101 -43.5t107 -13.5q67 0 129 23t114.5 68.5t86.5 121t41 172.5l67 964h109l-68 -964q-12 -160 -80.5 -271t-171.5 -162t-233 -51q-92 0 -176 29t-153.5 86t-107 154t-28.5 221zM367 1653 q141 75 247 191.5t125 197.5h115q10 -83 100.5 -200t219.5 -189l-46 -80q-120 62 -205.5 157t-131.5 185h-7q-60 -91 -157 -185.5t-224 -156.5z" />
<glyph unicode="&#xdc;" horiz-adv-x="1314" d="M213 463l68 958h110l-67 -958q-5 -81 14 -148t54 -111.5t84 -74.5t101 -43.5t107 -13.5q67 0 129 23t114.5 68.5t86.5 121t41 172.5l67 964h109l-68 -964q-12 -160 -80.5 -271t-171.5 -162t-233 -51q-92 0 -176 29t-153.5 86t-107 154t-28.5 221zM473 1704l16 205h111 l-14 -205h-113zM948 1704l15 205h112l-14 -205h-113z" />
<glyph unicode="&#xdd;" horiz-adv-x="1132" d="M164 1419h119l335 -854h5l426 854l116 2l-469 -923q-29 -67 -34 -123l-25 -375h-113l25 371q3 57 -17 116zM494 1653q165 87 264.5 190.5t105.5 198.5h109q-7 -133 -124.5 -257t-322.5 -218z" />
<glyph unicode="&#xde;" horiz-adv-x="1267" d="M205 0l98 1405h111l-17 -248h281q81 0 155.5 -13.5t147 -46.5t124 -84t80 -132t21.5 -183q-29 -419 -590 -419h-280l-17 -279h-114zM342 371h281q450 0 471 327q6 83 -17 147.5t-64 104.5t-99.5 65.5t-117.5 35.5t-124 10h-283z" />
<glyph unicode="&#xdf;" horiz-adv-x="1337" d="M205 0l59 870q20 279 148.5 425.5t361.5 146.5q114 0 207.5 -32.5t150.5 -101t50 -161.5q-3 -59 -37 -125q-213 -31 -227 -209q-2 -34 15.5 -69.5t47.5 -67t66.5 -65.5t72.5 -72.5t65 -79t45.5 -93t12.5 -108.5q-10 -125 -125.5 -205t-265.5 -80q-45 0 -89.5 6t-98 24 t-97.5 46.5t-82 77.5t-57 113l94 32q74 -200 332 -200q107 0 188.5 52t87.5 138q3 48 -13.5 93t-46 81t-65.5 71t-72 69.5t-65.5 70t-46.5 79t-14 89.5q9 118 70 186t178 91q12 24 16 63q6 86 -84.5 137t-218.5 51q-176 0 -277 -119.5t-116 -353.5l-60 -870h-110z" />
<glyph unicode="&#xe0;" horiz-adv-x="1189" d="M147 434q0 88 17.5 171.5t56 160.5t94.5 135t138.5 92.5t181.5 34.5q95 0 181 -32t136 -95h4l17 92h100l-72 -993h-100l23 395h-4q-30 -98 -74 -174t-89 -121t-95.5 -74.5t-92 -40t-80.5 -10.5q-172 0 -257 119t-85 340zM258 430q0 -169 63 -261.5t185 -92.5 q22 0 46.5 5.5t60 23.5t70 47t73.5 82.5t72.5 123t65 174t52.5 230.5q-33 62 -91.5 102.5t-110 54t-99.5 13.5q-83 0 -150 -30t-110.5 -78.5t-72.5 -115t-41.5 -135.5t-12.5 -143zM416 1614h112q-6 -95 78 -199t236 -190l-43 -86q-194 94 -293.5 218t-89.5 257z" />
<glyph unicode="&#xe1;" horiz-adv-x="1189" d="M147 434q0 88 17.5 171.5t56 160.5t94.5 135t138.5 92.5t181.5 34.5q95 0 181 -32t136 -95h4l17 92h100l-72 -993h-100l23 395h-4q-30 -98 -74 -174t-89 -121t-95.5 -74.5t-92 -40t-80.5 -10.5q-172 0 -257 119t-85 340zM258 430q0 -169 63 -261.5t185 -92.5 q22 0 46.5 5.5t60 23.5t70 47t73.5 82.5t72.5 123t65 174t52.5 230.5q-33 62 -91.5 102.5t-110 54t-99.5 13.5q-83 0 -150 -30t-110.5 -78.5t-72.5 -115t-41.5 -135.5t-12.5 -143zM391 1225q166 87 265.5 191t105.5 198h108q-7 -133 -124 -257t-322 -218z" />
<glyph unicode="&#xe2;" horiz-adv-x="1189" d="M147 434q0 88 17.5 171.5t56 160.5t94.5 135t138.5 92.5t181.5 34.5q95 0 181 -32t136 -95h4l17 92h100l-72 -993h-100l23 395h-4q-30 -98 -74 -174t-89 -121t-95.5 -74.5t-92 -40t-80.5 -10.5q-172 0 -257 119t-85 340zM201 1225q141 75 247 191.5t125 197.5h115 q10 -83 100.5 -200t219.5 -189l-45 -80q-120 62 -206 157t-132 185h-7q-60 -92 -157 -186t-223 -156zM258 430q0 -169 63 -261.5t185 -92.5q22 0 46.5 5.5t60 23.5t70 47t73.5 82.5t72.5 123t65 174t52.5 230.5q-33 62 -91.5 102.5t-110 54t-99.5 13.5q-83 0 -150 -30 t-110.5 -78.5t-72.5 -115t-41.5 -135.5t-12.5 -143z" />
<glyph unicode="&#xe3;" horiz-adv-x="1189" d="M147 434q0 88 17.5 171.5t56 160.5t94.5 135t138.5 92.5t181.5 34.5q95 0 181 -32t136 -95h4l17 92h100l-72 -993h-100l23 395h-4q-30 -98 -74 -174t-89 -121t-95.5 -74.5t-92 -40t-80.5 -10.5q-172 0 -257 119t-85 340zM213 1311q3 91 62 153t139 62q58 0 118 -26.5 t102 -58.5t92.5 -58.5t90.5 -26.5q44 0 78.5 32.5t38.5 81.5h96q-3 -95 -68.5 -155t-144.5 -60q-49 0 -95 17.5t-82 42.5t-70.5 50t-74 42.5t-79.5 17.5q-44 0 -73 -34t-34 -80h-96zM258 430q0 -169 63 -261.5t185 -92.5q22 0 46.5 5.5t60 23.5t70 47t73.5 82.5t72.5 123 t65 174t52.5 230.5q-33 62 -91.5 102.5t-110 54t-99.5 13.5q-83 0 -150 -30t-110.5 -78.5t-72.5 -115t-41.5 -135.5t-12.5 -143z" />
<glyph unicode="&#xe4;" horiz-adv-x="1189" d="M147 434q0 88 17.5 171.5t56 160.5t94.5 135t138.5 92.5t181.5 34.5q95 0 181 -32t136 -95h4l17 92h100l-72 -993h-100l23 395h-4q-30 -98 -74 -174t-89 -121t-95.5 -74.5t-92 -40t-80.5 -10.5q-172 0 -257 119t-85 340zM258 430q0 -169 63 -261.5t185 -92.5 q22 0 46.5 5.5t60 23.5t70 47t73.5 82.5t72.5 123t65 174t52.5 230.5q-33 62 -91.5 102.5t-110 54t-99.5 13.5q-83 0 -150 -30t-110.5 -78.5t-72.5 -115t-41.5 -135.5t-12.5 -143zM313 1276l17 205h110l-14 -205h-113zM788 1276l15 205h112l-14 -205h-113z" />
<glyph unicode="&#xe5;" horiz-adv-x="1189" d="M147 434q0 88 17.5 171.5t56 160.5t94.5 135t138.5 92.5t181.5 34.5q95 0 181 -32t136 -95h4l17 92h100l-72 -993h-100l23 395h-4q-30 -98 -74 -174t-89 -121t-95.5 -74.5t-92 -40t-80.5 -10.5q-172 0 -257 119t-85 340zM258 430q0 -169 63 -261.5t185 -92.5 q22 0 46.5 5.5t60 23.5t70 47t73.5 82.5t72.5 123t65 174t52.5 230.5q-33 62 -91.5 102.5t-110 54t-99.5 13.5q-83 0 -150 -30t-110.5 -78.5t-72.5 -115t-41.5 -135.5t-12.5 -143zM379 1405q0 98 69 159.5t170 61.5q99 0 168.5 -62t69.5 -159q0 -99 -69.5 -161t-168.5 -62 q-100 0 -169.5 62.5t-69.5 160.5zM473 1405q0 -67 41.5 -108.5t103.5 -41.5q61 0 102.5 42t41.5 108q0 65 -41.5 107t-102.5 42q-62 0 -103.5 -42t-41.5 -107z" />
<glyph unicode="&#xe6;" horiz-adv-x="1839" d="M137 272q4 72 30 125t66 83.5t93.5 52.5t111 32t120 22.5t118 24.5t108.5 37t88 60q-4 34 -12 62t-28.5 60t-50 54t-81 36.5t-118.5 14.5q-92 0 -185 -37t-155 -121l-78 62q86 107 190 148.5t232 41.5q146 0 237.5 -55t124.5 -156h4q69 113 166.5 161t229.5 48 q35 0 68 -3.5t70 -12t68 -22.5t63.5 -35.5t56.5 -51.5t46 -70t32 -91t15 -114t-4 -139h-796q-10 -201 82 -309t245 -108q48 0 88 6.5t89 25.5t95.5 61t86.5 105l94 -41q-148 -254 -447 -254q-62 0 -114.5 11t-104.5 37.5t-95.5 76.5t-74.5 121h-4q-36 -65 -93.5 -114.5 t-119 -76.5t-117.5 -40t-104 -13q-64 0 -124 17t-110.5 51t-78.5 92.5t-23 134.5zM244 279q-4 -54 17.5 -96t59 -65t79 -34.5t83.5 -11.5q51 0 111.5 20.5t118 57t98 97.5t45.5 132l14 225h-4q-55 -48 -141 -74t-163.5 -36.5t-149.5 -27.5t-117.5 -62t-50.5 -125zM975 578 h684q5 83 -11.5 147.5t-46 103t-73 63t-86 33.5t-90.5 9q-49 0 -94.5 -8.5t-95 -33t-87.5 -63t-65.5 -103t-34.5 -148.5z" />
<glyph unicode="&#xe7;" horiz-adv-x="1138" d="M156 520q8 110 41 200t93 159.5t154 108t215 38.5q143 0 253.5 -65.5t150.5 -188.5l-98 -33q-24 68 -76.5 112.5t-110 61.5t-121.5 17q-94 0 -167 -31.5t-119.5 -88.5t-72.5 -129.5t-32 -160.5q-6 -90 12.5 -169.5t60.5 -142t113.5 -98.5t165.5 -36q98 0 197.5 52.5 t147.5 149.5l94 -36q-52 -109 -158.5 -176t-222.5 -82q53 -140 -76 -291h-309l6 98h252q67 83 22 188q-111 7 -196 54t-134 122t-71 168.5t-14 198.5z" />
<glyph unicode="&#xe8;" horiz-adv-x="1138" d="M129 530q7 102 40.5 189.5t93 157t152.5 109.5t210 40q73 0 135.5 -14.5t122.5 -52.5t99.5 -96.5t58.5 -154.5t8 -219h-816q-9 -176 85.5 -295.5t261.5 -119.5q237 0 358 194l94 -39q-40 -72 -98 -124t-122 -79t-122.5 -39t-116.5 -12q-148 0 -254 74.5t-154 200 t-36 280.5zM244 578h702q3 83 -13.5 146.5t-47 102.5t-75 63.5t-91.5 34t-103 9.5q-84 0 -150.5 -28.5t-110.5 -79t-71 -112t-40 -136.5zM449 1614h112q-6 -95 77.5 -199t235.5 -190l-43 -86q-193 94 -293 217.5t-89 257.5z" />
<glyph unicode="&#xe9;" horiz-adv-x="1136" d="M129 530q7 102 40.5 189.5t93 157t152.5 109.5t210 40q73 0 135.5 -14.5t122.5 -52.5t99.5 -96.5t58.5 -154.5t8 -219h-816q-9 -176 85.5 -295.5t261.5 -119.5q237 0 358 194l94 -39q-40 -72 -98 -124t-122 -79t-122.5 -39t-116.5 -12q-148 0 -254 74.5t-154 200 t-36 280.5zM244 578h702q3 83 -13.5 146.5t-47 102.5t-75 63.5t-91.5 34t-103 9.5q-84 0 -150.5 -28.5t-110.5 -79t-71 -112t-40 -136.5zM473 1225q166 87 265.5 191t105.5 198h108q-7 -133 -124 -257t-322 -218z" />
<glyph unicode="&#xea;" horiz-adv-x="1136" d="M129 530q7 102 40.5 189.5t93 157t152.5 109.5t210 40q73 0 135.5 -14.5t122.5 -52.5t99.5 -96.5t58.5 -154.5t8 -219h-816q-9 -176 85.5 -295.5t261.5 -119.5q237 0 358 194l94 -39q-40 -72 -98 -124t-122 -79t-122.5 -39t-116.5 -12q-148 0 -254 74.5t-154 200 t-36 280.5zM244 578h702q3 83 -13.5 146.5t-47 102.5t-75 63.5t-91.5 34t-103 9.5q-84 0 -150.5 -28.5t-110.5 -79t-71 -112t-40 -136.5zM258 1225q142 75 248 191.5t125 197.5h114q10 -83 100.5 -200t219.5 -189l-45 -80q-120 62 -206 157t-132 185h-6q-60 -91 -157 -185.5 t-224 -156.5z" />
<glyph unicode="&#xeb;" horiz-adv-x="1136" d="M129 530q7 102 40.5 189.5t93 157t152.5 109.5t210 40q73 0 135.5 -14.5t122.5 -52.5t99.5 -96.5t58.5 -154.5t8 -219h-816q-9 -176 85.5 -295.5t261.5 -119.5q237 0 358 194l94 -39q-40 -72 -98 -124t-122 -79t-122.5 -39t-116.5 -12q-148 0 -254 74.5t-154 200 t-36 280.5zM244 578h702q3 83 -13.5 146.5t-47 102.5t-75 63.5t-91.5 34t-103 9.5q-84 0 -150.5 -28.5t-110.5 -79t-71 -112t-40 -136.5zM362 1276l17 205h110l-14 -205h-113zM838 1276l14 205h113l-15 -205h-112z" />
<glyph unicode="&#xec;" horiz-adv-x="489" d="M131 1614h113q-6 -95 77.5 -199t235.5 -190l-43 -86q-194 94 -293.5 218t-89.5 257zM188 0l68 993h113l-68 -993h-113z" />
<glyph unicode="&#xed;" horiz-adv-x="489" d="M145 1225q166 87 265.5 191t105.5 198h109q-7 -133 -124.5 -257t-322.5 -218zM188 0l68 993h113l-68 -993h-113z" />
<glyph unicode="&#xee;" horiz-adv-x="489" d="M-76 1225q142 75 248 191.5t125 197.5h115q10 -83 100 -200t219 -189l-45 -80q-120 62 -206 157t-132 185h-6q-60 -91 -157 -185.5t-224 -156.5zM188 0l68 993h113l-68 -993h-113z" />
<glyph unicode="&#xef;" horiz-adv-x="489" d="M33 1276l16 205h111l-15 -205h-112zM188 0l68 993h113l-68 -993h-113zM508 1276l14 205h113l-14 -205h-113z" />
<glyph unicode="&#xf0;" horiz-adv-x="1239" d="M168 436q15 205 150.5 336t343.5 131q115 0 221.5 -63.5t142.5 -139.5h6q22 503 -164 648l-155 -236l-80 53l151 230q-62 20 -127 20q-82 0 -165.5 -35.5t-145.5 -107.5l-72 59q79 93 186 136.5t206 43.5t178 -28l135 205l80 -54l-131 -196q261 -176 217 -785 q-24 -332 -157.5 -507t-379.5 -175q-94 0 -176.5 31.5t-144 89t-94 147t-25.5 197.5zM279 432q-6 -80 19.5 -150.5t73 -117.5t110.5 -74t132 -27q92 0 168 39.5t124 105t75.5 142.5t32.5 158q3 40 -23 91.5t-70.5 97.5t-111.5 78t-137 32q-165 0 -273.5 -107.5 t-119.5 -267.5z" />
<glyph unicode="&#xf1;" horiz-adv-x="1165" d="M188 0l68 993h100l-32 -506h6q47 158 98 266t108 168.5t115 85.5t129 25q135 0 202.5 -96.5t55.5 -280.5l-45 -655h-110l41 610q22 318 -160 318q-27 0 -55 -10t-63.5 -37t-70 -70t-73 -116t-73.5 -167t-71.5 -229.5t-66.5 -298.5h-103zM270 1311q3 91 62 153t139 62 q58 0 118 -26.5t102 -58.5t92.5 -58.5t90.5 -26.5q44 0 78.5 32.5t38.5 81.5h96q-3 -95 -68.5 -155t-144.5 -60q-49 0 -95 17.5t-82 42.5t-70.5 50t-74 42.5t-79.5 17.5q-43 0 -72 -34t-34 -80h-97z" />
<glyph unicode="&#xf2;" horiz-adv-x="1177" d="M135 489q0 84 19 162t58 147t94 120t132 80.5t168 29.5q225 0 352 -143t127 -379q0 -82 -16.5 -157.5t-53 -144t-89 -119t-130 -80.5t-171.5 -30q-231 0 -360.5 133.5t-129.5 380.5zM248 475q0 -82 21 -152.5t64 -127.5t116.5 -90t171.5 -33q111 0 192.5 58.5t121.5 157 t40 224.5q0 79 -20 150.5t-61.5 133t-114.5 98t-169 36.5q-88 0 -159 -38t-114 -102.5t-66 -145t-23 -169.5zM473 1614h113q-6 -95 77.5 -199t235.5 -190l-43 -86q-194 94 -293.5 218t-89.5 257z" />
<glyph unicode="&#xf3;" horiz-adv-x="1177" d="M135 489q0 84 19 162t58 147t94 120t132 80.5t168 29.5q225 0 352 -143t127 -379q0 -82 -16.5 -157.5t-53 -144t-89 -119t-130 -80.5t-171.5 -30q-231 0 -360.5 133.5t-129.5 380.5zM248 475q0 -82 21 -152.5t64 -127.5t116.5 -90t171.5 -33q111 0 192.5 58.5t121.5 157 t40 224.5q0 79 -20 150.5t-61.5 133t-114.5 98t-169 36.5q-88 0 -159 -38t-114 -102.5t-66 -145t-23 -169.5zM487 1225q166 87 265.5 191t105.5 198h109q-7 -133 -124.5 -257t-322.5 -218z" />
<glyph unicode="&#xf4;" horiz-adv-x="1177" d="M135 489q0 84 19 162t58 147t94 120t132 80.5t168 29.5q225 0 352 -143t127 -379q0 -82 -16.5 -157.5t-53 -144t-89 -119t-130 -80.5t-171.5 -30q-231 0 -360.5 133.5t-129.5 380.5zM248 475q0 -82 21 -152.5t64 -127.5t116.5 -90t171.5 -33q111 0 192.5 58.5t121.5 157 t40 224.5q0 79 -20 150.5t-61.5 133t-114.5 98t-169 36.5q-88 0 -159 -38t-114 -102.5t-66 -145t-23 -169.5zM270 1225q142 75 248 191.5t125 197.5h115q10 -83 100 -200t219 -189l-45 -80q-120 62 -206 157t-132 185h-6q-60 -91 -157 -185.5t-224 -156.5z" />
<glyph unicode="&#xf5;" horiz-adv-x="1177" d="M135 489q0 84 19 162t58 147t94 120t132 80.5t168 29.5q225 0 352 -143t127 -379q0 -82 -16.5 -157.5t-53 -144t-89 -119t-130 -80.5t-171.5 -30q-231 0 -360.5 133.5t-129.5 380.5zM248 475q0 -82 21 -152.5t64 -127.5t116.5 -90t171.5 -33q111 0 192.5 58.5t121.5 157 t40 224.5q0 79 -20 150.5t-61.5 133t-114.5 98t-169 36.5q-88 0 -159 -38t-114 -102.5t-66 -145t-23 -169.5zM279 1311q3 91 61.5 153t138.5 62q48 0 95.5 -17.5t86.5 -42.5t75.5 -50t74.5 -42.5t72 -17.5q43 0 77.5 32.5t38.5 81.5h97q-3 -95 -68.5 -155t-144.5 -60 q-49 0 -95.5 17.5t-82.5 42.5t-70.5 50t-74 42.5t-79.5 17.5q-43 0 -72 -34t-34 -80h-96z" />
<glyph unicode="&#xf6;" horiz-adv-x="1177" d="M135 489q0 84 19 162t58 147t94 120t132 80.5t168 29.5q225 0 352 -143t127 -379q0 -82 -16.5 -157.5t-53 -144t-89 -119t-130 -80.5t-171.5 -30q-231 0 -360.5 133.5t-129.5 380.5zM248 475q0 -82 21 -152.5t64 -127.5t116.5 -90t171.5 -33q111 0 192.5 58.5t121.5 157 t40 224.5q0 79 -20 150.5t-61.5 133t-114.5 98t-169 36.5q-88 0 -159 -38t-114 -102.5t-66 -145t-23 -169.5zM377 1276l16 205h111l-15 -205h-112zM852 1276l14 205h113l-14 -205h-113z" />
<glyph unicode="&#xf7;" d="M225 446l8 99h850l-6 -99h-852zM557 -14l12 200h115l-12 -200h-115zM612 807l13 199h114l-12 -199h-115z" />
<glyph unicode="&#xf8;" horiz-adv-x="1177" d="M135 489q0 84 19 162t58 147t94 120t132 80.5t168 29.5q43 0 117 -12l53 178l101 -23l-54 -188q126 -58 194 -183t68 -294q0 -82 -16.5 -157.5t-53 -144t-89 -119t-130 -80.5t-171.5 -30q-53 0 -103 9l-47 -166l-104 22l49 168q-137 52 -211 174t-74 307zM248 475 q0 -82 21 -152.5t64 -127.5t116.5 -90t171.5 -33q111 0 192.5 58.5t121.5 157t40 224.5q0 79 -20 150.5t-61.5 133t-114.5 98t-169 36.5q-88 0 -159 -38t-114 -102.5t-66 -145t-23 -169.5z" />
<glyph unicode="&#xf9;" horiz-adv-x="1165" d="M193 338l45 655h112l-41 -610q-6 -65 -2 -123t17.5 -101t46 -68t82.5 -25q27 0 55.5 9.5t66 37t73.5 70.5t76 115.5t77 166.5t74 229.5t67 298.5h102l-67 -993h-103l33 506h-4q-46 -155 -99.5 -263.5t-113.5 -168.5t-120 -85.5t-130 -25.5q-134 0 -196.5 94.5 t-50.5 280.5zM467 1614h113q-6 -95 77.5 -199t235.5 -190l-43 -86q-194 94 -293.5 218t-89.5 257z" />
<glyph unicode="&#xfa;" horiz-adv-x="1165" d="M193 338l45 655h112l-41 -610q-6 -65 -2 -123t17.5 -101t46 -68t82.5 -25q27 0 55.5 9.5t66 37t73.5 70.5t76 115.5t77 166.5t74 229.5t67 298.5h102l-67 -993h-103l33 506h-4q-46 -155 -99.5 -263.5t-113.5 -168.5t-120 -85.5t-130 -25.5q-134 0 -196.5 94.5 t-50.5 280.5zM457 1225q165 87 264.5 190.5t105.5 198.5h109q-7 -133 -124.5 -257t-322.5 -218z" />
<glyph unicode="&#xfb;" horiz-adv-x="1165" d="M193 338l45 655h112l-41 -610q-6 -65 -2 -123t17.5 -101t46 -68t82.5 -25q27 0 55.5 9.5t66 37t73.5 70.5t76 115.5t77 166.5t74 229.5t67 298.5h102l-67 -993h-103l33 506h-4q-46 -155 -99.5 -263.5t-113.5 -168.5t-120 -85.5t-130 -25.5q-134 0 -196.5 94.5 t-50.5 280.5zM264 1225q142 75 248 191.5t125 197.5h115q10 -83 100 -200t219 -189l-45 -80q-120 62 -206 157t-132 185h-6q-60 -91 -157 -185.5t-224 -156.5z" />
<glyph unicode="&#xfc;" horiz-adv-x="1165" d="M193 338l45 655h112l-41 -610q-6 -65 -2 -123t17.5 -101t46 -68t82.5 -25q27 0 55.5 9.5t66 37t73.5 70.5t76 115.5t77 166.5t74 229.5t67 298.5h102l-67 -993h-103l33 506h-4q-46 -155 -99.5 -263.5t-113.5 -168.5t-120 -85.5t-130 -25.5q-134 0 -196.5 94.5 t-50.5 280.5zM362 1276l17 205h110l-14 -205h-113zM838 1276l14 205h113l-15 -205h-112z" />
<glyph unicode="&#xfd;" horiz-adv-x="991" d="M133 993h115l287 -817h6l350 817h110l-632 -1468h-105l191 463q8 18 8.5 39.5t-6.5 46.5t-13.5 44t-18.5 47.5t-17 41.5zM403 1225q166 87 265.5 191t105.5 198h109q-7 -133 -124.5 -257t-322.5 -218z" />
<glyph unicode="&#xfe;" horiz-adv-x="1183" d="M154 -475l133 1896l114 60l-43 -602h7q58 67 147 109t176 42q95 0 177.5 -36.5t142.5 -102t91 -164.5t23 -217q-9 -126 -53.5 -228t-114 -168t-156.5 -101.5t-184 -35.5q-90 0 -173.5 33.5t-129.5 93.5h-6l-41 -579h-110zM313 233q102 -157 295 -157q76 0 145 28 t124.5 81t91.5 136.5t43 188.5q12 185 -89 303.5t-255 118.5q-72 0 -159.5 -41.5t-158.5 -130.5q-12 -217 -37 -527z" />
<glyph unicode="&#xff;" horiz-adv-x="991" d="M133 993h115l287 -817h6l350 817h110l-632 -1468h-105l191 463q8 18 8.5 39.5t-6.5 46.5t-13.5 44t-18.5 47.5t-17 41.5zM295 1276l16 205h111l-14 -205h-113zM770 1276l14 205h113l-14 -205h-113z" />
<glyph unicode="&#x152;" horiz-adv-x="2260" d="M158 733q8 123 31.5 226.5t70.5 196t115 156.5t169 101t228 37q48 0 93 -5t105.5 -24t110.5 -50t98 -88t78 -134l21 272h913l-6 -96h-803l-39 -551h639l-6 -96h-639l-41 -582h803l-6 -96h-913l18 260q-139 -289 -473 -289q-130 0 -232 40.5t-167.5 110.5t-106.5 167.5 t-55 208t-6 235.5zM274 735q-9 -139 12 -256.5t73 -211.5t147 -147.5t225 -53.5q103 0 184.5 36t136.5 96.5t93 147.5t57.5 181.5t26.5 205.5q9 135 -12 246t-74 197t-148 134t-225 48q-455 0 -496 -623z" />
<glyph unicode="&#x153;" horiz-adv-x="1984" d="M125 489q0 104 33.5 200.5t95 172t156 121t208.5 45.5q158 0 266.5 -75t159.5 -210q53 130 158 206.5t264 76.5q492 0 443 -537h-817q-9 -184 88 -299.5t262 -115.5q233 0 356 194l92 -39q-40 -72 -96.5 -124t-119 -79t-120 -39t-114.5 -12q-152 0 -256 70.5t-152 196.5 q-53 -123 -155 -195t-252 -72q-232 0 -366 134t-134 380zM238 475q0 -82 22.5 -152.5t67 -127.5t120 -90t173.5 -33q168 0 266 124.5t98 315.5q0 79 -20 150.5t-61 133t-114 98t-169 36.5q-89 0 -162.5 -38t-121 -102t-73.5 -145.5t-26 -169.5zM1102 578h702 q4 103 -20.5 175t-74 110.5t-108 54.5t-135.5 16q-84 0 -152 -29.5t-112 -80t-69.5 -113t-30.5 -133.5z" />
<glyph unicode="&#x178;" horiz-adv-x="1132" d="M164 1419h119l335 -854h5l426 854l116 2l-469 -923q-29 -67 -34 -123l-25 -375h-113l25 371q3 57 -17 116zM381 1704l16 205h111l-14 -205h-113zM856 1704l14 205h113l-14 -205h-113z" />
<glyph unicode="&#x2c6;" horiz-adv-x="1107" d="M233 1225q142 75 248 191.5t125 197.5h115q10 -83 100 -200t219 -189l-45 -80q-120 62 -206 157t-132 185h-6q-60 -91 -157 -185.5t-224 -156.5z" />
<glyph unicode="&#x2dc;" horiz-adv-x="1122" d="M240 1311q3 91 61.5 153t138.5 62q48 0 95.5 -17.5t86.5 -42.5t75.5 -50t74.5 -42.5t72 -17.5q44 0 78.5 32.5t38.5 81.5h96q-3 -95 -68.5 -155t-144.5 -60q-49 0 -95.5 17.5t-82.5 42.5t-70.5 50t-74 42.5t-79.5 17.5q-43 0 -72 -34t-34 -80h-96z" />
<glyph unicode="&#x2000;" horiz-adv-x="1027" />
<glyph unicode="&#x2001;" horiz-adv-x="2054" />
<glyph unicode="&#x2002;" horiz-adv-x="1027" />
<glyph unicode="&#x2003;" horiz-adv-x="2054" />
<glyph unicode="&#x2004;" horiz-adv-x="684" />
<glyph unicode="&#x2005;" horiz-adv-x="513" />
<glyph unicode="&#x2006;" horiz-adv-x="342" />
<glyph unicode="&#x2007;" horiz-adv-x="342" />
<glyph unicode="&#x2008;" horiz-adv-x="256" />
<glyph unicode="&#x2009;" horiz-adv-x="410" />
<glyph unicode="&#x200a;" horiz-adv-x="114" />
<glyph unicode="&#x2010;" horiz-adv-x="954" d="M209 436l6 101h596l-6 -101h-596z" />
<glyph unicode="&#x2011;" horiz-adv-x="954" d="M209 436l6 101h596l-6 -101h-596z" />
<glyph unicode="&#x2012;" horiz-adv-x="954" d="M209 436l6 101h596l-6 -101h-596z" />
<glyph unicode="&#x2013;" horiz-adv-x="1234" d="M225 434l8 98h850l-6 -98h-852z" />
<glyph unicode="&#x2014;" horiz-adv-x="1632" d="M227 434l13 98h1269l-8 -98h-1274z" />
<glyph unicode="&#x2018;" horiz-adv-x="528" d="M256 1217q14 178 139 284l60 -55q-36 -26 -65.5 -79t-35.5 -120h31l-14 -196h-101q-17 89 -14 166z" />
<glyph unicode="&#x2019;" horiz-adv-x="528" d="M248 1087q35 25 64.5 78t35.5 119h-33l13 197h102q18 -80 12 -166q-10 -178 -139 -285z" />
<glyph unicode="&#x201a;" horiz-adv-x="528" d="M160 -197q35 25 64.5 78t35.5 119h-33l13 197h102q18 -80 12 -166q-10 -178 -139 -285z" />
<glyph unicode="&#x201c;" horiz-adv-x="841" d="M258 1217q14 178 139 284l60 -55q-36 -26 -65.5 -79t-35.5 -120h31l-14 -196h-101q-17 89 -14 166zM573 1217q14 177 140 284l59 -55q-36 -26 -65 -79t-35 -120h30l-14 -196h-100q-18 93 -15 166z" />
<glyph unicode="&#x201d;" horiz-adv-x="839" d="M248 1087q35 25 64.5 78t35.5 119h-33l13 197h102q18 -80 12 -166q-10 -178 -139 -285zM565 1087q35 25 65 78t36 119h-33l12 197h103q18 -80 12 -166q-10 -178 -139 -285z" />
<glyph unicode="&#x201e;" horiz-adv-x="839" d="M160 -197q35 25 64.5 78t35.5 119h-33l13 197h102q18 -80 12 -166q-10 -178 -139 -285zM475 -197q35 25 64.5 78t35.5 119h-32l12 197h102q19 -83 13 -166q-10 -177 -140 -285z" />
<glyph unicode="&#x2022;" horiz-adv-x="681" d="M39 606q0 90 60 151.5t149 61.5q88 0 149.5 -62t61.5 -151q0 -88 -61.5 -148.5t-149.5 -60.5q-89 0 -149 60.5t-60 148.5z" />
<glyph unicode="&#x2026;" horiz-adv-x="1286" d="M260 0l12 203h115l-12 -203h-115zM674 0l12 203h115l-13 -203h-114zM1087 0l13 203h114l-12 -203h-115z" />
<glyph unicode="&#x202f;" horiz-adv-x="410" />
<glyph unicode="&#x2039;" horiz-adv-x="759" d="M199 469l6 78l454 407l-8 -127l-346 -317v-4l301 -324l-10 -125z" />
<glyph unicode="&#x203a;" horiz-adv-x="759" d="M166 57l8 125l346 324v4l-301 317l8 127l400 -407l-6 -78z" />
<glyph unicode="&#x205f;" horiz-adv-x="513" />
<glyph unicode="&#x20ac;" d="M61 512l7 90h82q-3 76 0 156q0 17 4 63h-72l6 90h78q22 114 67.5 209.5t114.5 171t169.5 118t221.5 42.5q105 0 193 -29.5t157 -99.5t93 -174q-2 -1 -40 -17t-48 -18q-87 240 -361 240q-97 0 -176 -34.5t-133.5 -96t-90.5 -139.5t-54 -173h696l-6 -90h-705q-4 -46 -4 -63 q-3 -90 2 -156h692l-6 -90h-678q15 -97 47.5 -175t84 -139t128 -94.5t172.5 -33.5q108 0 225 75t160 185l89 -35q-34 -96 -116 -172.5t-178 -115t-186 -38.5q-122 0 -218.5 41.5t-160 116.5t-102.5 171t-55 214h-99z" />
<glyph unicode="&#x2122;" horiz-adv-x="1835" d="M197 1432l6 77h657l-6 -77h-283l-53 -781h-94l53 781h-280zM952 651l60 858h114l260 -659h5l327 659h125l-59 -858h-94l47 692h-4l-324 -630h-66l-249 630h-4l-50 -692h-88z" />
<glyph unicode="&#x25fc;" horiz-adv-x="993" d="M0 0v993h993v-993h-993z" />
</font>
</defs>
</svg>
