<?xml version="1.0" encoding="utf-8"?>
<!-- Generator: Adobe Illustrator 20.1.0, SVG Export Plug-In . SVG Version: 6.00 Build 0)  -->
<svg version="1.1"
	 id="svg2" xmlns:cc="http://creativecommons.org/ns#" xmlns:dc="http://purl.org/dc/elements/1.1/" xmlns:rdf="http://www.w3.org/1999/02/22-rdf-syntax-ns#"
	 xmlns="http://www.w3.org/2000/svg" xmlns:xlink="http://www.w3.org/1999/xlink" x="0px" y="0px" viewBox="0 0 11.6 15"
	 style="enable-background:new 0 0 11.6 15;" xml:space="preserve">
<g id="g12" transform="scale(.1)">
	<g id="g14">
		<g>
			<g id="g16">
				<path id="path26" d="M60.1,0.1C20.8,0.1,0,26.4,0,55.2c0,13.3,7.1,29.9,18.5,35.2c1.7,0.8,2.6,0.4,3-1.2
					c0.3-1.3,1.8-7.4,2.5-10.3c0.2-0.9,0.1-1.7-0.6-2.6c-3.7-4.5-6.8-12.9-6.8-20.7C16.6,35.4,31.8,16,57.7,16c22.4,0,38,15.2,38,37
					c0,24.6-12.4,41.7-28.6,41.7c-8.9,0-15.6-7.4-13.5-16.4c2.6-10.8,7.5-22.5,7.5-30.3c0-7-3.8-12.8-11.5-12.8
					c-9.1,0-16.5,9.4-16.5,22.1c0,8.1,2.7,13.5,2.7,13.5s-9,38.1-10.6,45.2c-2.8,12,0.4,31.6,0.6,33.3c0.1,0.9,1.2,1.2,1.7,0.4
					c0.9-1.2,11.8-17.5,14.8-29.3c1.1-4.3,5.7-21.6,5.7-21.6c3,5.7,11.6,10.4,20.9,10.4c27.4,0,47.2-25.2,47.2-56.6
					C116.2,22.6,91.7,0.1,60.1,0.1"/>
			</g>
		</g>
	</g>
</g>
</svg>
