<?xml version="1.0" encoding="utf-8"?>
<!-- Generator: Adobe Illustrator 20.1.0, SVG Export Plug-In . SVG Version: 6.00 Build 0)  -->
<svg version="1.1"
	 id="Layer_1" xmlns:cc="http://creativecommons.org/ns#" xmlns:dc="http://purl.org/dc/elements/1.1/" xmlns:rdf="http://www.w3.org/1999/02/22-rdf-syntax-ns#"
	 xmlns="http://www.w3.org/2000/svg" xmlns:xlink="http://www.w3.org/1999/xlink" x="0px" y="0px" viewBox="0 0 18 15"
	 style="enable-background:new 0 0 18 15;" xml:space="preserve">
<g transform="translate(-539.18 -568.86)">
	<path d="M544.6,583.9c7,0,10.7-5.7,10.7-10.7c0-0.1,0-0.4,0-0.5c0.7-0.5,1.3-1.2,1.8-2c-0.7,0.2-1.3,0.5-2.2,0.6
		c0.7-0.5,1.3-1.2,1.7-2.1c-0.7,0.5-1.6,0.7-2.4,0.9c-0.7-0.7-1.7-1.2-2.7-1.2c-2.1,0-3.8,1.7-3.8,3.8c0,0.2,0,0.6,0.1,0.9
		c-3.2-0.1-5.9-1.7-7.7-3.9c-0.4,0.6-0.5,1.2-0.5,1.8c0,1.3,0.6,2.4,1.7,3.2c-0.6,0-1.2-0.2-1.7-0.5l0,0c0,1.8,1.3,3.3,3,3.7
		c-0.4,0.1-0.6,0.1-1,0.1c-0.2,0-0.5,0-0.7-0.1c0.5,1.5,1.8,2.6,3.5,2.6c-1.3,1-2.9,1.6-4.6,1.6c-0.2,0-0.6,0-0.9,0
		C540.4,583.2,542.5,583.9,544.6,583.9"/>
</g>
</svg>
