<?xml version="1.0" encoding="utf-8"?>
<!-- Generator: Adobe Illustrator 20.1.0, SVG Export Plug-In . SVG Version: 6.00 Build 0)  -->
<svg version="1.1" id="Layer_1" xmlns="http://www.w3.org/2000/svg" xmlns:xlink="http://www.w3.org/1999/xlink" x="0px" y="0px"
	 viewBox="0 0 50 50" style="enable-background:new 0 0 50 50;" xml:space="preserve">
<style type="text/css">
	.st0{fill:none;stroke:#000000;stroke-width:1.5;}
	.st1{fill:none;stroke:#000000;stroke-width:2;}
	.st2{fill:none;stroke:#DA1C5C;stroke-width:2;}
	.st3{clip-path:url(#SVGID_2_);fill:none;stroke:#000000;stroke-width:2;}
	.st4{clip-path:url(#SVGID_4_);fill:none;stroke:#000000;stroke-width:2;}
	.st5{fill:none;stroke:#000000;stroke-width:1.5157;}
	.st6{fill:none;stroke:#000000;stroke-width:1.415;}
	.st7{clip-path:url(#SVGID_6_);fill:none;stroke:#000000;stroke-width:2;}
	.st8{clip-path:url(#SVGID_8_);fill:none;stroke:#000000;stroke-width:2;}
	.st9{fill:#E1E33A;}
	.st10{clip-path:url(#SVGID_10_);fill:none;stroke:#000000;stroke-width:2;}
	.st11{clip-path:url(#SVGID_12_);fill:none;stroke:#000000;stroke-width:2;}
	.st12{fill:none;stroke:#FFFFFF;stroke-width:2;}
	.st13{opacity:0.6;fill:none;stroke:#EC008C;stroke-width:2;}
</style>
<g>
	<path class="st1" d="M20.8,35.6c2.3,2.3,6.1,2.3,8.5,0"/>
</g>
<path d="M34.2,24.6c0,0.2,0.1,0.4,0.1,0.5c0,1.7-1.3,3-3,3c-1.7,0-3-1.3-3-3c0-0.2,0-0.4,0.1-0.5h-6.6c0,0.2,0.1,0.4,0.1,0.5
	c0,1.7-1.3,3-3,3s-3-1.3-3-3c0-0.2,0-0.4,0.1-0.5h-3.3v1.6h1.4c0.5,2.2,2.5,3.9,4.9,3.9s4.4-1.7,4.9-3.9h2.8
	c0.5,2.2,2.5,3.9,4.9,3.9s4.4-1.7,4.9-3.9h1.4v-1.6H34.2z"/>
</svg>
