<?xml version="1.0" encoding="utf-8"?>
<!-- Generator: Adobe Illustrator 20.1.0, SVG Export Plug-In . SVG Version: 6.00 Build 0)  -->
<svg version="1.1" id="Layer_1" xmlns="http://www.w3.org/2000/svg" xmlns:xlink="http://www.w3.org/1999/xlink" x="0px" y="0px"
	 viewBox="0 0 50 50" style="enable-background:new 0 0 50 50;" xml:space="preserve">
<style type="text/css">
	.st0{fill:none;stroke:#000000;stroke-width:1.5;}
	.st1{fill:none;stroke:#000000;stroke-width:2;}
	.st2{fill:none;stroke:#DA1C5C;stroke-width:2;}
	.st3{clip-path:url(#SVGID_2_);fill:none;stroke:#000000;stroke-width:2;}
	.st4{clip-path:url(#SVGID_4_);fill:none;stroke:#000000;stroke-width:2;}
	.st5{fill:none;stroke:#000000;stroke-width:1.5157;}
	.st6{fill:none;stroke:#000000;stroke-width:1.415;}
	.st7{clip-path:url(#SVGID_6_);fill:none;stroke:#000000;stroke-width:2;}
	.st8{clip-path:url(#SVGID_8_);fill:none;stroke:#000000;stroke-width:2;}
	.st9{fill:#E1E33A;}
	.st10{clip-path:url(#SVGID_10_);fill:none;stroke:#000000;stroke-width:2;}
	.st11{clip-path:url(#SVGID_12_);fill:none;stroke:#000000;stroke-width:2;}
	.st12{fill:none;stroke:#FFFFFF;stroke-width:2;}
	.st13{fill:#FFFFFF;}
	.st14{opacity:0.6;fill:none;stroke:#EC008C;stroke-width:2;}
</style>
<line class="st1" x1="36.4" y1="29.1" x2="26.3" y2="29.1"/>
<line class="st1" x1="23.8" y1="29.1" x2="13.7" y2="29.1"/>
<line class="st1" x1="37.5" y1="27.1" x2="35.3" y2="27.1"/>
<path class="st1" d="M35.2,29.1c0.1-0.3,0.1-0.6,0.1-0.9c0-2.2-1.8-4-4-4s-4,1.8-4,4c0,0.3,0,0.6,0.1,0.9"/>
<path class="st1" d="M22.7,29.1c0.1-0.3,0.1-0.6,0.1-0.9c0-2.2-1.8-4-4-4c-2.2,0-4,1.8-4,4c0,0.3,0,0.6,0.1,0.9"/>
<line class="st1" x1="26.8" y1="27.1" x2="23.2" y2="27.1"/>
<line class="st1" x1="14.8" y1="27.1" x2="12.5" y2="27.1"/>
<g>
	<path class="st1" d="M20.8,35.6c2.3,2.3,6.1,2.3,8.5,0"/>
</g>
</svg>
