<?xml version="1.0" encoding="utf-8"?>
<!-- Generator: Adobe Illustrator 20.1.0, SVG Export Plug-In . SVG Version: 6.00 Build 0)  -->
<svg version="1.1" id="Layer_1" xmlns="http://www.w3.org/2000/svg" xmlns:xlink="http://www.w3.org/1999/xlink" x="0px" y="0px"
	 viewBox="0 0 50 50" style="enable-background:new 0 0 50 50;" xml:space="preserve">
<style type="text/css">
	.st0{fill:none;stroke:#000000;stroke-width:1.5;}
	.st1{fill:none;stroke:#000000;stroke-width:2;}
	.st2{fill:none;stroke:#DA1C5C;stroke-width:2;}
	.st3{clip-path:url(#SVGID_2_);fill:none;stroke:#000000;stroke-width:2;}
	.st4{clip-path:url(#SVGID_4_);fill:none;stroke:#000000;stroke-width:2;}
	.st5{fill:none;stroke:#000000;stroke-width:1.5157;}
	.st6{fill:none;stroke:#000000;stroke-width:1.415;}
	.st7{clip-path:url(#SVGID_6_);fill:none;stroke:#000000;stroke-width:2;}
	.st8{clip-path:url(#SVGID_8_);fill:none;stroke:#000000;stroke-width:2;}
	.st9{fill:none;stroke:#000000;stroke-width:0.5;}
	.st10{fill:#E1E33A;}
	.st11{clip-path:url(#SVGID_10_);fill:none;stroke:#000000;stroke-width:2;}
	.st12{clip-path:url(#SVGID_12_);fill:none;stroke:#000000;stroke-width:2;}
	.st13{fill:none;stroke:#FFFFFF;stroke-width:2;}
	.st14{opacity:0.6;fill:none;stroke:#EC008C;stroke-width:2;}
</style>
<line class="st1" x1="23.2" y1="25.2" x2="26.8" y2="25.2"/>
<g>
	<path class="st1" d="M20.8,35.6c2.3,2.3,6.1,2.3,8.5,0"/>
</g>
<path class="st1" d="M20.3,23.5c0.8,0.1,1.5,0.6,1.9,1.2c0.9,1.4,0.6,3.2-0.7,4.2c-1.4,0.9-3.2,0.6-4.2-0.7l-4.2-5.9L20.3,23.5"/>
<path class="st1" d="M29.8,23.6c-0.8,0.1-1.5,0.6-1.9,1.2c-0.9,1.4-0.6,3.2,0.7,4.2c1.4,0.9,3.2,0.6,4.2-0.7l4.2-5.9L29.8,23.6"/>
</svg>
