<?xml version="1.0" encoding="utf-8"?>
<!-- Generator: Adobe Illustrator 20.1.0, SVG Export Plug-In . SVG Version: 6.00 Build 0)  -->
<svg version="1.1" id="Layer_1" xmlns="http://www.w3.org/2000/svg" xmlns:xlink="http://www.w3.org/1999/xlink" x="0px" y="0px"
	 viewBox="0 0 50 50" style="enable-background:new 0 0 50 50;" xml:space="preserve">
<style type="text/css">
	.st0{fill:none;stroke:#000000;stroke-width:1.5;}
	.st1{fill:none;stroke:#000000;stroke-width:2;}
	.st2{fill:none;stroke:#DA1C5C;stroke-width:2;}
	.st3{clip-path:url(#SVGID_2_);fill:none;stroke:#000000;stroke-width:2;}
	.st4{clip-path:url(#SVGID_4_);fill:none;stroke:#000000;stroke-width:2;}
	.st5{fill:none;stroke:#000000;stroke-width:1.5157;}
	.st6{fill:none;stroke:#000000;stroke-width:1.415;}
	.st7{clip-path:url(#SVGID_6_);fill:none;stroke:#000000;stroke-width:2;}
	.st8{clip-path:url(#SVGID_8_);fill:none;stroke:#000000;stroke-width:2;}
	.st9{fill:#E1E33A;}
	.st10{clip-path:url(#SVGID_10_);fill:none;stroke:#000000;stroke-width:2;}
	.st11{clip-path:url(#SVGID_12_);fill:none;stroke:#000000;stroke-width:2;}
	.st12{fill:none;stroke:#FFFFFF;stroke-width:2;}
	.st13{fill:#FFFFFF;}
	.st14{opacity:0.6;fill:none;stroke:#EC008C;stroke-width:2;}
</style>
<line class="st1" x1="12.5" y1="26.2" x2="14.8" y2="26.2"/>
<line class="st1" x1="23.2" y1="26.2" x2="26.8" y2="26.2"/>
<line class="st1" x1="35.3" y1="26.2" x2="37.5" y2="26.2"/>
<g>
	<path class="st1" d="M20.8,35.6c2.3,2.3,6.1,2.3,8.5,0"/>
</g>
<path class="st1" d="M34.9,24c0.1,0.3,0.2,0.6,0.2,0.9c0.2,2.2-1.4,4.1-3.6,4.3c-1.2,0.1-2.4-0.4-3.2-1.2l0,0c-0.8-0.8-1-2-0.2-2.8
	c0.4-0.4,0.8-0.7,1.4-0.7l-0.1,0l6.7-0.6"/>
<path class="st1" d="M15.5,24c-0.1,0.3-0.2,0.6-0.2,0.9c-0.2,2.2,1.4,4.1,3.6,4.3c1.2,0.1,2.4-0.4,3.2-1.2l0,0c0.8-0.8,1-2,0.2-2.8
	c-0.4-0.4-0.8-0.7-1.4-0.7l0.1,0l-6.7-0.6"/>
</svg>
