<?xml version="1.0" encoding="utf-8"?>
<!-- Generator: Adobe Illustrator 22.1.0, SVG Export Plug-In . SVG Version: 6.00 Build 0)  -->
<svg version="1.1" id="Layer_1" xmlns="http://www.w3.org/2000/svg" xmlns:xlink="http://www.w3.org/1999/xlink" x="0px" y="0px"
	 viewBox="0 0 129 59" style="enable-background:new 0 0 129 59;" xml:space="preserve">
<style type="text/css">
	.st0{fill:#FFFFFF;}
	.st1{fill:none;stroke:#000000;stroke-width:8;}
	.st2{display:none;}
</style>
<g id="Layer_1_1_">
	<path class="st0" d="M-20.5-10.5v80h170v-80H-20.5z M29.5,55C15.4,55,4,43.6,4,29.5S15.4,4,29.5,4S55,15.4,55,29.5S43.6,55,29.5,55
		z M99.5,55C85.4,55,74,43.6,74,29.5S85.4,4,99.5,4S125,15.4,125,29.5S113.6,55,99.5,55z"/>
	<polygon points="74.3,24 54.7,24 45.7,5.5 83.3,5.5 	"/>
	<circle class="st1" cx="29.5" cy="29.5" r="25.5"/>
	<circle cx="64.5" cy="10.3" r="10.3"/>
	<circle class="st1" cx="99.5" cy="29.5" r="25.5"/>
</g>
<g id="BG" class="st2">
	
		<image style="display:inline;overflow:visible;opacity:0.5;enable-background:new    ;" width="128" height="128" xlink:href="IBM-binocs.png"  transform="matrix(1.0547 0 0 1.0547 -3 -38)">
	</image>
</g>
</svg>
