<?xml version="1.0" encoding="utf-8"?>
<!-- Generator: Adobe Illustrator 22.1.0, SVG Export Plug-In . SVG Version: 6.00 Build 0)  -->
<svg version="1.1" id="Layer_1" xmlns="http://www.w3.org/2000/svg" xmlns:xlink="http://www.w3.org/1999/xlink" x="0px" y="0px"
	 viewBox="0 0 129 59" style="enable-background:new 0 0 129 59;" xml:space="preserve">
<style type="text/css">
	.st0{display:none;}
	.st1{fill:#FFFFFF;}
	.st2{fill:none;stroke:#000000;stroke-width:6;}
</style>
<g id="BG" class="st0">
	
		<image style="display:inline;overflow:visible;opacity:0.5;enable-background:new    ;" width="128" height="128" xlink:href="IBM-binocs.png"  transform="matrix(1.0547 0 0 1.0547 -3 -38)">
	</image>
</g>
<g>
	<path class="st1" d="M-20.5-10.5v80h170v-80H-20.5z M29.5,56C14.9,56,3,44.1,3,29.5S14.9,3,29.5,3S56,14.9,56,29.5S44.1,56,29.5,56
		z M99.5,56C84.9,56,73,44.1,73,29.5S84.9,3,99.5,3S126,14.9,126,29.5S114.1,56,99.5,56z"/>
	<polygon points="74.3,24 54.7,24 45.7,5.5 83.3,5.5 	"/>
	<circle cx="64.5" cy="10.3" r="10.3"/>
	<circle class="st2" cx="29.5" cy="29.5" r="26.5"/>
	<circle class="st2" cx="99.5" cy="29.5" r="26.5"/>
</g>
</svg>
