<?xml version="1.0" encoding="utf-8"?>
<!-- Generator: Adobe Illustrator 22.1.0, SVG Export Plug-In . SVG Version: 6.00 Build 0)  -->
<svg version="1.1" id="Layer_1" xmlns="http://www.w3.org/2000/svg" xmlns:xlink="http://www.w3.org/1999/xlink" x="0px" y="0px"
	 viewBox="0 0 128 59" style="enable-background:new 0 0 128 59;" xml:space="preserve">
<style type="text/css">
	.st0{fill:#FFFFFF;}
	.st1{display:none;}
</style>
<path class="st0" d="M-10-10v79h148v-79H-10z M29.5,56.5c-14.9,0-27-12.1-27-27s12.1-27,27-27s27,12.1,27,27S44.4,56.5,29.5,56.5z
	 M98.5,56.5c-14.9,0-27-12.1-27-27s12.1-27,27-27s27,12.1,27,27S113.4,56.5,98.5,56.5z"/>
<g id="BG" class="st1">
</g>
<polygon points="73.8,24 54.2,24 45.2,5 82.8,5 "/>
<path d="M98.5,59C82.2,59,69,45.8,69,29.5S82.2,0,98.5,0S128,13.2,128,29.5S114.8,59,98.5,59z M98.5,5C85,5,74,16,74,29.5
	C74,43,85,54,98.5,54S123,43,123,29.5C123,16,112,5,98.5,5z"/>
<path d="M29.5,59C13.2,59,0,45.8,0,29.5S13.2,0,29.5,0S59,13.2,59,29.5S45.8,59,29.5,59z M29.5,5C16,5,5,16,5,29.5
	C5,43,16,54,29.5,54S54,43,54,29.5C54,16,43,5,29.5,5z"/>
<circle cx="64" cy="10" r="10"/>
</svg>
