<?xml version="1.0" encoding="utf-8"?>
<!-- Generator: Adobe Illustrator 20.1.0, SVG Export Plug-In . SVG Version: 6.00 Build 0)  -->
<svg version="1.1" id="Layer_1" xmlns="http://www.w3.org/2000/svg" xmlns:xlink="http://www.w3.org/1999/xlink" x="0px" y="0px"
	 viewBox="0 0 25 10" style="enable-background:new 0 0 25 10;" xml:space="preserve">
<style type="text/css">
	.st0{fill:none;stroke:#000000;stroke-width:2;}
	.st1{clip-path:url(#SVGID_2_);fill:none;stroke:#000000;stroke-width:2;}
	.st2{clip-path:url(#SVGID_4_);fill:none;stroke:#000000;stroke-width:2;}
	.st3{fill:none;stroke:#000000;stroke-width:1.5157;}
	.st4{fill:none;stroke:#000000;stroke-width:1.415;}
	.st5{clip-path:url(#SVGID_6_);fill:none;stroke:#000000;stroke-width:2;}
	.st6{clip-path:url(#SVGID_8_);fill:none;stroke:#000000;stroke-width:2;}
	.st7{fill:#E1E33A;}
	.st8{clip-path:url(#SVGID_10_);fill:none;stroke:#000000;stroke-width:2;}
	.st9{clip-path:url(#SVGID_12_);fill:none;stroke:#000000;stroke-width:2;}
</style>
<g>
	<defs>
		<rect id="SVGID_3_" width="25" height="10"/>
	</defs>
	<clipPath id="SVGID_2_">
		<use xlink:href="#SVGID_3_"  style="overflow:visible;"/>
	</clipPath>
	<path class="st1" d="M23.2,4.1H25 M0,4.1h1.8 M10.7,4.1h3.6 M18.8,9c2.2,0,4-1.8,4-4c0-2.2-1.8-4-4-4s-4,1.8-4,4
		C14.8,7.2,16.5,9,18.8,9z M6.2,1c-2.2,0-4,1.8-4,4c0,2.2,1.8,4,4,4s4-1.8,4-4C10.2,2.8,8.5,1,6.2,1z"/>
</g>
</svg>
