<?xml version="1.0" standalone="no"?>
<!DOCTYPE svg PUBLIC "-//W3C//DTD SVG 1.1//EN" "http://www.w3.org/Graphics/SVG/1.1/DTD/svg11.dtd" >
<svg xmlns="http://www.w3.org/2000/svg" xmlns:xlink="http://www.w3.org/1999/xlink" version="1.1">
<metadata></metadata>
<defs>
<font id="sintesi_sanslight_italic" horiz-adv-x="1236" >
<font-face units-per-em="2048" ascent="1638" descent="-410" />
<missing-glyph horiz-adv-x="518" />
<glyph unicode="&#xfb01;" horiz-adv-x="1132" d="M-39 -408q208 121 225 398l60 887h-140l9 120h129q30 562 436 562q91 0 184.5 -35t143.5 -88h47l-19 -285h-143l12 213q-42 33 -107 53.5t-122 20.5q-79 1 -136 -35.5t-88.5 -103t-47 -138.5t-21.5 -164h260l-8 -120h-252l-59 -885q-21 -359 -306 -502zM813 0l68 997h143 l-68 -997h-143z" />
<glyph unicode="&#xfb02;" horiz-adv-x="1130" d="M-39 -408q208 121 225 398l60 887h-140l9 120h129q30 562 436 562q81 0 167 -29.5t140 -75.5l70 33l-105 -1487h-139l94 1362q-42 34 -107 55t-124 21q-79 1 -136 -35.5t-88.5 -103t-47 -138.5t-21.5 -164h260l-8 -120h-252l-59 -885q-21 -359 -306 -502z" />
<glyph unicode="&#xfb03;" horiz-adv-x="1718" d="M-39 -408q208 121 225 398l60 887h-140l9 120h129q30 562 436 562q81 0 165.5 -29t139.5 -74q106 103 279 103q91 0 184 -35t143 -88h47l-18 -285h-143l12 213q-42 33 -107 53.5t-122 20.5q-79 1 -136 -35.5t-88.5 -103t-47 -138.5t-21.5 -164h260l-8 -120h-252l-60 -885 q-21 -359 -305 -502l-57 102q208 121 225 398l59 887h-139l8 120h129q11 222 84 361q-40 36 -107.5 58t-127.5 22q-79 1 -136 -35.5t-88.5 -103t-47 -138.5t-21.5 -164h260l-8 -120h-252l-59 -885q-21 -359 -306 -502zM1399 0l67 997h144l-68 -997h-143z" />
<glyph unicode="&#xfb04;" horiz-adv-x="1714" d="M-39 -408q208 121 225 398l60 887h-140l9 120h129q30 562 436 562q81 0 165.5 -29t139.5 -74q106 103 279 103q81 0 167 -29.5t140 -75.5l71 33l-104 -1487h-139l94 1360q-42 35 -108.5 56.5t-124.5 21.5q-79 1 -136 -35.5t-88.5 -103t-47 -138.5t-21.5 -164h260l-8 -120 h-252l-60 -885q-21 -359 -305 -502l-57 102q208 121 225 398l59 887h-139l8 120h129q11 222 84 361q-40 36 -107.5 58t-127.5 22q-79 1 -136 -35.5t-88.5 -103t-47 -138.5t-21.5 -164h260l-8 -120h-252l-59 -885q-21 -359 -306 -502z" />
<glyph horiz-adv-x="518" />
<glyph horiz-adv-x="518" />
<glyph horiz-adv-x="682" />
<glyph unicode="&#xd;" horiz-adv-x="518" />
<glyph unicode=" "  horiz-adv-x="518" />
<glyph unicode="&#x09;" horiz-adv-x="518" />
<glyph unicode="&#xa0;" horiz-adv-x="518" />
<glyph unicode="!" horiz-adv-x="626" d="M311 -12l15 223h139l-14 -223h-140zM336 342l76 1102l145 63l-82 -1165h-139z" />
<glyph unicode="&#x22;" horiz-adv-x="913" d="M285 850l39 571h125l-39 -571h-125zM637 850l39 571h125l-39 -571h-125z" />
<glyph unicode="#" d="M72 336l10 117h250l33 483h-250l8 117h252l22 354h123l-24 -354h403l25 354h123l-25 -354h242l-9 -117h-241l-35 -483h244l-9 -117h-243l-23 -336h-121l23 336h-406l-22 -336h-121l23 336h-252zM453 453h405l33 483h-406z" />
<glyph unicode="$" d="M121 289l123 45q21 -63 65.5 -111.5t98.5 -75t105.5 -39t98.5 -12.5q160 0 272.5 65.5t121.5 186.5q2 40 -9.5 76t-39.5 67t-56.5 55t-77 50t-83 42.5t-91.5 41.5q-177 79 -227 107q-160 89 -201 201q-20 54 -16 116q7 91 49 159t111.5 108t153.5 59.5t183 21.5l29 199 l141 -15l-26 -198q123 -26 215.5 -100t124.5 -187l-119 -43q-22 60 -62.5 104.5t-90 69.5t-100 37t-101.5 12q-57 0 -106.5 -6.5t-97 -22.5t-81.5 -41t-56.5 -64.5t-25.5 -90.5q-3 -41 18 -79.5t53 -66.5t80.5 -57t86.5 -46t87 -38.5t68 -30.5q73 -33 123 -59t110 -68 t95.5 -84.5t58 -102t17.5 -126.5q-5 -75 -37 -137t-84 -105t-119.5 -73t-142.5 -44t-154 -14l-31 -200l-141 14l33 203q-123 28 -217 103t-129 194z" />
<glyph unicode="%" horiz-adv-x="1990" d="M186 973q0 68 10.5 130.5t36.5 124t66 107t103.5 73.5t144.5 28q177 0 270.5 -113t91.5 -303q0 -69 -11.5 -132.5t-38 -123.5t-66.5 -104t-101 -70.5t-137 -26.5q-185 0 -277 108.5t-92 301.5zM303 952q3 -143 63 -220t177 -77q58 0 102.5 23t72 60t45 88.5t24 104 t6.5 111.5q0 143 -62 222t-182 79q-59 0 -104 -24.5t-71.5 -62.5t-43 -91.5t-22 -104.5t-5.5 -108zM467 -66l1061 1514h127l-1059 -1514h-129zM1202 340q0 68 10.5 130.5t36.5 124t66 107t103.5 73.5t144.5 28q177 0 270.5 -113t91.5 -303q0 -69 -11.5 -132.5t-38 -123.5 t-66.5 -104t-101 -70.5t-137 -26.5q-185 0 -277 108.5t-92 301.5zM1319 319q3 -143 63 -219.5t177 -76.5q71 0 122 33.5t77.5 92t38 122.5t11.5 139q0 143 -61.5 222t-181.5 79q-59 0 -104 -24.5t-71.5 -63t-43 -92t-22 -104.5t-5.5 -108z" />
<glyph unicode="&#x26;" horiz-adv-x="1343" d="M96 348q4 64 30.5 123.5t72.5 112t99.5 97.5t123.5 91q-5 7 -34 44.5t-34.5 46t-28 41t-28.5 45t-19.5 40.5t-17 46.5t-7 44t-1.5 50.5q9 128 121.5 218t263.5 90q133 0 226.5 -83.5t84.5 -205.5q-7 -104 -92.5 -199.5t-247.5 -195.5l361 -439q70 107 97 238.5t3 253.5 l121 22q33 -167 -6.5 -326.5t-136.5 -283.5l182 -219h-172l-101 121q-180 -156 -401 -156q-224 0 -347 104.5t-112 278.5zM227 352q-3 -56 15.5 -102t52.5 -76.5t81 -51.5t97.5 -30.5t104.5 -9.5q173 0 305 129l-389 473q-124 -78 -192.5 -158t-74.5 -174zM387 1128 q-1 -25 4.5 -51t13 -45.5t26 -48t29 -43t36.5 -48t36 -46.5l3 -4q275 173 284 301q4 71 -54 125.5t-134 54.5q-53 0 -105.5 -21t-93 -67t-45.5 -107z" />
<glyph unicode="'" horiz-adv-x="567" d="M285 850l39 571h125l-39 -571h-125z" />
<glyph unicode="(" horiz-adv-x="628" d="M158 248q0 88 3.5 165.5t10.5 178.5q7 102 15 179t20 166t29 154.5t40.5 133.5t56 115.5t73.5 87.5t95.5 62t119.5 28l2 -105q-54 -9 -96.5 -39.5t-72 -67.5t-52.5 -105.5t-36.5 -122t-25 -151.5t-16.5 -159t-13 -176q-7 -99 -10 -154.5t-6 -141.5t0.5 -136t10.5 -115.5 t23.5 -104t40 -77t59 -59t81.5 -27.5l-21 -107q-64 5 -115 27t-86.5 61.5t-61 87t-39.5 115t-21.5 133.5t-7.5 154z" />
<glyph unicode=")" horiz-adv-x="628" d="M90 -223q53 8 95.5 37.5t72 66.5t52.5 104.5t36.5 121.5t25 150.5t16.5 158.5t13 176q7 98 10.5 154.5t7 142t0 136.5t-10 116t-23 104.5t-39.5 78.5t-58 60t-81 29l16 105q57 -5 104 -24.5t81.5 -48.5t60 -73.5t42.5 -91.5t27 -112t14 -126t3 -141t-4.5 -149.5 t-9.5 -159.5q-8 -117 -16.5 -203.5t-24.5 -185.5t-37 -169.5t-54.5 -140t-76.5 -113.5t-103.5 -74t-134.5 -36z" />
<glyph unicode="*" horiz-adv-x="970" d="M170 1096l45 108l297 -108l4 2l12 323h113l-29 -325l4 -4l312 110l24 -106l-317 -95v-6l176 -254l-92 -63l-168 260h-4l-199 -260l-86 65l215 254l-4 4z" />
<glyph unicode="+" d="M219 424l8 125h363l26 364h134l-27 -364h364l-10 -125h-362l-25 -365h-133l25 365h-363z" />
<glyph unicode="," horiz-adv-x="471" d="M176 -203q39 31 70.5 84.5t36.5 118.5h-50l15 221h137q17 -72 10 -180q-14 -194 -155 -311z" />
<glyph unicode="-" horiz-adv-x="950" d="M203 428l8 125h602l-8 -125h-602z" />
<glyph unicode="." horiz-adv-x="512" d="M248 0l14 221h144l-15 -221h-143z" />
<glyph unicode="/" horiz-adv-x="907" d="M209 -33l551 1487h137l-549 -1487h-139z" />
<glyph unicode="0" horiz-adv-x="1284" d="M158 629q0 79 5.5 152.5t21 157.5t40.5 155.5t66 138.5t95 114t130.5 75t169.5 28q110 0 197.5 -34.5t145.5 -94t96 -144t54.5 -180t16.5 -206.5q0 -74 -5.5 -145t-20.5 -155t-39 -155.5t-64.5 -140.5t-93 -117t-129 -77.5t-168.5 -29.5q-518 0 -518 658zM299 600 q0 -73 8 -137t32 -134.5t63.5 -120.5t107.5 -83t158 -33q93 0 164 45t112.5 115.5t68 169.5t35.5 193t9 200q0 72 -8 137.5t-32.5 137t-63.5 123t-106.5 85t-156.5 33.5q-391 0 -391 -731z" />
<glyph unicode="1" horiz-adv-x="792" d="M109 1266l546 190l-100 -1456h-139l88 1278h-6l-381 -133z" />
<glyph unicode="2" horiz-adv-x="1204" d="M147 66q183 325 533 610q20 16 63.5 51t60.5 49t50 43t46.5 44.5t35 41t30.5 45.5t17 45.5t10 51.5q5 73 -20 129t-72 88.5t-103.5 48.5t-119.5 16q-51 0 -101.5 -12.5t-101 -38.5t-93 -73.5t-67.5 -110.5l-118 32q28 84 83.5 148t124.5 101t140.5 55t142.5 18t135.5 -13 t123.5 -44t101.5 -76t65 -114t16.5 -154q-3 -37 -13 -71.5t-21 -61t-36 -58.5t-40.5 -50.5t-53 -52t-54.5 -48t-64 -52t-64 -51.5q-274 -223 -438 -469l-2 -6h737l-6 -127h-882z" />
<glyph unicode="3" horiz-adv-x="1181" d="M117 293l123 41q40 -116 137 -181t198 -65q165 0 268 70.5t113 210.5q9 147 -111 227t-321 82l6 115q204 0 310.5 73t115.5 201q6 85 -40.5 147.5t-121.5 91.5t-165 29q-61 0 -123.5 -20t-126.5 -73.5t-100 -133.5l-119 41q29 72 76 128t97 89t108 54t105 28.5t93 7.5 q132 0 238 -45.5t167 -135.5t52 -208q-4 -57 -24 -109t-57 -97.5t-96 -77.5t-135 -44v-4q150 -26 236.5 -128.5t75.5 -237.5q-12 -189 -153 -294.5t-372 -105.5q-71 0 -141 20.5t-132.5 59t-110.5 102t-70 142.5z" />
<glyph unicode="4" horiz-adv-x="1110" d="M98 354l461 1059l150 23l-449 -1022v-6h410l14 210l143 23l-16 -233h276l-10 -121h-274l-19 -287h-141l19 287h-521z" />
<glyph unicode="5" horiz-adv-x="1183" d="M143 283l123 39q31 -112 128 -173t216 -61q159 0 258 102.5t107 260.5q5 98 -23.5 175.5t-79 123.5t-112 70t-127.5 24q-202 0 -350 -182l-99 43l49 716h848l-8 -127h-723l-28 -444h4q123 115 342 115q91 0 173.5 -34t147 -97t99 -163.5t26.5 -221.5 q-14 -213 -149 -347.5t-365 -134.5q-157 0 -286.5 82.5t-170.5 233.5z" />
<glyph unicode="6" horiz-adv-x="1243" d="M162 688q5 68 10.5 122t16.5 119.5t25.5 117t38 107t52.5 97t70.5 80.5t91.5 63.5t115 39t141 14.5q146 0 256 -72.5t149 -224.5l-122 -39q-22 66 -58 112t-78.5 67t-79.5 29.5t-75 8.5q-109 0 -186.5 -40.5t-124 -122t-71 -186t-34.5 -251.5h6q44 79 157 128.5t230 49.5 q205 0 326 -137t106 -346q-13 -209 -150.5 -332t-346.5 -123q-251 0 -370.5 182t-94.5 537zM303 522q-5 -80 10.5 -155t52 -138.5t103.5 -102t156 -38.5q88 0 166.5 38t132.5 115t61 177q11 156 -74 261t-235 105q-90 0 -176.5 -41.5t-139.5 -102t-57 -118.5z" />
<glyph unicode="7" horiz-adv-x="1064" d="M147 1294l11 127h872l43 -61l-651 -1360h-150l625 1290v4h-750z" />
<glyph unicode="8" horiz-adv-x="1245" d="M166 393q0 78 27 145t72 112.5t95 75.5t103 44v4q-93 31 -153 117t-60 211q0 161 126.5 255.5t319.5 94.5q177 0 294.5 -94t117.5 -254q0 -124 -67.5 -210.5t-172.5 -117.5v-6q111 -30 191 -127.5t80 -249.5q0 -62 -18.5 -121.5t-58.5 -114.5t-96.5 -96.5t-139 -66.5 t-179.5 -25q-122 0 -217.5 37t-151.5 98.5t-84 135t-28 153.5zM311 395q0 -60 21 -114.5t62 -98.5t108 -70t151 -26q153 0 248.5 87.5t95.5 221.5t-86.5 224t-242.5 90q-163 0 -260 -91.5t-97 -222.5zM387 1092q0 -117 75.5 -187.5t207.5 -70.5q125 0 212 67.5t87 188.5 q0 116 -77 180.5t-204 64.5t-214 -65.5t-87 -177.5z" />
<glyph unicode="9" horiz-adv-x="1243" d="M184 281l125 38q22 -66 60 -114t82.5 -72t84 -34.5t76.5 -10.5q92 0 160 28t111.5 76t72.5 126.5t43.5 164.5t22.5 205h-6q-52 -78 -162.5 -127t-226.5 -49q-204 0 -323 136t-107 345q7 139 75 243.5t177.5 158t244.5 53.5q251 0 370.5 -182t94.5 -537 q-6 -74 -10.5 -121.5t-14.5 -118.5t-22.5 -117.5t-34.5 -106.5t-50 -98.5t-69 -79.5t-91 -64.5t-117 -38.5t-146 -15q-92 0 -175 32t-150.5 104.5t-94.5 175.5zM336 999q-12 -156 73 -261t236 -105q134 0 249.5 87t121.5 177q5 79 -10 153.5t-51.5 138t-103.5 102t-157 38.5 q-87 0 -165 -37.5t-132 -114.5t-61 -178z" />
<glyph unicode=":" horiz-adv-x="548" d="M332 0l14 221h143l-14 -221h-143zM385 774l14 221h144l-15 -221h-143z" />
<glyph unicode=";" horiz-adv-x="552" d="M264 -203q39 31 70.5 84.5t36.5 118.5h-49l14 221h137q17 -72 10 -180q-14 -194 -155 -311zM375 774l14 221h143l-14 -221h-143z" />
<glyph unicode="&#x3c;" d="M219 420l10 141l891 481l-8 -139l-750 -409v-5l693 -407l-11 -141z" />
<glyph unicode="=" d="M205 195l8 122h858l-8 -122h-858zM238 662l8 122h860l-10 -122h-858z" />
<glyph unicode="&#x3e;" d="M182 -59l13 141l749 407v5l-692 409l12 139l823 -481l-10 -141z" />
<glyph unicode="?" horiz-adv-x="1060" d="M152 1161q47 108 130.5 180.5t178 103t201.5 30.5q84 0 160 -24t136 -69t93 -117t26 -161q-4 -64 -36.5 -121t-82 -99t-108 -80t-117 -71.5t-107 -65.5t-80 -70.5t-34.5 -78.5q-5 -49 20.5 -77.5t81.5 -28.5q27 0 65.5 18t57.5 53l94 -65q-33 -60 -105.5 -95.5 t-127.5 -35.5q-119 0 -173 61.5t-46 167.5q4 50 29.5 96t64 80.5t87.5 69t100 62.5t99.5 61t87 64t63.5 71t28 84q5 65 -20 115.5t-69 78.5t-94.5 42t-103.5 14q-55 0 -101 -9t-97.5 -32t-98 -70.5t-84.5 -118.5zM487 -33l15 221h143l-14 -221h-144z" />
<glyph unicode="@" horiz-adv-x="2082" d="M117 436q0 235 76 431.5t212.5 333.5t332.5 213.5t429 76.5q185 0 350 -69t281 -185.5t183 -273t67 -326.5q0 -113 -36 -231.5t-100 -220.5t-165.5 -167t-220.5 -65q-140 0 -213 82l24 323h-6q-32 -83 -72.5 -150t-93 -120.5t-119.5 -83t-143 -29.5q-51 0 -96 11t-92 43 t-80.5 82t-54.5 135t-21 196q0 86 18 168.5t58.5 159.5t98 135t143 92.5t188.5 34.5q196 0 299 -121h6l16 86h132l-62 -895q35 -28 90 -28q82 1 153.5 55.5t117.5 138.5t72 181.5t26 187.5q0 149 -58 284.5t-157 234.5t-238.5 157.5t-294.5 58.5q-276 0 -484.5 -116.5 t-320.5 -328.5t-112 -491q0 -145 46 -272t124 -219t178.5 -158.5t212 -99.5t223.5 -33q147 0 300.5 45t287.5 139l72 -96q-293 -209 -668 -209q-129 0 -258 38t-246 115.5t-207.5 183.5t-144 253t-53.5 313zM694 434q0 -158 61.5 -245t174.5 -87q21 0 45 5.5t57.5 23 t66.5 45.5t70 78t69.5 115.5t63.5 163.5t54 217q-48 84 -129.5 123.5t-157.5 39.5q-97 0 -172 -42.5t-117.5 -113t-64 -152.5t-21.5 -171z" />
<glyph unicode="A" horiz-adv-x="1265" d="M61 0l605 1421h147l391 -1421h-147l-88 311h-631l-129 -311h-148zM379 434h565l-217 795h-6z" />
<glyph unicode="B" horiz-adv-x="1298" d="M190 0l99 1421h440q255 -1 371 -103q105 -94 105 -253q0 -15 -1 -31q-17 -231 -278 -295l-2 -4q156 -21 240 -127q74 -94 75 -223q0 -17 -2 -35q-12 -179 -145 -264.5t-367 -85.5h-535zM338 119h397q345 0 363 246q1 11 1 22q-1 53 -17 97q-20 53 -55 87.5t-85 57 t-103.5 32t-113.5 9.5h-348zM385 788h309q68 0 130 13.5t116 40.5t88.5 76t38.5 114q1 12 1 23q0 115 -74 179q-82 70 -275 69h-299z" />
<glyph unicode="C" horiz-adv-x="1376" d="M174 754q8 115 33.5 215.5t76 190.5t121.5 153.5t175 101t231 37.5q197 0 338 -80.5t194 -245.5q-15 -4 -60.5 -19.5t-61.5 -19.5q-25 68 -70.5 117.5t-102.5 75.5t-115 37.5t-122 11.5q-102 0 -184 -31.5t-136.5 -84.5t-93 -128t-58 -156t-26.5 -175q-3 -38 -3 -75 q0 -67 8 -127q12 -96 47.5 -180t91 -145.5t139.5 -97t190 -35.5q133 0 242 62.5t166 195.5l127 -37q-59 -167 -207 -256.5t-336 -89.5q-135 0 -242.5 41.5t-178 113.5t-115.5 172q-44 101 -60 215q-10 75 -11 157q0 42 3 86z" />
<glyph unicode="D" horiz-adv-x="1396" d="M190 0l99 1421h379q116 0 213.5 -24t166 -66t123 -100t85.5 -125.5t52 -143.5q22 -75 24 -152q1 -35 1 -70q0 -42 -2 -83q-10 -145 -55 -261t-130 -206.5t-223.5 -140t-322.5 -49.5h-410zM338 119h270q546 0 580 538q5 39 5 78q-1 37 -5 74q-8 77 -25.5 148.5t-59 134.5 t-98.5 110t-145 74t-198 27h-242z" />
<glyph unicode="E" horiz-adv-x="1273" d="M190 0l99 1421h928l-9 -118h-788l-37 -519h625l-9 -118h-624l-37 -547h786l-6 -119h-928z" />
<glyph unicode="F" horiz-adv-x="1171" d="M190 0l99 1421h897l-10 -118h-756l-37 -519h596l-8 -118h-596l-45 -666h-140z" />
<glyph unicode="G" horiz-adv-x="1380" d="M154 754q8 118 35 219.5t79 190.5t125 152t179.5 99.5t236.5 36.5q61 0 119.5 -8t123.5 -28.5t119 -52.5t99.5 -84.5t70.5 -119.5l-118 -53q-99 225 -418 225q-235 0 -361 -151t-149 -424q-4 -51 -4 -99q0 -59 6 -113q11 -98 45.5 -182t91 -143.5t143.5 -93t199 -33.5 q76 0 181 25.5t180 72.5l32 476h-292l8 118h432l-45 -663q-98 -69 -241.5 -109.5t-256.5 -40.5q-144 0 -256.5 40.5t-184 111t-115.5 170.5t-58 214q-9 70 -9 148q0 48 3 99z" />
<glyph unicode="H" horiz-adv-x="1361" d="M190 0l99 1421h139l-45 -637h702l45 637h140l-99 -1421h-139l45 666h-702l-45 -666h-140z" />
<glyph unicode="I" horiz-adv-x="520" d="M190 0l99 1421h139l-98 -1421h-140z" />
<glyph unicode="J" horiz-adv-x="520" d="M-39 -406q124 68 171.5 175.5t60.5 300.5l96 1351h139l-94 -1353q-7 -111 -23.5 -191t-51.5 -154.5t-94 -131t-147 -101.5z" />
<glyph unicode="K" horiz-adv-x="1273" d="M188 0l99 1421h139l-98 -1421h-140zM428 717l727 723l92 -82l-647 -633v-4l621 -721h-177z" />
<glyph unicode="L" horiz-adv-x="1138" d="M190 0q32 498 99 1421h139l-90 -1302h747l-8 -119h-887z" />
<glyph unicode="M" horiz-adv-x="1699" d="M188 0l99 1421h164l428 -1118h6l555 1118h168l-99 -1421h-133l82 1163h-6l-534 -1071h-99l-411 1073h-5l-81 -1165h-134z" />
<glyph unicode="N" horiz-adv-x="1400" d="M190 0l99 1421h143l658 -1169h4l82 1169h133l-99 -1421h-145l-655 1167h-7l-79 -1167h-134z" />
<glyph unicode="O" horiz-adv-x="1415" d="M145 664q0 112 17 216.5t59.5 210t108 183.5t170.5 127.5t239 50.5h6q149 0 263 -49q116 -50 188.5 -144t108.5 -221t36 -284q0 -97 -13 -188t-41 -180.5t-75.5 -163.5t-111.5 -131t-155 -88.5t-200 -31.5q-158 0 -274.5 48.5t-187.5 140.5t-105 218q-33 122 -33 277v9z M291 641q4 -549 446 -549q103 0 183.5 38t131.5 102t84 154t46.5 186t13.5 206q0 94 -15 175t-48.5 152t-84 121t-126 78.5t-170.5 28.5q-104 0 -185.5 -41t-132.5 -107t-84 -158.5t-46 -186.5t-13 -199z" />
<glyph unicode="P" horiz-adv-x="1226" d="M190 0l99 1421h411q91 0 170 -14.5t151 -50t121 -88.5q48 -54 74 -138q20 -66 20 -145q0 -22 -1 -45q-6 -88 -31 -155.5t-68 -111.5t-93 -72.5t-118.5 -43t-131 -20t-142.5 -5.5h-282l-37 -532h-142zM377 651h278q51 0 87.5 1.5t84 8t80.5 18.5t68.5 33.5t58 52 t38.5 75.5t20 102q1 19 1 36q0 59 -15 109q-20 64 -57 104t-90.5 65.5t-110.5 36t-122 10.5h-278z" />
<glyph unicode="Q" horiz-adv-x="1417" d="M145 664q0 112 17 216.5t59.5 210t108 183.5t170.5 127.5t239 50.5h6q149 0 263 -49q117 -50 189 -144t108 -221t36 -284q0 -97 -13 -188t-41 -180.5t-75.5 -163.5t-111.5 -131t-155 -88.5t-200 -31.5q-158 0 -274.5 48.5t-187.5 140.5t-105 218q-33 121 -33 277v9z M291 641q4 -549 446 -549q103 0 183.5 38t131.5 102t84 154t46.5 186t13.5 206q0 94 -15 175t-48.5 152t-84 121t-126 78.5t-170.5 28.5q-104 0 -185.5 -41t-132.5 -107t-84 -158.5t-46 -186.5t-13 -199zM596 -362l8 129l510 -5l-8 -124h-510z" />
<glyph unicode="R" horiz-adv-x="1243" d="M190 0l99 1421h389q84 0 160 -13.5t149.5 -46.5t124.5 -83q52 -48 80 -128q23 -64 23 -141q0 -19 -1 -38q-6 -78 -35 -140t-73.5 -101t-101.5 -68t-117.5 -39.5t-122.5 -16.5q-27 -2 -52 -2q-33 0 -63 4v-6l504 -602h-166l-516 608l47 119q59 -13 123 -17q21 -2 44 -1 q45 0 97 6q76 9 136.5 34.5t103.5 82.5t49 139q1 14 1 28q0 57 -17 103q-21 58 -59.5 95.5t-93 61.5t-111.5 34t-121 10h-250l-90 -1303h-140z" />
<glyph unicode="S" horiz-adv-x="1263" d="M129 289l123 45q21 -63 65.5 -111.5t98.5 -75t106 -39t99 -12.5q159 0 271.5 65.5t121.5 186.5v12q0 34 -10 64q-12 36 -39.5 67t-56 55t-77 50t-83 42.5t-91.5 41.5q-177 79 -227 107q-160 89 -201 201q-17 45 -17 96q0 10 1 20q7 93 51 162t116.5 108.5t159.5 58.5 t189 19q103 0 197.5 -33.5t168 -103t99.5 -164.5l-119 -43q-22 60 -62.5 104.5t-90 69.5t-100 37t-101.5 12q-57 0 -106.5 -6.5t-97 -22.5t-81.5 -41t-56.5 -64.5t-25.5 -90.5q0 -5 -1 -10q0 -36 19 -70q21 -38 53 -66t80.5 -57t87 -46t87.5 -38.5t68 -30.5q73 -33 123 -59 t110 -68t95 -85q36 -42 58 -102q18 -49 18 -102q0 -12 -1 -24q-5 -75 -37 -137t-84 -105t-119.5 -73t-142.5 -44t-154 -14q-75 0 -149.5 19t-142 56t-119 99t-74.5 140z" />
<glyph unicode="T" horiz-adv-x="1091" d="M143 1294l9 127h983l-9 -127h-424l-88 -1294h-141l90 1294h-420z" />
<glyph unicode="U" horiz-adv-x="1312" d="M203 465l67 956h140l-66 -956q-1 -17 -1 -34q0 -75 22 -135q27 -74 78 -116.5t112.5 -64t128.5 -21.5q65 0 123.5 22t108 65t81 115t37.5 165l68 960h137l-68 -960q-17 -239 -151.5 -362.5t-345.5 -123.5q-97 0 -183 30t-154.5 87.5t-104.5 153.5q-30 79 -30 176 q0 21 1 43z" />
<glyph unicode="V" horiz-adv-x="1208" d="M150 1421h149l319 -1200h7l465 1200h143l-555 -1421h-150z" />
<glyph unicode="W" horiz-adv-x="1730" d="M162 1421h143l213 -1214h6l338 1081h170l201 -1083h4l373 1216h135l-436 -1421h-172l-199 1106h-6l-340 -1106h-174z" />
<glyph unicode="X" horiz-adv-x="1185" d="M55 0l506 709l-409 712h159l344 -596h4l422 596h146l-504 -714l403 -707h-155l-344 594h-4l-424 -594h-144z" />
<glyph unicode="Y" horiz-adv-x="1142" d="M158 1419h147l320 -821h6l405 821l144 2l-463 -919q-32 -74 -37 -127l-25 -375h-141l25 369v15q0 56 -19 108z" />
<glyph unicode="Z" horiz-adv-x="1226" d="M96 70l932 1218v6h-792l8 127h940l43 -71l-926 -1217l-2 -6h821l-6 -127h-975z" />
<glyph unicode="[" horiz-adv-x="591" d="M129 -330l131 1866h344l-8 -119h-205l-115 -1628h207l-10 -119h-344z" />
<glyph unicode="\" horiz-adv-x="935" d="M70 1454h137l551 -1487h-140z" />
<glyph unicode="]" horiz-adv-x="595" d="M76 -330l10 119h205l115 1628h-207l8 119h346l-131 -1866h-346z" />
<glyph unicode="^" horiz-adv-x="1146" d="M186 580l435 841h108l309 -841h-137l-237 669h-5l-333 -669h-140z" />
<glyph unicode="_" horiz-adv-x="1212" d="M172 -242l8 119h858l-8 -119h-858z" />
<glyph unicode="`" horiz-adv-x="929" d="M442 1618h142q-6 -93 75.5 -194t223.5 -181l-52 -108q-194 87 -297.5 217.5t-91.5 265.5z" />
<glyph unicode="a" horiz-adv-x="1191" d="M139 434q0 87 17.5 171t55.5 162t93.5 136.5t138 93.5t181.5 35q93 0 178 -29.5t135 -89.5h4l21 84h124l-69 -997h-129l18 360h-6q-32 -90 -75.5 -160.5t-87.5 -111.5t-93 -67.5t-88.5 -36t-77.5 -9.5q-170 0 -255 119t-85 340zM281 434q0 -160 56 -246t169 -86 q21 0 44.5 5.5t57 23t66.5 45.5t70 78t69 115.5t63.5 164t53.5 216.5q-33 58 -87.5 97t-103.5 52.5t-94 13.5q-78 0 -141 -28.5t-104 -75t-68.5 -109.5t-39 -129t-11.5 -137z" />
<glyph unicode="b" horiz-adv-x="1196" d="M176 0l98 1421l144 66l-58 -819h7q35 95 78.5 165t82.5 107t85.5 59t80 27.5t74.5 5.5q171 0 262.5 -118t93.5 -336q0 -88 -17 -172t-54.5 -162.5t-92.5 -137t-138 -94t-183 -35.5q-90 0 -176 34t-137 95h-4l-23 -106h-123zM332 262q47 -83 131.5 -123.5t157.5 -40.5 q79 0 142.5 30t103.5 78t67 112t38 126.5t11 126.5q0 167 -62.5 252.5t-177.5 85.5q-261 0 -411 -647z" />
<glyph unicode="c" horiz-adv-x="1134" d="M150 522q16 230 144 368t368 138q146 0 258 -69t149 -195l-123 -39q-33 94 -113.5 139t-175.5 45q-172 0 -263.5 -105.5t-104.5 -281.5q-2 -23 -2 -45q1 -90 27 -167q32 -95 111.5 -154.5t195.5 -59.5q93 0 187 52t138 147l119 -45q-39 -88 -118 -152t-166 -93.5 t-171 -29.5q-121 0 -214.5 44.5t-148.5 120.5t-80 174q-19 74 -19 155q0 26 2 53z" />
<glyph unicode="d" horiz-adv-x="1196" d="M139 434q0 87 17.5 171t55.5 162t93.5 136.5t138 93.5t181.5 35q91 0 176 -30.5t135 -88.5h6l39 510l141 62l-102 -1485h-129l16 360h-6q-32 -90 -75.5 -160.5t-87 -111.5t-92 -67.5t-87.5 -36t-76 -9.5q-171 0 -257.5 119.5t-86.5 339.5zM281 434q0 -159 57.5 -245.5 t169.5 -86.5q21 0 44.5 5.5t57.5 23t66 45.5t69 78t69 115.5t63 163.5t53 217q-33 58 -87.5 97t-103.5 52.5t-94 13.5q-78 0 -141 -28.5t-104 -75t-68.5 -109.5t-39 -129t-11.5 -137z" />
<glyph unicode="e" horiz-adv-x="1130" d="M133 530q7 106 42.5 196t97 158.5t154.5 107t208 38.5q76 0 141.5 -15.5t125.5 -55t100 -100.5q38 -61 56 -158q10 -56 10 -121q0 -48 -5 -101h-801v-20q0 -149 83 -253q89 -110 245 -110q222 0 338 185l119 -48q-40 -73 -98 -126t-122 -80.5t-123.5 -39.5t-119.5 -12 q-149 0 -256.5 74.5t-157.5 200.5q-40 101 -39 221q0 29 2 59zM274 588h662v24q0 62 -12 110q-16 58 -45 94t-71.5 58.5t-86.5 31.5t-96 9q-149 0 -236 -89.5t-115 -237.5z" />
<glyph unicode="f" horiz-adv-x="636" d="M-39 -408q208 121 225 398l60 887h-140l9 120h129q30 562 436 562q93 0 188 -35.5t142 -89.5l-82 -91q-37 41 -111 68t-141 27h-4q-77 0 -132 -36q-57 -36 -88.5 -102.5t-47 -138.5t-21.5 -164h260l-8 -120h-252l-59 -885q-21 -359 -306 -502z" />
<glyph unicode="g" horiz-adv-x="1124" d="M80 -225q0 169 170 243q-125 61 -125 205q0 65 43.5 123t103.5 90q-98 94 -98 240v5q0 69 26 129q27 63 79 111t136 76t191 29h14q153 0 257 -63l16 229h133l-20 -285l-29 -41q57 -80 57 -190q0 -151 -110.5 -249.5t-317.5 -98.5q-135 0 -233 45q-52 -26 -86.5 -64 t-34.5 -82q4 -149 209 -159q55 6 117 6q246 0 371.5 -77.5t125.5 -221.5t-124.5 -222.5t-372.5 -78.5q-245 0 -371.5 79t-126.5 222zM215 -225q0 -191 363 -191q364 0 364 191q0 186 -364 186q-363 0 -363 -186zM307 676q0 -107 76 -172.5t223 -65.5q139 0 218 66t79 172 q0 103 -79.5 171t-217.5 68q-142 0 -220.5 -67.5t-78.5 -171.5z" />
<glyph unicode="h" horiz-adv-x="1163" d="M176 0l98 1423l144 62l-68 -932h6q44 142 94 238.5t106.5 149t113.5 74t127 21.5q131 0 197 -99q56 -84 57 -228q0 -26 -2 -54l-45 -655h-144l41 606q3 36 3 68q0 231 -142 231q-36 0 -76.5 -24t-92.5 -88t-100.5 -162t-99.5 -261t-90 -370h-127z" />
<glyph unicode="i" horiz-adv-x="495" d="M176 0l68 997h143l-68 -997h-143zM258 1210l16 224h144l-15 -224h-145z" />
<glyph unicode="j" horiz-adv-x="495" d="M-49 -408q205 120 225 398l70 1007h139l-70 -1005q-11 -166 -85 -296.5t-222 -205.5zM258 1210l16 224h144l-15 -224h-145z" />
<glyph unicode="k" horiz-adv-x="1077" d="M176 0l98 1421l146 66l-105 -1487h-139zM393 559l563 475l80 -94l-463 -389v-6l463 -545h-168z" />
<glyph unicode="l" horiz-adv-x="491" d="M176 0l98 1421l146 66l-105 -1487h-139z" />
<glyph unicode="m" horiz-adv-x="1742" d="M176 0l68 997h121l-23 -452h6q46 148 100 250t109.5 152t104.5 69.5t104 19.5q121 0 175 -86q49 -78 49 -201q0 -14 -1 -28q0 -1 -7 -88t-7 -88h4q49 148 98 246.5t100 151t100.5 73t111.5 20.5q241 0 241 -314q0 -29 -2 -60l-45 -662h-143l43 612q3 38 3 71 q0 222 -124 222q-25 0 -51.5 -13.5t-61.5 -47t-72 -100.5t-76.5 -162t-82 -244.5t-82.5 -337.5h-125l43 612q2 48 2 90q0 31 -1 59q-3 65 -33 104.5t-89 39.5q-31 0 -64 -18t-78.5 -77t-90 -153.5t-97 -264t-100.5 -392.5h-127z" />
<glyph unicode="n" horiz-adv-x="1163" d="M176 0l68 997h123l-25 -454h4q50 147 102.5 245.5t109.5 152t113 74.5t126 21q131 0 197 -99q56 -84 57 -228q0 -26 -2 -54l-45 -655h-144l41 606q3 36 3 68q0 231 -142 231q-36 0 -76.5 -24t-92.5 -88t-100.5 -162t-99.5 -261t-90 -370h-127z" />
<glyph unicode="o" horiz-adv-x="1177" d="M129 489q0 85 19 164t58 148t95 119.5t134 80t171 29.5q226 0 356 -142.5t130 -379.5q0 -83 -17 -159.5t-54.5 -145.5t-91 -119.5t-132 -80.5t-172.5 -30q-232 0 -364 135t-132 381zM270 477q0 -78 19 -144.5t59 -121t109 -86t161 -31.5q105 0 182 56.5t114.5 150 t37.5 213.5q0 59 -11 113.5t-37 106.5t-64.5 90.5t-97.5 61.5t-132 23q-84 0 -150.5 -36.5t-107 -98t-61.5 -137.5t-21 -160z" />
<glyph unicode="p" horiz-adv-x="1193" d="M141 -475l103 1472h118l-2 -329h7q35 97 78.5 167t82 107.5t85.5 58.5t80 26t75 5q171 0 262.5 -118t93.5 -336q0 -88 -17 -172t-54.5 -162.5t-92.5 -137t-138 -94t-183 -35.5q-90 0 -176 34t-137 95h-4l-43 -581h-138zM332 262q47 -83 131.5 -123.5t157.5 -40.5 q79 0 142.5 30t103.5 78t67 112t38 126.5t11 126.5q0 167 -62.5 252.5t-177.5 85.5q-261 0 -411 -647z" />
<glyph unicode="q" horiz-adv-x="1193" d="M139 434q0 87 17.5 171t55.5 162t93.5 136.5t138 93.5t181.5 35q91 0 177 -30.5t136 -88.5h4l21 84h124l-104 -1472h-135l59 835h-6q-32 -90 -75.5 -160.5t-87 -111.5t-92 -67.5t-87.5 -36t-76 -9.5q-171 0 -257.5 119.5t-86.5 339.5zM281 434q0 -159 57.5 -245.5 t169.5 -86.5q21 0 44.5 5.5t57.5 23t66 45.5t69 78t69 115.5t63 163.5t53 217q-33 58 -87.5 97t-103.5 52.5t-94 13.5q-78 0 -141 -28.5t-104 -75t-68.5 -109.5t-39 -129t-11.5 -137z" />
<glyph unicode="r" horiz-adv-x="808" d="M176 0l68 997h125l-29 -452h6q32 124 71 216t74.5 143t76 81.5t71 39.5t63.5 9q83 0 136.5 -32.5t87.5 -96.5l-86 -88q-30 44 -59.5 64t-80.5 20q-48 0 -95 -50.5t-81.5 -121t-67.5 -169t-52 -170.5t-37 -150l-58 -240h-133z" />
<glyph unicode="s" horiz-adv-x="1026" d="M104 244l121 43q33 -92 129 -144.5t189 -52.5q111 0 182 42.5t74 117.5v7q1 33 -17 61q-20 32 -47 52t-73.5 39.5t-78.5 29.5t-83 24q-60 19 -101.5 35t-88.5 42.5t-74 55.5q-26 30 -44 72q-16 38 -16 83v11q4 134 101.5 204t273.5 70q299 0 403 -235l-116 -43 q-92 162 -295 162q-109 0 -173 -41t-65 -115q-1 -18 2.5 -33.5t13 -29t19 -24t28.5 -21.5t32.5 -18t39.5 -17t41.5 -15.5t46.5 -16t47 -16.5q42 -12 69 -21t69.5 -26t70.5 -33.5t60.5 -42t51 -53t30.5 -65.5q10 -33 10 -70v-12q-6 -134 -122 -205.5t-282 -71.5 q-63 0 -127 15.5t-124 47t-107.5 85.5t-69.5 123z" />
<glyph unicode="t" horiz-adv-x="704" d="M92 877l8 120h144l30 424l142 66l-35 -490h262l-10 -120h-260l-43 -611q-1 -9 0 -18q0 -69 34 -102q39 -37 93 -37q74 0 159 75l62 -86q-52 -54 -122 -85t-136 -31q-67 0 -114.5 24t-72 65t-33.5 88q-6 33 -6 68q0 16 1 33l41 617h-144z" />
<glyph unicode="u" horiz-adv-x="1163" d="M182 342l45 655h144l-41 -606q-3 -47 -3 -88q0 -33 2 -63q4 -66 35.5 -107t90.5 -41q37 0 79 24t96 88t104 161.5t101.5 261.5t90.5 370h129l-68 -997h-123l25 455h-6q-46 -143 -99.5 -242t-112.5 -153t-117 -76.5t-126 -22.5q-130 1 -194 99q-53 83 -54 226q0 27 2 56z " />
<glyph unicode="v" horiz-adv-x="1009" d="M123 997h139l262 -841h6l357 841h137l-426 -997h-164z" />
<glyph unicode="w" horiz-adv-x="1574" d="M139 997h140l196 -835h6l297 782h158l188 -776h6l310 829h133l-369 -997h-166l-192 772h-6l-293 -772h-170z" />
<glyph unicode="x" horiz-adv-x="1038" d="M74 0l397 504l-324 493h162l266 -399h5l319 399h145l-403 -503l328 -494h-164l-264 395h-6l-316 -395h-145z" />
<glyph unicode="y" horiz-adv-x="1001" d="M123 997h145l275 -790h4l336 790h139l-631 -1472h-133l188 455q8 17 8 39t-6.5 46.5t-14 45t-18.5 48t-16 42.5z" />
<glyph unicode="z" horiz-adv-x="1030" d="M68 78l708 794v5h-608l8 120h762l41 -75l-707 -797l-2 -6h645l-8 -119h-801z" />
<glyph unicode="{" horiz-adv-x="681" d="M88 545l8 108q85 0 126.5 52.5t47.5 154.5l15 264q5 59 13.5 108t27.5 102.5t46 90t72 60.5t103 24h69q-8 -56 -8 -118h-61q-101 0 -113 -213l-22 -344q-5 -85 -42 -151t-98 -79v-6q56 -16 82.5 -86t20.5 -154q-2 -38 -9.5 -127t-9.5 -135q-3 -41 -4.5 -68.5t-1 -65 t5 -61.5t13.5 -47.5t26 -35t41 -11.5h62l-9 -118h-67q-59 0 -101 23t-63.5 62t-34.5 89t-12.5 104.5t2.5 108.5q5 73 20 262q13 207 -145 207z" />
<glyph unicode="|" horiz-adv-x="751" d="M301 -57l109 1568h141l-109 -1568h-141z" />
<glyph unicode="}" horiz-adv-x="694" d="M164 -311l8 118h61q28 0 49.5 18.5t33.5 43.5t20.5 69t12 75.5t7.5 82.5q7 105 15 262q6 84 43 154t94 86v6q-58 13 -84.5 78.5t-20.5 151.5l25 344q16 213 -82 213h-61q1 7 4 59t4 59h69q59 0 101 -23t63 -61.5t33.5 -89t12 -104t-2.5 -107.5l-20 -264 q-8 -102 25.5 -154.5t117.5 -52.5l-6 -108q-160 0 -176 -207l-14 -262q-6 -77 -19.5 -137.5t-41.5 -121t-80 -94.5t-124 -34h-67z" />
<glyph unicode="~" horiz-adv-x="1271" d="M240 516q42 48 111.5 83.5t125.5 35.5q47 0 100 -19t92.5 -42.5t85 -42.5t79.5 -19q61 0 97 21t85 73l80 -96q-56 -67 -117 -100t-141 -33q-44 0 -92 19t-84.5 41.5t-85.5 41.5t-93 19q-42 0 -90 -22.5t-84 -57.5z" />
<glyph unicode="&#xa1;" horiz-adv-x="778" d="M410 -522l82 1165h139l-78 -1104zM500 774l16 223h141l-16 -223h-141z" />
<glyph unicode="&#xa2;" d="M215 522q16 230 144 368t368 138h18l46 174l133 -24l-43 -172q94 -29 160.5 -90t93.5 -152l-123 -39q-33 94 -113.5 139t-175.5 45q-172 0 -264 -105.5t-105 -281.5q-8 -117 24.5 -212t112 -154.5t195.5 -59.5q93 0 187.5 52t138.5 147l118 -45q-39 -88 -117.5 -152 t-165.5 -93.5t-171 -29.5q-8 0 -23.5 1t-23.5 1l-41 -165l-133 24l41 168q-101 37 -168 116.5t-94 181.5t-19 220z" />
<glyph unicode="&#xa3;" d="M168 84q49 18 94.5 38t97 49.5t89.5 60.5t64.5 71t29.5 80q1 25 0 41t-16.5 61.5t-47.5 108.5h-289l9 121h227q-54 95 -90.5 193.5t-32.5 162.5q12 166 150.5 263.5t355.5 97.5q55 0 113 -14.5t119.5 -46t111.5 -92.5t74 -144l-121 -33q-25 62 -64 106t-82.5 65t-80 29.5 t-72.5 8.5q-103 0 -180.5 -25t-126.5 -81.5t-54 -139.5q-8 -109 129 -350h529l-8 -121h-467q26 -47 42 -105.5t13 -95.5q-6 -82 -66.5 -148.5t-158.5 -109.5v-6h639l-8 -129h-900z" />
<glyph unicode="&#xa4;" horiz-adv-x="1241" d="M242 821l92 92l121 -122q95 69 211 69q125 0 217 -76l127 127l88 -86l-129 -129q65 -95 65 -207q0 -121 -69 -208l135 -131l-92 -93l-134 129q-89 -65 -208 -65q-120 0 -209 65l-127 -127l-86 86l125 125q-76 95 -76 219q0 115 67 211zM426 489q0 -99 70.5 -169 t169.5 -70q97 0 166 70t69 169q0 100 -69 171t-166 71q-98 0 -169 -71t-71 -171z" />
<glyph unicode="&#xa5;" d="M209 1421h147l318 -823h6l405 823h146l-455 -905h314l-9 -119h-346q-3 -9 -8.5 -83.5t-5.5 -84.5h348l-8 -120h-348l-8 -109h-140l6 109h-356l8 120h359q0 4 2.5 45.5t4.5 80.5t1 42h-354l8 119h317z" />
<glyph unicode="&#xa6;" horiz-adv-x="735" d="M293 -57l43 632h139l-43 -632h-139zM356 885l45 637h142l-45 -637h-142z" />
<glyph unicode="&#xa7;" horiz-adv-x="1097" d="M203.5 619q-10.5 91 15 179.5t85 171.5t145.5 142q-5 8 -16 27.5t-15.5 27.5t-15 27.5t-13.5 27t-12 27t-10.5 27.5t-8.5 27.5t-6 28t-2.5 29t0.5 30.5q4 64 41.5 125.5t99.5 102t134.5 57t155.5 -9t155 -95.5l-92 -84q-48 46 -100 64.5t-95.5 10.5t-79 -31t-57 -59 t-23.5 -75q-6 -80 48 -170l350 -553q119 -180 78 -351t-244 -339q5 -9 25.5 -44.5t26.5 -47t20 -41t18.5 -47t8.5 -42.5t3 -49q-4 -55 -32.5 -107.5t-73 -92.5t-103.5 -65t-121.5 -29t-130.5 21.5t-126 80.5l90 96q59 -60 124 -74.5t114 8t82 65t36 91.5q3 42 -13 86 t-59 115l-348 545q-48 75 -58.5 166zM334 700.5q-9 -89.5 45 -176.5l272 -432q86 66 134 143t53 165.5t-50 177.5l-268 428q-80 -62 -128.5 -139t-57.5 -166.5z" />
<glyph unicode="&#xa8;" horiz-adv-x="1107" d="M332 1262l16 225h139l-16 -225h-139zM807 1262l16 225h140l-15 -225h-141z" />
<glyph unicode="&#xa9;" horiz-adv-x="1835" d="M104 694q0 164 64 315.5t172 263.5t260 178.5t320 66.5q167 0 318.5 -66.5t259.5 -178.5t171.5 -263.5t63.5 -315.5q0 -166 -63.5 -317.5t-171.5 -262.5t-259.5 -177t-318.5 -66q-168 0 -319.5 66t-260 177t-172.5 262.5t-64 317.5zM205 694q0 -147 56 -281t151 -232.5 t228 -157t280 -58.5q195 0 359 99t258.5 266.5t94.5 363.5q0 194 -94.5 361.5t-259 267.5t-358.5 100q-147 0 -280.5 -59t-228 -158t-150.5 -233t-56 -279zM430 719q4 100 36 187t91 156.5t153 109.5t212 40q134 0 257.5 -70.5t157.5 -183.5l-104 -32q-19 51 -57 88.5 t-85 56.5t-91 28t-85 9q-92 0 -162.5 -30t-113.5 -84.5t-65.5 -123.5t-26.5 -153q-5 -95 13 -172.5t59.5 -138t114.5 -94t171 -33.5q59 0 117.5 17t114.5 60t82 107l106 -37q-31 -80 -106 -140.5t-158 -88t-160 -27.5q-124 0 -218.5 43.5t-149.5 120t-81 174t-22 211.5z" />
<glyph unicode="&#xaa;" horiz-adv-x="991" d="M152 944q0 90 25.5 174.5t74.5 156.5t131.5 115.5t187.5 43.5q79 0 152 -24.5t115 -72.5h4l16 68h107l-60 -817h-108l14 295h-4q-27 -75 -64 -132.5t-74 -91.5t-78.5 -55.5t-75.5 -29t-66 -7.5q-146 0 -221.5 98t-75.5 279zM270 944q0 -130 51.5 -201t149.5 -71 q26 0 56 9t74.5 42.5t83.5 87.5t79.5 155.5t66.5 235.5q-40 69 -109 101t-132 32q-82 0 -146 -34.5t-100.5 -92t-55 -124.5t-18.5 -140z" />
<glyph unicode="&#xab;" horiz-adv-x="1179" d="M193 461l6 94l463 412l-11 -156l-329 -299v-6l288 -303l-12 -156zM614 461l7 94l462 412l-10 -156l-330 -299v-6l289 -303l-12 -156z" />
<glyph unicode="&#xac;" d="M233 627l9 123h858l-39 -566h-133l30 443h-725z" />
<glyph unicode="&#xad;" horiz-adv-x="1705" />
<glyph unicode="&#xae;" horiz-adv-x="1292" d="M166 969q0 147 72 272.5t195.5 198.5t268.5 73q147 0 272 -73t198 -198.5t73 -272.5t-73 -271.5t-198 -197t-272 -72.5q-145 0 -268.5 72.5t-195.5 197t-72 271.5zM254 969q0 -124 60.5 -229.5t163.5 -166.5t224 -61q92 0 176 36.5t145.5 97.5t97.5 145.5t36 177.5 q0 125 -61 231.5t-166 169t-228 62.5q-184 0 -316 -136t-132 -327zM459 637l45 670h227q55 0 99 -8t86 -29.5t63.5 -65.5t17.5 -108q-4 -53 -25 -89.5t-58.5 -56t-78.5 -27.5t-96 -10v-4l215 -272h-118l-238 295l20 63q270 -51 281 103q3 41 -12.5 68.5t-46 39t-56.5 15.5 t-61 4h-127l-41 -588h-96z" />
<glyph unicode="&#xaf;" horiz-adv-x="1103" d="M266 1270l19 131h723l-19 -131h-723z" />
<glyph unicode="&#xb0;" horiz-adv-x="948" d="M195 1083q0 141 97.5 238.5t239.5 97.5q143 0 241.5 -97.5t98.5 -238.5t-98.5 -238t-241.5 -97q-142 0 -239.5 97t-97.5 238zM297 1083q0 -101 67.5 -171t167.5 -70q99 0 168.5 70.5t69.5 170.5q0 99 -69.5 171.5t-168.5 72.5q-100 0 -167.5 -72t-67.5 -172z" />
<glyph unicode="&#xb1;" d="M193 -2l8 123h858l-8 -123h-858zM229 584l9 123h362l27 358h133l-27 -358h365l-11 -123h-362l-25 -359h-133l25 359h-363z" />
<glyph unicode="&#xb2;" horiz-adv-x="870" d="M197 645q63 92 145 167.5t150.5 121t130 84.5t99.5 77t44 79q12 84 -51.5 130t-141.5 46q-66 0 -134.5 -38t-106.5 -116l-107 23q48 110 147.5 166.5t211.5 56.5q44 0 87.5 -9t86 -29.5t73.5 -50.5t46.5 -76.5t7.5 -102.5q-9 -58 -44.5 -105t-91.5 -86t-117.5 -76.5 t-137 -95.5t-134.5 -125v-4h496l-14 -98h-619z" />
<glyph unicode="&#xb3;" horiz-adv-x="880" d="M197 786l108 19q9 -46 35 -78.5t59 -47t60.5 -20.5t52.5 -6q107 0 171.5 37.5t74.5 112.5q9 78 -52.5 117t-201.5 45l12 88q125 7 177.5 41.5t58.5 99.5q8 70 -53 109.5t-146 39.5q-22 0 -47 -4.5t-62 -17.5t-71.5 -45t-55.5 -78l-104 19q24 58 62.5 101.5t76.5 65.5 t83.5 35t74 16t57.5 3q84 0 154 -25.5t113 -81.5t34 -131q-15 -167 -194 -188v-4q42 -2 76.5 -13.5t65.5 -34.5t46.5 -65.5t11.5 -99.5q-12 -116 -109 -176t-261 -60q-33 0 -65 4t-74.5 18.5t-75 37.5t-58.5 66.5t-34 100.5z" />
<glyph unicode="&#xb4;" horiz-adv-x="899" d="M422 1243q156 81 254 182t104 193h135q-8 -135 -129.5 -265.5t-326.5 -217.5z" />
<glyph unicode="&#xb5;" horiz-adv-x="1179" d="M141 -469l103 1466h141l-41 -583q-6 -82 15 -145.5t59.5 -98.5t81 -52.5t86.5 -17.5q45 0 93 17.5t94.5 52.5t79 98.5t38.5 145.5l41 583h139l-67 -997h-119l-13 121h-6q-42 -61 -127.5 -100t-158.5 -39q-62 0 -138 35.5t-112 99.5h-6l-41 -586h-142z" />
<glyph unicode="&#xb6;" horiz-adv-x="1230" d="M207 1024q12 165 132.5 274t285.5 109h112l-96 -1407h-129l45 647q-155 3 -257.5 113t-92.5 264zM913 0l97 1407h127l-97 -1407h-127z" />
<glyph unicode="&#xb7;" horiz-adv-x="620" d="M342 412l14 221h144l-15 -221h-143z" />
<glyph unicode="&#xb8;" horiz-adv-x="1107" d="M313 -319l9 120h243q30 36 36.5 77t-4 77.5t-36.5 79.5h131q50 -89 34.5 -179.5t-91.5 -174.5h-322z" />
<glyph unicode="&#xb9;" horiz-adv-x="509" d="M125 1362l330 88l-62 -864h-117l54 735h-4l-195 -51z" />
<glyph unicode="&#xba;" horiz-adv-x="962" d="M147 983q0 118 46.5 217.5t142.5 163t225 63.5q194 0 308 -117.5t114 -312.5q0 -84 -25.5 -161t-74 -139t-127.5 -99t-178 -37q-199 0 -315 111t-116 311zM266 973q0 -63 18 -118t53.5 -99.5t95.5 -70.5t138 -26q135 0 214 98t79 247q0 61 -17 117t-51.5 103.5t-94 76 t-136.5 28.5q-71 0 -129 -30t-94.5 -80.5t-56 -113.5t-19.5 -132z" />
<glyph unicode="&#xbb;" horiz-adv-x="1179" d="M160 47l10 156l330 303l2 6l-289 299l10 156l408 -412l-8 -94zM584 47l10 156l330 303v6l-287 299l10 156l406 -412l-6 -94z" />
<glyph unicode="&#xbc;" horiz-adv-x="1634" d="M156 1362l329 88l-61 -864h-117l53 735h-4l-194 -51zM195 -66l1060 1514h127l-1058 -1514h-129zM879 172l311 631l125 12l-295 -592v-2h268l8 119l115 14l-10 -133h151l-4 -96h-151l-13 -158h-114l12 158h-369z" />
<glyph unicode="&#xbd;" horiz-adv-x="1716" d="M154 1362l329 88l-61 -864h-117l53 735h-4l-194 -51zM166 -66l1061 1514h127l-1059 -1514h-129zM1018 29q63 92 145 167.5t150.5 120.5t130 84t99.5 77t44 79q12 84 -51 130t-141 46q-66 0 -135 -37.5t-107 -115.5l-106 22q48 110 147.5 166.5t210.5 56.5q44 0 87.5 -9 t86 -29.5t73.5 -50.5t46.5 -76.5t7.5 -102.5q-9 -58 -44.5 -105t-91.5 -85.5t-117 -76t-136.5 -95.5t-134.5 -125v-4h495l-14 -99h-619z" />
<glyph unicode="&#xbe;" horiz-adv-x="1871" d="M215 786l109 19q9 -46 34.5 -78.5t58.5 -47t60.5 -20.5t52.5 -6q107 0 171.5 37.5t74.5 112.5q9 78 -52.5 117t-201.5 45l13 88q125 7 177 41.5t58 99.5q8 70 -53 109.5t-146 39.5q-22 0 -47 -4.5t-62 -17.5t-71 -45t-55 -78l-105 19q24 58 62.5 101.5t76.5 65.5t83.5 35 t74.5 16t58 3q84 0 154 -25.5t113 -81.5t34 -131q-8 -92 -63 -135.5t-132 -52.5v-4q42 -2 77 -13.5t66 -34.5t46.5 -65.5t11.5 -99.5q-12 -116 -109 -176t-262 -60q-33 0 -65 4t-74.5 18.5t-75 37.5t-58.5 66.5t-34 100.5zM492 -66l1060 1514h127l-1058 -1514h-129z M1128 172l312 631l125 12l-295 -592v-2h268l8 119l115 14l-10 -133h151l-4 -96h-151l-13 -158h-114l12 158h-369z" />
<glyph unicode="&#xbf;" horiz-adv-x="876" d="M49 -141q4 64 36.5 121t82 99t108 79.5t117 71t107 65.5t80 70.5t34.5 78.5q5 49 -20.5 78t-81.5 29q-27 0 -65.5 -18.5t-57.5 -53.5l-94 66q33 60 105.5 95.5t127.5 35.5q119 0 173.5 -62t46.5 -168q-4 -57 -36.5 -108t-81 -89.5t-106.5 -74.5t-115.5 -70.5t-106 -70 t-80 -80.5t-34.5 -94q-5 -65 20 -115.5t69 -78.5t94.5 -42t103.5 -14q55 0 101 8.5t97.5 31.5t98 70.5t84.5 118.5l119 -37q-36 -82 -92 -143.5t-123.5 -98t-141.5 -54t-153 -17.5q-84 0 -160.5 24t-136.5 69t-93 117t-26 161zM481 774l15 221h143l-14 -221h-144z" />
<glyph unicode="&#xc0;" horiz-adv-x="1265" d="M61 0l605 1421h147l391 -1421h-147l-88 311h-631l-129 -311h-148zM379 434h565l-217 795h-6zM541 2042h141q-6 -93 75.5 -194t223.5 -181l-51 -108q-194 87 -297.5 217.5t-91.5 265.5z" />
<glyph unicode="&#xc1;" horiz-adv-x="1265" d="M61 0l605 1421h147l391 -1421h-147l-88 311h-631l-129 -311h-148zM379 434h565l-217 795h-6zM549 1667q156 81 254 182t104 193h135q-8 -135 -129.5 -265.5t-326.5 -217.5z" />
<glyph unicode="&#xc2;" horiz-adv-x="1265" d="M61 0l605 1421h147l391 -1421h-147l-88 311h-631l-129 -311h-148zM338 1667q132 69 237.5 184.5t124.5 192.5h144q10 -80 99 -194.5t210 -182.5l-53 -96q-117 58 -202.5 147.5t-133.5 175.5h-4q-63 -88 -159 -176.5t-220 -146.5zM379 434h565l-217 795h-6z" />
<glyph unicode="&#xc3;" horiz-adv-x="1265" d="M61 0l605 1421h147l391 -1421h-147l-88 311h-631l-129 -311h-148zM338 1722q3 103 68 169.5t151 66.5q60 0 119 -25.5t97.5 -55.5t85.5 -55.5t85 -25.5q43 0 77 32.5t40 78.5h115q-1 -72 -37 -127.5t-86.5 -82t-104.5 -26.5q-62 0 -118.5 25.5t-92 55.5t-82.5 55.5 t-92 25.5q-43 0 -72 -33.5t-34 -77.5h-119zM379 434h565l-217 795h-6z" />
<glyph unicode="&#xc4;" horiz-adv-x="1265" d="M61 0l605 1421h147l391 -1421h-147l-88 311h-631l-129 -311h-148zM379 434h565l-217 795h-6zM434 1686l17 225h139l-17 -225h-139zM909 1686l17 225h139l-14 -225h-142z" />
<glyph unicode="&#xc5;" horiz-adv-x="1265" d="M61 0l605 1421h147l391 -1421h-147l-88 311h-631l-129 -311h-148zM379 434h565l-217 795h-6zM504 1829q0 104 73 167.5t179 63.5t179 -63.5t73 -167.5t-73 -167t-179 -63t-179 63.5t-73 166.5zM621 1829q0 -65 38.5 -104t96.5 -39t97.5 39t39.5 104q0 66 -39 105.5 t-98 39.5q-58 0 -96.5 -39.5t-38.5 -105.5z" />
<glyph unicode="&#xc6;" horiz-adv-x="1937" d="M61 0l809 1421h1010l-8 -118h-789l-36 -519h626l-8 -118h-627l-39 -553h789l-6 -113h-928l20 311h-481l-182 -311h-150zM449 426h434l59 840h-6z" />
<glyph unicode="&#xc7;" horiz-adv-x="1376" d="M174 754q8 115 33.5 215.5t76 190.5t121.5 153.5t175 101t231 37.5q197 0 338 -80.5t194 -245.5q-15 -4 -60.5 -19.5t-61.5 -19.5q-25 68 -70.5 117.5t-102.5 75.5t-115 37.5t-122 11.5q-102 0 -184 -31.5t-136.5 -84.5t-93 -128t-58 -156t-26.5 -175q-7 -106 5.5 -201.5 t47.5 -180t90.5 -146t139.5 -97t190 -35.5q133 0 242 62.5t166 195.5l127 -37q-54 -152 -180.5 -239t-292.5 -103q46 -146 -84 -292h-322l9 120h243q61 74 27 170q-123 8 -220.5 54t-161.5 118t-104.5 169.5t-54.5 208t-6 233.5z" />
<glyph unicode="&#xc8;" horiz-adv-x="1273" d="M190 0l99 1421h928l-9 -118h-788l-37 -519h625l-9 -118h-624l-37 -547h786l-6 -119h-928zM547 2042h141q-6 -93 75.5 -194t223.5 -181l-51 -108q-194 87 -297.5 217.5t-91.5 265.5z" />
<glyph unicode="&#xc9;" horiz-adv-x="1273" d="M190 0l99 1421h928l-9 -118h-788l-37 -519h625l-9 -118h-624l-37 -547h786l-6 -119h-928zM565 1667q156 81 254.5 182t104.5 193h135q-8 -135 -130 -265.5t-327 -217.5z" />
<glyph unicode="&#xca;" horiz-adv-x="1273" d="M190 0l99 1421h928l-9 -118h-788l-37 -519h625l-9 -118h-624l-37 -547h786l-6 -119h-928zM346 1667q132 69 238 185t125 192h143q10 -80 99 -194.5t210 -182.5l-53 -96q-117 58 -202.5 147.5t-133.5 175.5h-4q-63 -88 -159 -176.5t-220 -146.5z" />
<glyph unicode="&#xcb;" horiz-adv-x="1273" d="M190 0l99 1421h928l-9 -118h-788l-37 -519h625l-9 -118h-624l-37 -547h786l-6 -119h-928zM440 1686l17 225h139l-16 -225h-140zM915 1686l17 225h139l-14 -225h-142z" />
<glyph unicode="&#xcc;" horiz-adv-x="520" d="M174 2042h141q-6 -93 75.5 -194t223.5 -181l-51 -108q-194 87 -297.5 217.5t-91.5 265.5zM190 0l99 1421h139l-98 -1421h-140z" />
<glyph unicode="&#xcd;" horiz-adv-x="520" d="M180 1667q156 81 254.5 182t104.5 193h135q-8 -135 -130 -265.5t-327 -217.5zM190 0l99 1421h139l-98 -1421h-140z" />
<glyph unicode="&#xce;" horiz-adv-x="520" d="M-31 1667q132 69 238 185t125 192h143q10 -80 99 -194.5t210 -182.5l-53 -96q-117 58 -202.5 147.5t-133.5 175.5h-4q-63 -88 -159 -176.5t-220 -146.5zM190 0l99 1421h139l-98 -1421h-140z" />
<glyph unicode="&#xcf;" horiz-adv-x="520" d="M66 1686l16 225h139l-16 -225h-139zM190 0l99 1421h139l-98 -1421h-140zM541 1686l16 225h139l-14 -225h-141z" />
<glyph unicode="&#xd0;" horiz-adv-x="1382" d="M47 668l8 112h189l45 641h379q116 0 213.5 -24t166 -66t123 -100t85.5 -125.5t52 -143t23.5 -152.5t-0.5 -153q-10 -145 -55 -261t-130 -206.5t-223.5 -140t-322.5 -49.5h-410l46 668h-189zM338 119h270q546 0 580 538q9 75 0.5 152t-26 148.5t-59 134.5t-98.5 110 t-145 74t-198 27h-242l-37 -523h543q0 -10 -3.5 -56.5t-4.5 -55.5h-543z" />
<glyph unicode="&#xd1;" horiz-adv-x="1400" d="M190 0l99 1421h143l658 -1169h4l82 1169h133l-99 -1421h-145l-655 1167h-7l-79 -1167h-134zM387 1722q3 103 68 169.5t151 66.5q60 0 119 -25.5t97.5 -55.5t85.5 -55.5t85 -25.5q43 0 77 32.5t40 78.5h115q-1 -72 -37 -127.5t-86.5 -82t-104.5 -26.5q-62 0 -118.5 25.5 t-92 55.5t-82.5 55.5t-92 25.5q-43 0 -72 -33.5t-34 -77.5h-119z" />
<glyph unicode="&#xd2;" horiz-adv-x="1415" d="M145 664q0 112 17 216.5t59.5 210t108 183.5t170.5 127.5t239 50.5q153 1 269.5 -49t188.5 -144t108 -221t36 -284q0 -97 -13 -188t-41 -180.5t-75.5 -163.5t-111.5 -131t-155 -88.5t-200 -31.5q-158 0 -274.5 48.5t-187.5 140.5t-105 217.5t-33 286.5zM291 641 q4 -549 446 -549q103 0 183.5 38t131.5 102t84 154t46.5 186t13.5 206q0 94 -15 175t-48.5 152t-84 121t-126 78.5t-170.5 28.5q-104 0 -185.5 -41t-132.5 -107t-84 -158.5t-46 -186.5t-13 -199zM614 2042h142q-6 -93 75.5 -194t223.5 -181l-51 -108q-194 87 -298 217.5 t-92 265.5z" />
<glyph unicode="&#xd3;" horiz-adv-x="1415" d="M145 664q0 112 17 216.5t59.5 210t108 183.5t170.5 127.5t239 50.5q153 1 269.5 -49t188.5 -144t108 -221t36 -284q0 -97 -13 -188t-41 -180.5t-75.5 -163.5t-111.5 -131t-155 -88.5t-200 -31.5q-158 0 -274.5 48.5t-187.5 140.5t-105 217.5t-33 286.5zM291 641 q4 -549 446 -549q103 0 183.5 38t131.5 102t84 154t46.5 186t13.5 206q0 94 -15 175t-48.5 152t-84 121t-126 78.5t-170.5 28.5q-104 0 -185.5 -41t-132.5 -107t-84 -158.5t-46 -186.5t-13 -199zM623 1667q156 81 254 182t104 193h135q-8 -135 -130 -265.5t-327 -217.5z" />
<glyph unicode="&#xd4;" horiz-adv-x="1415" d="M145 664q0 112 17 216.5t59.5 210t108 183.5t170.5 127.5t239 50.5q153 1 269.5 -49t188.5 -144t108 -221t36 -284q0 -97 -13 -188t-41 -180.5t-75.5 -163.5t-111.5 -131t-155 -88.5t-200 -31.5q-158 0 -274.5 48.5t-187.5 140.5t-105 217.5t-33 286.5zM291 641 q4 -549 446 -549q103 0 183.5 38t131.5 102t84 154t46.5 186t13.5 206q0 94 -15 175t-48.5 152t-84 121t-126 78.5t-170.5 28.5q-104 0 -185.5 -41t-132.5 -107t-84 -158.5t-46 -186.5t-13 -199zM414 1667q132 69 237.5 184.5t124.5 192.5h144q10 -80 99 -194.5t210 -182.5 l-53 -96q-117 58 -202.5 147.5t-133.5 175.5h-4q-63 -88 -159 -176.5t-220 -146.5z" />
<glyph unicode="&#xd5;" horiz-adv-x="1415" d="M145 664q0 112 17 216.5t59.5 210t108 183.5t170.5 127.5t239 50.5q153 1 269.5 -49t188.5 -144t108 -221t36 -284q0 -97 -13 -188t-41 -180.5t-75.5 -163.5t-111.5 -131t-155 -88.5t-200 -31.5q-158 0 -274.5 48.5t-187.5 140.5t-105 217.5t-33 286.5zM291 641 q4 -549 446 -549q103 0 183.5 38t131.5 102t84 154t46.5 186t13.5 206q0 94 -15 175t-48.5 152t-84 121t-126 78.5t-170.5 28.5q-104 0 -185.5 -41t-132.5 -107t-84 -158.5t-46 -186.5t-13 -199zM412 1722q3 103 68 169.5t151 66.5q60 0 119 -25.5t97.5 -55.5t85.5 -55.5 t85 -25.5q43 0 77 32.5t40 78.5h114q-1 -107 -71.5 -171.5t-155.5 -64.5q-62 0 -118.5 25.5t-92 55.5t-82.5 55.5t-92 25.5q-43 0 -72.5 -33.5t-34.5 -77.5h-118z" />
<glyph unicode="&#xd6;" horiz-adv-x="1415" d="M145 664q0 112 17 216.5t59.5 210t108 183.5t170.5 127.5t239 50.5q153 1 269.5 -49t188.5 -144t108 -221t36 -284q0 -97 -13 -188t-41 -180.5t-75.5 -163.5t-111.5 -131t-155 -88.5t-200 -31.5q-158 0 -274.5 48.5t-187.5 140.5t-105 217.5t-33 286.5zM291 641 q4 -549 446 -549q103 0 183.5 38t131.5 102t84 154t46.5 186t13.5 206q0 94 -15 175t-48.5 152t-84 121t-126 78.5t-170.5 28.5q-104 0 -185.5 -41t-132.5 -107t-84 -158.5t-46 -186.5t-13 -199zM508 1686l16 225h140l-17 -225h-139zM983 1686l16 225h140l-15 -225h-141z " />
<glyph unicode="&#xd7;" d="M270 209l293 274l-258 275l98 92l259 -275l292 273l82 -86l-293 -275l256 -276l-100 -92l-256 276l-293 -274z" />
<glyph unicode="&#xd8;" horiz-adv-x="1415" d="M145 664q0 112 17 216.5t59.5 210t108 183.5t170.5 127.5t239 50.5q66 0 115 -8l35 149l133 -18l-39 -162q179 -67 268.5 -239.5t89.5 -419.5q0 -97 -13 -188t-41 -180.5t-75.5 -163.5t-111.5 -131t-155 -88.5t-200 -31.5q-12 0 -32.5 1t-30.5 1l-37 -163l-131 20l35 164 q-407 102 -404 670zM291 641q4 -549 446 -549q103 0 183.5 38t131.5 102t84 154t46.5 186t13.5 206q0 94 -15 175t-48.5 152t-84 121t-126 78.5t-170.5 28.5q-104 0 -185.5 -41t-132.5 -107t-84 -158.5t-46 -186.5t-13 -199z" />
<glyph unicode="&#xd9;" horiz-adv-x="1312" d="M203 465l67 956h140l-66 -956q-6 -95 21 -168.5t78 -116.5t112.5 -64.5t128.5 -21.5q65 0 123.5 22t108 65t81 115t37.5 165l68 960h137l-68 -960q-17 -239 -151.5 -362.5t-345.5 -123.5q-97 0 -183 30t-154.5 87.5t-105 154t-28.5 218.5zM565 2042h142q-6 -93 75.5 -194 t223.5 -181l-52 -108q-194 87 -297.5 217.5t-91.5 265.5z" />
<glyph unicode="&#xda;" horiz-adv-x="1312" d="M203 465l67 956h140l-66 -956q-6 -95 21 -168.5t78 -116.5t112.5 -64.5t128.5 -21.5q65 0 123.5 22t108 65t81 115t37.5 165l68 960h137l-68 -960q-17 -239 -151.5 -362.5t-345.5 -123.5q-97 0 -183 30t-154.5 87.5t-105 154t-28.5 218.5zM571 1667q156 81 254.5 182 t104.5 193h135q-8 -135 -130 -265.5t-327 -217.5z" />
<glyph unicode="&#xdb;" horiz-adv-x="1312" d="M203 465l67 956h140l-66 -956q-6 -95 21 -168.5t78 -116.5t112.5 -64.5t128.5 -21.5q65 0 123.5 22t108 65t81 115t37.5 165l68 960h137l-68 -960q-17 -239 -151.5 -362.5t-345.5 -123.5q-97 0 -183 30t-154.5 87.5t-105 154t-28.5 218.5zM360 1667q132 69 238 185 t125 192h143q10 -80 99.5 -194.5t210.5 -182.5l-54 -96q-117 58 -202.5 147.5t-133.5 175.5h-4q-63 -88 -159 -176.5t-220 -146.5z" />
<glyph unicode="&#xdc;" horiz-adv-x="1312" d="M203 465l67 956h140l-66 -956q-6 -95 21 -168.5t78 -116.5t112.5 -64.5t128.5 -21.5q65 0 123.5 22t108 65t81 115t37.5 165l68 960h137l-68 -960q-17 -239 -151.5 -362.5t-345.5 -123.5q-97 0 -183 30t-154.5 87.5t-105 154t-28.5 218.5zM457 1686l16 225h139l-16 -225 h-139zM932 1686l16 225h139l-14 -225h-141z" />
<glyph unicode="&#xdd;" horiz-adv-x="1140" d="M158 1419h147l320 -821h6l405 821l144 2l-463 -919q-32 -74 -37 -127l-25 -375h-141l25 369q3 64 -19 123zM485 1667q156 81 254.5 182t104.5 193h135q-8 -135 -130 -265.5t-327 -217.5z" />
<glyph unicode="&#xde;" horiz-adv-x="1257" d="M190 0l99 1407h139l-16 -244h264q81 0 156.5 -14t148 -48.5t124.5 -86t80 -133t21 -183.5q-5 -76 -27.5 -138.5t-56 -105.5t-80.5 -76t-96 -52.5t-109 -31.5t-112.5 -16t-112.5 -4h-260l-18 -274h-144zM358 387h263q65 0 119 6.5t114 26.5t102 52.5t72 90.5t35 135 q6 79 -15 140.5t-59.5 99.5t-93 62.5t-110 34t-117.5 9.5h-265z" />
<glyph unicode="&#xdf;" horiz-adv-x="1343" d="M188 0l60 868q42 580 522 580q120 0 216 -33t154.5 -104t51.5 -170q-3 -55 -35 -127q-211 -31 -223 -201q-2 -33 15.5 -66.5t47.5 -64.5t66 -63.5t72 -70t65 -78.5t45 -94t12 -110q-9 -130 -127 -211.5t-274 -81.5q-59 0 -115.5 11t-120 38t-114 84t-74.5 138l117 41 q75 -193 307 -193q102 0 178 49.5t82 132.5q3 46 -13.5 89.5t-46 78.5t-65 69t-71.5 68t-65.5 69t-46 78.5t-13.5 90.5q15 229 241 277q12 27 15 61q4 53 -37 93.5t-107 60.5t-145 20q-168 0 -263 -116t-110 -345l-59 -868h-142z" />
<glyph unicode="&#xe0;" horiz-adv-x="1191" d="M139 434q0 87 17.5 171t55.5 162t93.5 136.5t138 93.5t181.5 35q93 0 178 -29.5t135 -89.5h4l21 84h124l-69 -997h-129l18 360h-6q-32 -90 -75.5 -160.5t-87.5 -111.5t-93 -67.5t-88.5 -36t-77.5 -9.5q-170 0 -255 119t-85 340zM281 434q0 -160 56 -246t169 -86 q21 0 44.5 5.5t57 23t66.5 45.5t70 78t69 115.5t63.5 164t53.5 216.5q-33 58 -87.5 97t-103.5 52.5t-94 13.5q-78 0 -141 -28.5t-104 -75t-68.5 -109.5t-39 -129t-11.5 -137zM416 1618h141q-6 -93 75.5 -194t223.5 -181l-51 -108q-194 87 -297.5 217.5t-91.5 265.5z" />
<glyph unicode="&#xe1;" horiz-adv-x="1191" d="M139 434q0 87 17.5 171t55.5 162t93.5 136.5t138 93.5t181.5 35q93 0 178 -29.5t135 -89.5h4l21 84h124l-69 -997h-129l18 360h-6q-32 -90 -75.5 -160.5t-87.5 -111.5t-93 -67.5t-88.5 -36t-77.5 -9.5q-170 0 -255 119t-85 340zM281 434q0 -160 56 -246t169 -86 q21 0 44.5 5.5t57 23t66.5 45.5t70 78t69 115.5t63.5 164t53.5 216.5q-33 58 -87.5 97t-103.5 52.5t-94 13.5q-78 0 -141 -28.5t-104 -75t-68.5 -109.5t-39 -129t-11.5 -137zM393 1243q156 81 254.5 182t104.5 193h135q-8 -135 -130 -265.5t-327 -217.5z" />
<glyph unicode="&#xe2;" horiz-adv-x="1191" d="M139 434q0 87 17.5 171t55.5 162t93.5 136.5t138 93.5t181.5 35q93 0 178 -29.5t135 -89.5h4l21 84h124l-69 -997h-129l18 360h-6q-32 -90 -75.5 -160.5t-87.5 -111.5t-93 -67.5t-88.5 -36t-77.5 -9.5q-170 0 -255 119t-85 340zM203 1243q132 69 237.5 184.5t124.5 192.5 h144q10 -80 99 -194.5t210 -182.5l-53 -96q-117 58 -202.5 147.5t-133.5 175.5h-4q-63 -88 -159 -176.5t-220 -146.5zM281 434q0 -160 56 -246t169 -86q21 0 44.5 5.5t57 23t66.5 45.5t70 78t69 115.5t63.5 164t53.5 216.5q-33 58 -87.5 97t-103.5 52.5t-94 13.5 q-78 0 -141 -28.5t-104 -75t-68.5 -109.5t-39 -129t-11.5 -137z" />
<glyph unicode="&#xe3;" horiz-adv-x="1191" d="M139 434q0 87 17.5 171t55.5 162t93.5 136.5t138 93.5t181.5 35q93 0 178 -29.5t135 -89.5h4l21 84h124l-69 -997h-129l18 360h-6q-32 -90 -75.5 -160.5t-87.5 -111.5t-93 -67.5t-88.5 -36t-77.5 -9.5q-170 0 -255 119t-85 340zM207 1298q3 103 68 169.5t151 66.5 q60 0 119 -25.5t97.5 -55.5t85.5 -55.5t85 -25.5q43 0 77 32.5t40 78.5h114q-1 -107 -71.5 -171.5t-155.5 -64.5q-62 0 -118.5 25.5t-92 55.5t-82.5 55.5t-92 25.5q-43 0 -72 -33.5t-34 -77.5h-119zM281 434q0 -160 56 -246t169 -86q21 0 44.5 5.5t57 23t66.5 45.5t70 78 t69 115.5t63.5 164t53.5 216.5q-33 58 -87.5 97t-103.5 52.5t-94 13.5q-78 0 -141 -28.5t-104 -75t-68.5 -109.5t-39 -129t-11.5 -137z" />
<glyph unicode="&#xe4;" horiz-adv-x="1191" d="M139 434q0 87 17.5 171t55.5 162t93.5 136.5t138 93.5t181.5 35q93 0 178 -29.5t135 -89.5h4l21 84h124l-69 -997h-129l18 360h-6q-32 -90 -75.5 -160.5t-87.5 -111.5t-93 -67.5t-88.5 -36t-77.5 -9.5q-170 0 -255 119t-85 340zM281 434q0 -160 56 -246t169 -86 q21 0 44.5 5.5t57 23t66.5 45.5t70 78t69 115.5t63.5 164t53.5 216.5q-33 58 -87.5 97t-103.5 52.5t-94 13.5q-78 0 -141 -28.5t-104 -75t-68.5 -109.5t-39 -129t-11.5 -137zM305 1262l17 225h139l-17 -225h-139zM780 1262l17 225h139l-14 -225h-142z" />
<glyph unicode="&#xe5;" horiz-adv-x="1191" d="M139 434q0 87 17.5 171t55.5 162t93.5 136.5t138 93.5t181.5 35q93 0 178 -29.5t135 -89.5h4l21 84h124l-69 -997h-129l18 360h-6q-32 -90 -75.5 -160.5t-87.5 -111.5t-93 -67.5t-88.5 -36t-77.5 -9.5q-170 0 -255 119t-85 340zM281 434q0 -160 56 -246t169 -86 q21 0 44.5 5.5t57 23t66.5 45.5t70 78t69 115.5t63.5 164t53.5 216.5q-33 58 -87.5 97t-103.5 52.5t-94 13.5q-78 0 -141 -28.5t-104 -75t-68.5 -109.5t-39 -129t-11.5 -137zM373 1405q0 104 73 167.5t179 63.5t179 -63.5t73 -167.5t-73 -166.5t-179 -62.5t-179 63t-73 166z M489 1405q0 -65 39 -104t97 -39q59 0 98 39t39 104q0 66 -39 105.5t-98 39.5t-97.5 -39.5t-38.5 -105.5z" />
<glyph unicode="&#xe6;" horiz-adv-x="1830" d="M133 274q4 83 36.5 141.5t84.5 90t114.5 51t133.5 31.5t135 24t124.5 36t96.5 61q-23 206 -276 206q-88 0 -180 -37t-150 -116l-96 78q90 108 196 151t232 43q139 0 235 -52.5t131 -147.5h4q68 105 163.5 151.5t223.5 46.5q68 0 127.5 -12t122.5 -48.5t104.5 -95 t62 -160.5t5.5 -237h-784q-7 -185 80 -285t231 -100q45 0 84.5 7t85.5 25.5t90 58t80 98.5l117 -50q-149 -258 -453 -258q-276 0 -383 232h-6q-37 -61 -93 -108t-116.5 -72t-116 -37.5t-104.5 -12.5q-67 0 -128 18t-111.5 52.5t-78.5 93.5t-24 133zM264 285 q-3 -40 10.5 -73.5t37 -55t54.5 -36t61.5 -20.5t59.5 -6q49 0 107 19t113.5 53.5t94.5 93t44 129.5l14 199h-4q-45 -38 -110.5 -62t-127 -32t-125.5 -21t-112 -29t-80.5 -56t-36.5 -103zM989 588h645q4 76 -11.5 135.5t-43.5 95t-68 59t-80 32t-85 8.5q-47 0 -90.5 -8.5 t-89.5 -31.5t-81 -58.5t-61.5 -95t-34.5 -136.5z" />
<glyph unicode="&#xe7;" horiz-adv-x="1134" d="M150 522q16 230 144 368t368 138q146 0 258 -69t149 -195l-123 -39q-33 94 -113.5 139t-175.5 45q-172 0 -263.5 -105.5t-104.5 -281.5q-8 -117 24.5 -212t112 -154.5t195.5 -59.5q93 0 187 52t138 147l119 -45q-48 -109 -150.5 -177.5t-220.5 -88.5q56 -154 -80 -303 h-321l8 120h244q63 76 24 176q-110 7 -195.5 54t-136 121.5t-73 169t-14.5 200.5z" />
<glyph unicode="&#xe8;" horiz-adv-x="1136" d="M117 530q7 106 42 196t96.5 158.5t154.5 107t208 38.5q76 0 141.5 -15.5t125.5 -55t99.5 -100.5t57.5 -158t5 -222h-801q-6 -164 82.5 -273.5t244.5 -109.5q222 0 338 185l119 -48q-40 -73 -98 -126t-122 -80.5t-123.5 -39.5t-119.5 -12q-112 0 -202 43.5t-146.5 118.5 t-83.5 176t-18 217zM258 588h662q4 93 -20.5 160t-71.5 102t-100.5 50t-119.5 15q-149 0 -235.5 -89.5t-114.5 -237.5zM442 1618h142q-6 -93 75.5 -194t223.5 -181l-52 -108q-194 87 -297.5 217.5t-91.5 265.5z" />
<glyph unicode="&#xe9;" horiz-adv-x="1134" d="M117 530q7 106 42 196t96.5 158.5t154.5 107t208 38.5q76 0 141.5 -15.5t125.5 -55t99.5 -100.5t57.5 -158t5 -222h-801q-6 -164 82.5 -273.5t244.5 -109.5q222 0 338 185l119 -48q-40 -73 -98 -126t-122 -80.5t-123.5 -39.5t-119.5 -12q-112 0 -202 43.5t-146.5 118.5 t-83.5 176t-18 217zM258 588h662q4 93 -20.5 160t-71.5 102t-100.5 50t-119.5 15q-149 0 -235.5 -89.5t-114.5 -237.5zM461 1243q156 81 254 182t104 193h135q-8 -135 -129.5 -265.5t-326.5 -217.5z" />
<glyph unicode="&#xea;" horiz-adv-x="1134" d="M117 530q7 106 42 196t96.5 158.5t154.5 107t208 38.5q76 0 141.5 -15.5t125.5 -55t99.5 -100.5t57.5 -158t5 -222h-801q-6 -164 82.5 -273.5t244.5 -109.5q222 0 338 185l119 -48q-40 -73 -98 -126t-122 -80.5t-123.5 -39.5t-119.5 -12q-112 0 -202 43.5t-146.5 118.5 t-83.5 176t-18 217zM250 1243q132 69 237.5 184.5t124.5 192.5h144q10 -80 99 -194.5t210 -182.5l-53 -96q-117 58 -202.5 147.5t-133.5 175.5h-4q-63 -88 -159 -176.5t-220 -146.5zM258 588h662q4 93 -20.5 160t-71.5 102t-100.5 50t-119.5 15q-149 0 -235.5 -89.5 t-114.5 -237.5z" />
<glyph unicode="&#xeb;" horiz-adv-x="1134" d="M117 530q7 106 42 196t96.5 158.5t154.5 107t208 38.5q76 0 141.5 -15.5t125.5 -55t99.5 -100.5t57.5 -158t5 -222h-801q-6 -164 82.5 -273.5t244.5 -109.5q222 0 338 185l119 -48q-40 -73 -98 -126t-122 -80.5t-123.5 -39.5t-119.5 -12q-112 0 -202 43.5t-146.5 118.5 t-83.5 176t-18 217zM258 588h662q4 93 -20.5 160t-71.5 102t-100.5 50t-119.5 15q-149 0 -235.5 -89.5t-114.5 -237.5zM344 1262l16 225h140l-17 -225h-139zM819 1262l17 225h139l-14 -225h-142z" />
<glyph unicode="&#xec;" horiz-adv-x="495" d="M127 1618h141q-6 -93 75.5 -194t223.5 -181l-51 -108q-194 87 -297.5 217.5t-91.5 265.5zM176 0l68 997h143l-68 -997h-143z" />
<glyph unicode="&#xed;" horiz-adv-x="495" d="M135 1243q156 81 254.5 182t104.5 193h135q-8 -135 -130 -265.5t-327 -217.5zM176 0l68 997h143l-68 -997h-143z" />
<glyph unicode="&#xee;" horiz-adv-x="495" d="M-76 1243q132 69 238 185t125 192h143q10 -80 99 -194.5t210 -182.5l-53 -96q-117 58 -202.5 147.5t-133.5 175.5h-4q-63 -88 -159 -176.5t-220 -146.5zM176 0l68 997h143l-68 -997h-143z" />
<glyph unicode="&#xef;" horiz-adv-x="495" d="M18 1262l17 225h139l-16 -225h-140zM176 0l68 997h143l-68 -997h-143zM494 1262l16 225h139l-14 -225h-141z" />
<glyph unicode="&#xf0;" horiz-adv-x="1234" d="M158 436q15 208 149 340.5t344 132.5q110 0 212.5 -58.5t140.5 -133.5h6q22 459 -148 606l-149 -225l-101 69l144 213q-58 15 -105 15q-76 0 -157.5 -36.5t-145.5 -107.5l-88 72q80 97 190 143.5t214 46.5q92 0 165 -24l134 199l98 -68l-123 -184q253 -180 213 -781 q-22 -332 -157.5 -509t-387.5 -177q-133 0 -237 55t-162 162.5t-49 249.5zM297 432q-10 -153 85 -250.5t232 -97.5q86 0 157.5 37t116.5 97.5t70.5 132t30.5 147.5q3 41 -21.5 91.5t-66.5 94.5t-105.5 74t-129.5 30q-155 0 -256.5 -101.5t-112.5 -254.5z" />
<glyph unicode="&#xf1;" horiz-adv-x="1163" d="M176 0l68 997h123l-25 -454h4q50 147 102.5 245.5t109.5 152t113 74.5t126 21q131 0 197.5 -99t54.5 -282l-45 -655h-144l41 606q22 299 -139 299q-36 0 -76.5 -24t-92.5 -88t-100.5 -162t-99.5 -261t-90 -370h-127zM258 1298q3 103 68 169.5t151 66.5q60 0 119 -25.5 t97.5 -55.5t85.5 -55.5t85 -25.5q43 0 77 32.5t40 78.5h115q-1 -72 -37 -127.5t-86.5 -82t-104.5 -26.5q-62 0 -118.5 25.5t-92 55.5t-82.5 55.5t-92 25.5q-43 0 -72 -33.5t-34 -77.5h-119z" />
<glyph unicode="&#xf2;" horiz-adv-x="1177" d="M129 489q0 85 19 164t58 148t95 119.5t134 80t171 29.5q226 0 356 -142.5t130 -379.5q0 -83 -17 -159.5t-54.5 -145.5t-91 -119.5t-132 -80.5t-172.5 -30q-232 0 -364 135t-132 381zM270 477q0 -78 19 -144.5t59 -121t109 -86t161 -31.5q105 0 182 56.5t114.5 150 t37.5 213.5q0 59 -11 113.5t-37 106.5t-64.5 90.5t-97.5 61.5t-132 23q-84 0 -150.5 -36.5t-107 -98t-61.5 -137.5t-21 -160zM469 1618h141q-6 -93 75.5 -194t223.5 -181l-51 -108q-194 87 -297.5 217.5t-91.5 265.5z" />
<glyph unicode="&#xf3;" horiz-adv-x="1177" d="M129 489q0 85 19 164t58 148t95 119.5t134 80t171 29.5q226 0 356 -142.5t130 -379.5q0 -83 -17 -159.5t-54.5 -145.5t-91 -119.5t-132 -80.5t-172.5 -30q-232 0 -364 135t-132 381zM270 477q0 -78 19 -144.5t59 -121t109 -86t161 -31.5q105 0 182 56.5t114.5 150 t37.5 213.5q0 59 -11 113.5t-37 106.5t-64.5 90.5t-97.5 61.5t-132 23q-84 0 -150.5 -36.5t-107 -98t-61.5 -137.5t-21 -160zM475 1243q156 81 254.5 182t104.5 193h135q-8 -135 -130 -265.5t-327 -217.5z" />
<glyph unicode="&#xf4;" horiz-adv-x="1177" d="M129 489q0 85 19 164t58 148t95 119.5t134 80t171 29.5q226 0 356 -142.5t130 -379.5q0 -83 -17 -159.5t-54.5 -145.5t-91 -119.5t-132 -80.5t-172.5 -30q-232 0 -364 135t-132 381zM266 1243q132 69 238 185t125 192h143q10 -80 99 -194.5t210 -182.5l-53 -96 q-117 58 -202.5 147.5t-133.5 175.5h-4q-63 -88 -159 -176.5t-220 -146.5zM270 477q0 -78 19 -144.5t59 -121t109 -86t161 -31.5q105 0 182 56.5t114.5 150t37.5 213.5q0 59 -11 113.5t-37 106.5t-64.5 90.5t-97.5 61.5t-132 23q-84 0 -150.5 -36.5t-107 -98t-61.5 -137.5 t-21 -160z" />
<glyph unicode="&#xf5;" horiz-adv-x="1177" d="M129 489q0 85 19 164t58 148t95 119.5t134 80t171 29.5q226 0 356 -142.5t130 -379.5q0 -83 -17 -159.5t-54.5 -145.5t-91 -119.5t-132 -80.5t-172.5 -30q-232 0 -364 135t-132 381zM266 1298q3 103 68 169.5t151 66.5q60 0 119 -25.5t97.5 -55.5t85.5 -55.5t85 -25.5 q43 0 77 32.5t40 78.5h115q-1 -107 -71.5 -171.5t-155.5 -64.5q-62 0 -118.5 25.5t-92 55.5t-82.5 55.5t-92 25.5q-43 0 -72.5 -33.5t-34.5 -77.5h-119zM270 477q0 -78 19 -144.5t59 -121t109 -86t161 -31.5q105 0 182 56.5t114.5 150t37.5 213.5q0 59 -11 113.5t-37 106.5 t-64.5 90.5t-97.5 61.5t-132 23q-84 0 -150.5 -36.5t-107 -98t-61.5 -137.5t-21 -160z" />
<glyph unicode="&#xf6;" horiz-adv-x="1177" d="M129 489q0 85 19 164t58 148t95 119.5t134 80t171 29.5q226 0 356 -142.5t130 -379.5q0 -83 -17 -159.5t-54.5 -145.5t-91 -119.5t-132 -80.5t-172.5 -30q-232 0 -364 135t-132 381zM270 477q0 -78 19 -144.5t59 -121t109 -86t161 -31.5q105 0 182 56.5t114.5 150 t37.5 213.5q0 59 -11 113.5t-37 106.5t-64.5 90.5t-97.5 61.5t-132 23q-84 0 -150.5 -36.5t-107 -98t-61.5 -137.5t-21 -160zM362 1262l17 225h139l-16 -225h-140zM838 1262l16 225h139l-14 -225h-141z" />
<glyph unicode="&#xf7;" d="M221 434l8 125h858l-8 -125h-858zM543 -25l14 218h143l-14 -218h-143zM600 801l14 215h144l-15 -215h-143z" />
<glyph unicode="&#xf8;" horiz-adv-x="1177" d="M129 489q0 85 19 164t58 148t95 119.5t134 80t171 29.5q55 0 96 -8l52 178l131 -29l-56 -188q126 -58 194.5 -182t68.5 -293q0 -83 -17 -159.5t-54.5 -145.5t-91 -119.5t-132 -80.5t-172.5 -30q-37 0 -88 7l-45 -164l-132 26l46 168q-134 55 -205.5 176.5t-71.5 302.5z M270 477q0 -78 19 -144.5t59 -121t109 -86t161 -31.5q105 0 182 56.5t114.5 150t37.5 213.5q0 59 -11 113.5t-37 106.5t-64.5 90.5t-97.5 61.5t-132 23q-84 0 -150.5 -36.5t-107 -98t-61.5 -137.5t-21 -160z" />
<glyph unicode="&#xf9;" horiz-adv-x="1163" d="M182 342l45 655h144l-41 -606q-5 -84 -1 -150.5t35.5 -107.5t90.5 -41q37 0 79 24t96 88t104 161.5t101.5 261.5t90.5 370h129l-68 -997h-123l25 455h-6q-46 -143 -99.5 -242t-112.5 -153t-117 -76.5t-126 -22.5q-131 0 -194.5 98.5t-51.5 282.5zM461 1618h141 q-6 -93 75.5 -194t223.5 -181l-51 -108q-194 87 -297.5 217.5t-91.5 265.5z" />
<glyph unicode="&#xfa;" horiz-adv-x="1163" d="M182 342l45 655h144l-41 -606q-5 -84 -1 -150.5t35.5 -107.5t90.5 -41q37 0 79 24t96 88t104 161.5t101.5 261.5t90.5 370h129l-68 -997h-123l25 455h-6q-46 -143 -99.5 -242t-112.5 -153t-117 -76.5t-126 -22.5q-131 0 -194.5 98.5t-51.5 282.5zM449 1243 q156 81 254 182t104 193h135q-8 -135 -130 -265.5t-327 -217.5z" />
<glyph unicode="&#xfb;" horiz-adv-x="1163" d="M182 342l45 655h144l-41 -606q-5 -84 -1 -150.5t35.5 -107.5t90.5 -41q37 0 79 24t96 88t104 161.5t101.5 261.5t90.5 370h129l-68 -997h-123l25 455h-6q-46 -143 -99.5 -242t-112.5 -153t-117 -76.5t-126 -22.5q-131 0 -194.5 98.5t-51.5 282.5zM258 1243 q132 69 238 185t125 192h143q10 -80 99 -194.5t210 -182.5l-53 -96q-117 58 -202.5 147.5t-133.5 175.5h-4q-63 -88 -159 -176.5t-220 -146.5z" />
<glyph unicode="&#xfc;" horiz-adv-x="1163" d="M182 342l45 655h144l-41 -606q-5 -84 -1 -150.5t35.5 -107.5t90.5 -41q37 0 79 24t96 88t104 161.5t101.5 261.5t90.5 370h129l-68 -997h-123l25 455h-6q-46 -143 -99.5 -242t-112.5 -153t-117 -76.5t-126 -22.5q-131 0 -194.5 98.5t-51.5 282.5zM348 1262l17 225h139 l-17 -225h-139zM823 1262l17 225h139l-14 -225h-142z" />
<glyph unicode="&#xfd;" horiz-adv-x="1001" d="M123 997h145l275 -790h4l336 790h139l-631 -1472h-133l188 455q8 17 8 39t-6.5 46.5t-14 45t-18.5 48t-16 42.5zM397 1243q156 81 254.5 182t104.5 193h135q-8 -135 -130 -265.5t-327 -217.5z" />
<glyph unicode="&#xfe;" horiz-adv-x="1187" d="M141 -475l133 1896l144 66l-43 -602h6q57 66 144 106.5t171 40.5q95 0 178 -36t143.5 -101.5t92 -165t23.5 -217.5q-9 -126 -53.5 -228.5t-114 -168.5t-156.5 -102t-184 -36q-87 0 -169 33t-128 90h-6l-41 -575h-140zM332 252q28 -45 66 -77t77 -47t71.5 -21.5t63.5 -6.5 q152 0 260 108.5t121 301.5q12 178 -81.5 288.5t-241.5 110.5q-41 0 -88 -13t-107 -51.5t-106 -96.5q-2 -36 -35 -496z" />
<glyph unicode="&#xff;" horiz-adv-x="1001" d="M123 997h145l275 -790h4l336 790h139l-631 -1472h-133l188 455q8 17 8 39t-6.5 46.5t-14 45t-18.5 48t-16 42.5zM287 1262l16 225h139l-16 -225h-139zM762 1262l16 225h140l-15 -225h-141z" />
<glyph unicode="&#x152;" horiz-adv-x="2234" d="M147 729q8 125 32.5 229.5t72.5 197t116.5 156.5t170 101t227.5 37q47 0 91.5 -5t102 -22t105 -44.5t93 -77.5t73.5 -117l18 237h928l-8 -118h-789l-37 -519h627l-8 -118h-627l-37 -547h789l-8 -119h-928l16 229q-135 -258 -448 -258q-130 0 -232.5 39.5t-169 108.5 t-108 166t-56 207.5t-6.5 236.5zM297 731q-9 -136 11 -249.5t69.5 -203t139.5 -140t212 -50.5q95 0 172 34t129 92t89 141t56 175.5t25 200.5q6 107 -5 197t-42.5 166.5t-82.5 129.5t-128 83t-176 30q-97 0 -173.5 -30.5t-128 -83.5t-87.5 -130.5t-54.5 -165.5t-25.5 -196z " />
<glyph unicode="&#x153;" horiz-adv-x="1964" d="M119 489q0 106 33.5 203t94.5 172.5t156.5 120.5t210.5 45q155 0 261.5 -69t158.5 -195q57 122 162.5 193t257.5 71q83 0 152 -15.5t130 -55t100 -100.5t56 -158t4 -222h-800q-7 -170 85 -276.5t246 -106.5q220 0 336 185l117 -48q-40 -73 -97 -126t-120 -80.5 t-121.5 -39.5t-118.5 -12q-146 0 -247.5 64t-153.5 180q-54 -114 -153.5 -180t-243.5 -66q-233 0 -369.5 136t-136.5 380zM260 477q0 -77 21 -144t62.5 -121.5t112 -86t162.5 -31.5q159 0 252 119t93 301q0 59 -11 113.5t-37 106.5t-64.5 90.5t-97.5 61.5t-132 23 q-112 0 -196 -63t-124.5 -160t-40.5 -209zM1108 588h659q15 327 -315 327q-151 0 -241 -94t-103 -233z" />
<glyph unicode="&#x178;" horiz-adv-x="1142" d="M158 1419h147l320 -821h6l405 821l144 2l-463 -919q-32 -74 -37 -127l-25 -375h-141l25 369q3 64 -19 123zM371 1686l16 225h139l-16 -225h-139zM846 1686l16 225h139l-14 -225h-141z" />
<glyph unicode="&#x2c6;" horiz-adv-x="1107" d="M229 1243q132 69 238 185t125 192h143q10 -80 99 -194.5t210 -182.5l-53 -96q-117 58 -202.5 147.5t-133.5 175.5h-4q-63 -88 -159 -176.5t-220 -146.5z" />
<glyph unicode="&#x2dc;" horiz-adv-x="1132" d="M236 1298q3 103 68 169.5t151 66.5q60 0 119 -25.5t97.5 -55.5t85.5 -55.5t85 -25.5q43 0 76.5 32.5t39.5 78.5h115q-1 -107 -71.5 -171.5t-155.5 -64.5q-62 0 -118.5 25.5t-92 55.5t-82.5 55.5t-92 25.5q-43 0 -72.5 -33.5t-34.5 -77.5h-118z" />
<glyph unicode="&#x2000;" horiz-adv-x="1030" />
<glyph unicode="&#x2001;" horiz-adv-x="2060" />
<glyph unicode="&#x2002;" horiz-adv-x="1030" />
<glyph unicode="&#x2003;" horiz-adv-x="2060" />
<glyph unicode="&#x2004;" horiz-adv-x="686" />
<glyph unicode="&#x2005;" horiz-adv-x="515" />
<glyph unicode="&#x2006;" horiz-adv-x="343" />
<glyph unicode="&#x2007;" horiz-adv-x="343" />
<glyph unicode="&#x2008;" horiz-adv-x="257" />
<glyph unicode="&#x2009;" horiz-adv-x="412" />
<glyph unicode="&#x200a;" horiz-adv-x="114" />
<glyph unicode="&#x2010;" horiz-adv-x="950" d="M203 428l8 125h602l-8 -125h-602z" />
<glyph unicode="&#x2011;" horiz-adv-x="950" d="M203 428l8 125h602l-8 -125h-602z" />
<glyph unicode="&#x2012;" horiz-adv-x="950" d="M203 428l8 125h602l-8 -125h-602z" />
<glyph unicode="&#x2013;" horiz-adv-x="1232" d="M219 424l8 125h858l-8 -125h-858z" />
<glyph unicode="&#x2014;" horiz-adv-x="1630" d="M221 424l12 125h1283l-13 -125h-1282z" />
<glyph unicode="&#x2018;" horiz-adv-x="536" d="M250 1208q14 187 147 299l72 -65q-37 -28 -65.5 -79.5t-32.5 -115.5h37l-17 -213h-127q-19 107 -14 174z" />
<glyph unicode="&#x2019;" horiz-adv-x="536" d="M242 1079q37 29 66.5 80.5t33.5 114.5h-39l12 213h129q20 -97 15 -176q-10 -184 -148 -297z" />
<glyph unicode="&#x201a;" horiz-adv-x="536" d="M154 -195q37 29 66.5 80.5t33.5 114.5h-39l12 213h129q20 -97 15 -176q-10 -184 -148 -297z" />
<glyph unicode="&#x201c;" horiz-adv-x="866" d="M252 1208q14 187 147 299l72 -65q-37 -28 -65.5 -79.5t-32.5 -115.5h37l-17 -213h-127q-19 107 -14 174zM584 1208q14 187 147 299l72 -65q-37 -28 -65.5 -79.5t-32.5 -115.5h36l-16 -213h-127q-19 107 -14 174z" />
<glyph unicode="&#x201d;" horiz-adv-x="864" d="M242 1079q37 29 66.5 80.5t33.5 114.5h-39l12 213h129q20 -97 15 -176q-10 -184 -148 -297zM575 1079q37 29 67 80.5t34 114.5h-39l12 213h129q20 -97 15 -176q-10 -184 -148 -297z" />
<glyph unicode="&#x201e;" horiz-adv-x="864" d="M154 -195q37 29 66.5 80.5t33.5 114.5h-39l12 213h129q20 -97 15 -176q-10 -184 -148 -297zM487 -195q37 29 67 80.5t34 114.5h-39l12 213h129q20 -97 15 -176q-10 -184 -148 -297z" />
<glyph unicode="&#x2022;" horiz-adv-x="704" d="M35 604q0 95 64.5 161t158.5 66q95 0 161 -66t66 -161t-66 -160t-161 -65q-94 0 -158.5 65t-64.5 160z" />
<glyph unicode="&#x2026;" horiz-adv-x="1320" d="M248 0l14 221h144l-15 -221h-143zM672 0l14 221h143l-14 -221h-143zM1098 0l14 221h143l-14 -221h-143z" />
<glyph unicode="&#x202f;" horiz-adv-x="412" />
<glyph unicode="&#x2039;" horiz-adv-x="755" d="M193 461l6 94l463 412l-11 -156l-329 -299v-6l288 -303l-12 -156z" />
<glyph unicode="&#x203a;" horiz-adv-x="755" d="M160 47l10 156l330 303l2 6l-289 299l10 156l408 -412l-8 -94z" />
<glyph unicode="&#x205f;" horiz-adv-x="515" />
<glyph unicode="&#x20ac;" d="M57 498l9 108h79q-6 74 0 152q0 12 5 57h-70l8 109h78q22 113 67.5 207t115 167t169.5 113.5t221 40.5q77 0 145.5 -16.5t131.5 -51.5t108.5 -98.5t65.5 -150.5q-12 -4 -55 -20.5t-58 -20.5q-79 235 -346 235q-175 0 -281.5 -111t-144.5 -294h656l-9 -109h-663 q-4 -36 -4 -57q-6 -78 0 -152h653l-6 -108h-635q33 -186 132 -295t271 -109q105 0 218.5 70.5t156.5 183.5l111 -41q-29 -81 -86 -147t-126 -107t-142 -62.5t-140 -21.5q-121 0 -216.5 39.5t-159.5 112t-103.5 166.5t-56.5 211h-99z" />
<glyph unicode="&#x2122;" horiz-adv-x="1845" d="M190 1413l7 94h667l-8 -94h-274l-54 -762h-116l53 762h-275zM948 651l60 856h145l242 -633h4l307 633h152l-60 -856h-112l45 660h-5l-303 -598h-84l-233 598h-4l-45 -660h-109z" />
<glyph unicode="&#x25fc;" horiz-adv-x="993" d="M0 0v993h993v-993h-993z" />
</font>
</defs>
</svg>
