<?xml version="1.0" standalone="no"?>
<!DOCTYPE svg PUBLIC "-//W3C//DTD SVG 1.1//EN" "http://www.w3.org/Graphics/SVG/1.1/DTD/svg11.dtd" >
<svg xmlns="http://www.w3.org/2000/svg" xmlns:xlink="http://www.w3.org/1999/xlink" version="1.1">
<metadata></metadata>
<defs>
<font id="sintesi_sansthin" horiz-adv-x="1236" >
<font-face units-per-em="2048" ascent="1638" descent="-410" />
<missing-glyph horiz-adv-x="524" />
<glyph unicode="&#xfb01;" horiz-adv-x="1128" d="M55 897v96h133q1 128 24.5 227.5t61.5 162t92 102.5t110.5 55.5t121.5 15.5q90 0 174.5 -34.5t136.5 -89.5h31v-279h-115v223q-42 37 -103.5 59.5t-125.5 22.5q-68 1 -120 -25t-85 -69t-54 -105t-30 -126.5t-10 -139.5h276v-96h-276v-897h-109v897h-133zM827 0v993h113 v-993h-113z" />
<glyph unicode="&#xfb02;" horiz-adv-x="1126" d="M55 897v96h133q1 128 24.5 227.5t61.5 162t92 102.5t110.5 55.5t121.5 15.5q81 0 158 -28.5t131 -75.5l51 29v-1481h-111v1374q-41 38 -104 61t-127 23q-68 1 -120 -25t-85 -69t-54 -105t-30 -126.5t-10 -139.5h276v-96h-276v-897h-109v897h-133z" />
<glyph unicode="&#xfb03;" horiz-adv-x="1701" d="M55 897v96h133q1 128 24.5 227.5t61.5 162t92 102.5t110.5 55.5t121.5 15.5q85 0 164.5 -30t132.5 -80q104 110 276 110q91 0 175.5 -34.5t136.5 -89.5h28v-279h-112v223q-42 37 -104 59.5t-126 22.5q-68 1 -120 -25t-85 -69t-54 -105t-30 -126.5t-10 -139.5h277v-96 h-277v-897h-108v897h-133v96h133q0 232 76 371q-42 42 -108 68t-134 26q-68 1 -120 -25t-85 -69t-54 -105t-30 -126.5t-10 -139.5h276v-96h-276v-897h-109v897h-133zM1401 0v993h112v-993h-112z" />
<glyph unicode="&#xfb04;" horiz-adv-x="1699" d="M55 897v96h133q1 128 24.5 227.5t61.5 162t92 102.5t110.5 55.5t121.5 15.5q85 0 164.5 -30t132.5 -80q104 110 276 110q81 0 158 -28.5t131 -75.5l51 29v-1481h-110v1374q-41 38 -104.5 61t-127.5 23q-68 1 -120 -25t-85 -69t-54 -105t-30 -126.5t-10 -139.5h277v-96 h-277v-897h-108v897h-133v96h133q0 232 76 371q-42 42 -108 68t-134 26q-68 1 -120 -25t-85 -69t-54 -105t-30 -126.5t-10 -139.5h276v-96h-276v-897h-109v897h-133z" />
<glyph horiz-adv-x="524" />
<glyph horiz-adv-x="524" />
<glyph horiz-adv-x="682" />
<glyph unicode="&#xd;" horiz-adv-x="524" />
<glyph unicode=" "  horiz-adv-x="524" />
<glyph unicode="&#x09;" horiz-adv-x="524" />
<glyph unicode="&#xa0;" horiz-adv-x="524" />
<glyph unicode="!" horiz-adv-x="616" d="M317 -8v205h111v-205h-111zM317 328v1120l111 59v-1179h-111z" />
<glyph unicode="&#x22;" horiz-adv-x="903" d="M236 854v567h102v-567h-102zM578 854v567h102v-567h-102z" />
<glyph unicode="#" d="M53 348v94h262v502h-262v94h262v367h99v-367h426v367h98v-367h252v-94h-252v-502h252v-94h-252v-348h-98v348h-426v-348h-99v348h-262zM414 442h426v502h-426v-502z" />
<glyph unicode="$" d="M125 276l96 37q27 -64 73.5 -112.5t100 -75t104.5 -39t99 -12.5q107 0 199.5 28.5t155.5 91.5t63 150q0 50 -21 95t-52 78t-83.5 67t-97 56t-111.5 52q-24 11 -68.5 29.5t-70 29.5t-65.5 29.5t-64 32t-56.5 34t-52 38.5t-41.5 42.5t-33.5 49t-19.5 54.5t-8 63 q0 85 36.5 152t100.5 108.5t141.5 65t167.5 28.5l13 203l112 -11l-12 -194q134 -13 243.5 -87.5t155.5 -197.5l-94 -35q-51 116 -147.5 172t-210.5 56q-75 0 -142.5 -14t-125.5 -43t-92.5 -81t-34.5 -120q0 -42 25 -81.5t60.5 -67.5t87.5 -56t94 -45t93.5 -37t71.5 -29 q72 -32 124.5 -60t109.5 -68.5t92.5 -83t59 -100.5t23.5 -124q0 -91 -46 -163t-122.5 -115.5t-168 -66t-189.5 -22.5h-2l-18 -198l-113 10l18 201q-122 23 -218 96t-140 190z" />
<glyph unicode="%" horiz-adv-x="2004" d="M123 995q0 208 92 323.5t264 115.5q170 0 262.5 -116t92.5 -323q0 -205 -92 -319.5t-263 -114.5q-173 0 -264.5 114t-91.5 320zM217 995q0 -173 67 -264.5t195 -91.5q125 0 192.5 91.5t67.5 264.5q0 174 -67 267.5t-193 93.5q-127 0 -194.5 -93.5t-67.5 -267.5zM492 -66 l956 1514h102l-954 -1514h-104zM1198 356q0 208 92 323.5t264 115.5q170 0 262.5 -116t92.5 -323q0 -205 -92 -319.5t-263 -114.5q-173 0 -264.5 114t-91.5 320zM1292 356q0 -173 67 -264.5t195 -91.5q125 0 193 92t68 264q0 174 -67.5 267.5t-193.5 93.5 q-127 0 -194.5 -93.5t-67.5 -267.5z" />
<glyph unicode="&#x26;" horiz-adv-x="1337" d="M76 346q0 66 23.5 127t68.5 114.5t96 98t119 90.5q-14 17 -48 58.5t-48.5 60t-39 54.5t-35 60.5t-19.5 58.5t-9 67q0 126 104.5 214.5t248.5 88.5q124 0 220.5 -82t96.5 -203q0 -103 -83.5 -198.5t-235.5 -194.5l413 -469q65 110 85 242.5t-13 263.5l96 20 q41 -175 14 -328.5t-112 -275.5l188 -213h-137l-119 133q-163 -166 -389 -166t-355.5 104.5t-129.5 274.5zM180 350q0 -59 22.5 -108t60.5 -82t88.5 -55.5t105.5 -33t112 -10.5q183 0 316 146l-439 495q-125 -80 -195.5 -165.5t-70.5 -186.5zM293 1133q0 -32 9 -63 t30.5 -64.5t37.5 -54.5t50.5 -62t48.5 -58q281 183 281 318q0 79 -66 135.5t-147 56.5q-91 0 -167.5 -57t-76.5 -151z" />
<glyph unicode="'" horiz-adv-x="565" d="M236 854v567h102v-567h-102z" />
<glyph unicode="(" horiz-adv-x="620" d="M143 592q0 92 1 156.5t5 148t11.5 142t20.5 126.5t32 114.5t46.5 93t63 75t83 47t104.5 21.5l8 -86q-49 -6 -87.5 -25.5t-65.5 -59t-47 -75.5t-31.5 -104t-18.5 -113.5t-10 -134t-3.5 -136.5t-0.5 -148v-42v-34q0 -99 0.5 -149t3.5 -137.5t10 -135t19 -114.5t31.5 -104 t46.5 -76.5t65.5 -58.5t87.5 -25l-8 -90q-57 3 -104.5 22t-83 47t-63 74.5t-46.5 93t-32 115t-20.5 127t-11.5 142t-5 147.5t-1 156z" />
<glyph unicode=")" horiz-adv-x="620" d="M104 -242q49 6 87.5 25.5t66 59t47 76.5t31.5 104.5t19 114.5t10 136t3.5 138.5t0.5 149.5v30q0 317 -11 435q-27 271 -139 357q-49 38 -115 46l9 86q73 -4 130 -33.5t95.5 -73t65.5 -117.5t41.5 -142t22 -172.5t9.5 -184.5t2 -201q0 -120 -2 -200t-9.5 -184.5t-22 -173 t-41.5 -142t-65 -117t-95.5 -73.5t-130.5 -34z" />
<glyph unicode="*" horiz-adv-x="964" d="M96 1108l31 88l315 -111l4 2l-8 334h92l-6 -336q4 0 4 -4l312 113l28 -86l-317 -98v-6l197 -263l-72 -53l-193 270h-4l-188 -270l-74 53l203 263q0 1 -1 2t-1 2z" />
<glyph unicode="+" d="M195 434v98h372v377h107v-377h373v-98h-373v-375h-107v375h-372z" />
<glyph unicode="," horiz-adv-x="458" d="M197 -203q36 27 63 81t27 122h-39v203h108q21 -72 21 -170q0 -182 -125 -293z" />
<glyph unicode="-" horiz-adv-x="954" d="M178 436v101h596v-101h-596z" />
<glyph unicode="." horiz-adv-x="505" d="M260 0v203h115v-203h-115z" />
<glyph unicode="/" horiz-adv-x="911" d="M233 -33l447 1487h108l-444 -1487h-111z" />
<glyph unicode="0" horiz-adv-x="1284" d="M133 705q-1 171 29.5 306.5t92.5 233t160 149.5t228 52t228 -51.5t159.5 -149.5t92 -233t30.5 -307q0 -349 -127.5 -542.5t-382.5 -193.5q-259 0 -384.5 192.5t-125.5 543.5zM244 705q0 -308 99 -473.5t300 -165.5q198 0 298.5 166.5t100.5 472.5q0 309 -99 477t-300 168 t-300 -168t-99 -477z" />
<glyph unicode="1" horiz-adv-x="786" d="M12 1266l523 190v-1456h-111v1313h-6l-389 -144z" />
<glyph unicode="2" horiz-adv-x="1210" d="M160 51q49 100 114 195t139 175.5t133 136.5t130 116q153 134 202 189q99 110 99 212q0 62 -20.5 111t-53.5 79.5t-79.5 50.5t-94.5 28t-102 8q-75 0 -144.5 -22.5t-132 -80t-88.5 -141.5l-98 29q21 80 71 142t115.5 97.5t135.5 53.5t141 18t134 -10.5t123.5 -37.5 t104 -68t70 -106.5t26.5 -148.5q0 -53 -16.5 -103t-40 -89.5t-65 -84.5t-77.5 -77.5t-90 -79.5q-24 -20 -36 -31q-90 -78 -154 -139t-150.5 -163.5t-144.5 -203.5v-6h766v-100h-880z" />
<glyph unicode="3" horiz-adv-x="1181" d="M106 264l101 35q43 -112 141 -171.5t209 -59.5q175 0 286 79.5t111 227.5q0 152 -132 238.5t-347 86.5v95q216 0 332.5 80.5t116.5 211.5q0 91 -52 154.5t-131.5 91t-177.5 27.5q-44 0 -91.5 -11.5t-99 -36.5t-96 -72.5t-69.5 -111.5l-96 33q30 85 87 147t124.5 92 t127 43t115.5 13q132 0 236 -40t168.5 -125t64.5 -204q0 -120 -83 -215.5t-234 -119.5v-4q155 -26 251.5 -130.5t96.5 -242.5q0 -190 -140 -297t-366 -107q-150 0 -273.5 74.5t-179.5 218.5z" />
<glyph unicode="4" horiz-adv-x="1093" d="M78 350l393 1067l117 19l-381 -1035v-6h434v219l111 21v-240h295v-96h-295v-299h-111v299h-526z" />
<glyph unicode="5" horiz-adv-x="1183" d="M137 268l94 33q42 -115 132.5 -174t209.5 -59q117 0 204.5 56.5t131 146.5t43.5 198q0 103 -32.5 181.5t-87.5 122.5t-118.5 65.5t-133.5 21.5q-88 0 -181 -45t-172 -141l-82 35v712h834v-100h-725v-496h4q67 64 156.5 98.5t181.5 34.5q71 0 137 -17.5t126 -56.5 t104.5 -95t71 -138.5t26.5 -181.5q0 -101 -32.5 -191t-93 -159t-154.5 -109.5t-210 -40.5q-151 0 -267 77t-167 222z" />
<glyph unicode="6" horiz-adv-x="1243" d="M127 643q0 84 5 157.5t19.5 157.5t38 152t64.5 132.5t95 108.5t133 70.5t175 26.5q144 0 255 -70.5t161 -212.5l-96 -32q-27 65 -67 111t-85.5 68t-85 31t-80.5 9q-117 0 -200.5 -49.5t-130.5 -143t-68 -211t-22 -270.5h4q43 87 155 156t228 69q205 0 333.5 -130 t128.5 -337q0 -137 -65.5 -245t-173 -165t-234.5 -57q-239 0 -363 161.5t-124 512.5zM248 494q0 -84 21.5 -158t64.5 -136t117.5 -98t171.5 -36q141 0 247.5 102.5t106.5 263.5q0 162 -98 267.5t-261 105.5q-70 0 -140 -32t-119.5 -79.5t-80 -101.5t-30.5 -98z" />
<glyph unicode="7" horiz-adv-x="1067" d="M63 1321v100h871l35 -47l-570 -1374h-118l550 1315v6h-768z" />
<glyph unicode="8" horiz-adv-x="1249" d="M152 391q0 78 26 147t68.5 115.5t91 77.5t98.5 43v4q-99 31 -164 117.5t-65 214.5q0 106 59 184.5t153 117t208 38.5q175 0 295 -91t120 -249q0 -126 -65 -211t-162 -117v-6q51 -13 99.5 -43.5t91 -77.5t68.5 -116t26 -148q0 -57 -16 -114t-52.5 -113t-89.5 -99 t-134 -69.5t-179 -26.5q-124 0 -220 39.5t-150 103.5t-80.5 135t-26.5 144zM266 393q0 -62 22 -119t64.5 -104t114 -75.5t162.5 -28.5q161 0 259.5 93.5t98.5 233.5t-95.5 236t-262.5 96q-173 0 -268 -95t-95 -237zM315 1098q0 -122 86 -198.5t228 -76.5q129 0 216 72 t87 203q0 124 -83 190t-220 66q-136 0 -225 -67t-89 -189z" />
<glyph unicode="9" horiz-adv-x="1243" d="M131 981q0 137 65.5 245t173 165t234.5 57q239 0 363.5 -161.5t124.5 -512.5q0 -84 -5 -157.5t-19.5 -157.5t-38.5 -152t-65 -132.5t-95 -108.5t-133 -70.5t-175 -26.5q-144 0 -255 70.5t-161 212.5l97 33q27 -65 67 -111t85 -68t84.5 -31t80.5 -9q117 0 200.5 49.5 t131 142.5t68.5 210.5t22 270.5h-4q-43 -87 -155 -156t-228 -69q-205 0 -334 130t-129 337zM242 985q0 -162 97.5 -267.5t260.5 -105.5q70 0 140.5 32.5t119.5 80t80 101.5t31 98q0 84 -21.5 158t-64.5 136t-117.5 98t-171.5 36q-141 0 -247.5 -103t-106.5 -264z" />
<glyph unicode=":" horiz-adv-x="532" d="M342 0v203h115v-203h-115zM342 788v203h115v-203h-115z" />
<glyph unicode=";" horiz-adv-x="536" d="M283 -203q36 27 63 81t27 122h-39v203h108q21 -72 21 -170q0 -182 -125 -293zM334 788v203h115v-203h-115z" />
<glyph unicode="&#x3c;" d="M195 436v107l854 493v-112l-740 -430v-7l740 -430v-114z" />
<glyph unicode="=" d="M197 205v100h850v-100h-850zM197 668v98h850v-98h-850z" />
<glyph unicode="&#x3e;" d="M190 -57v114l740 430v7l-740 430v112l854 -493v-107z" />
<glyph unicode="?" horiz-adv-x="1058" d="M76 1163q57 152 186 226.5t295 74.5q81 0 155 -19.5t137.5 -58.5t101.5 -107.5t38 -158.5q0 -64 -29 -121.5t-75 -101.5t-101.5 -84.5t-111 -77.5t-101.5 -72.5t-75 -76.5t-29 -84q0 -52 29 -82.5t88 -30.5q27 0 65.5 18t55.5 52l77 -56q-26 -53 -91 -83.5t-111 -30.5 q-110 0 -164 57.5t-54 155.5q0 55 28.5 106.5t74 92t101 80t110.5 77.5t100.5 77t74 86.5t28.5 98.5q0 56 -20 100t-52.5 71t-76 45t-86.5 25t-89 7q-58 0 -106 -9t-100.5 -32.5t-98.5 -72.5t-80 -121zM502 -20v202h114v-202h-114z" />
<glyph unicode="@" horiz-adv-x="2050" d="M84 408q0 235 66 431.5t190 338t311.5 220.5t419.5 79q181 0 347.5 -68t286 -181.5t190.5 -268.5t71 -322q0 -84 -21.5 -176.5t-65 -181.5t-103 -160.5t-144 -115.5t-178.5 -44q-48 0 -103.5 18.5t-93.5 59.5l27 352h-4q-32 -89 -73 -161t-94 -131t-121.5 -91.5 t-145.5 -32.5q-52 0 -98 11.5t-94 43.5t-81.5 82.5t-55 136t-21.5 197.5q0 84 18.5 165.5t59 158t98.5 134.5t144.5 93t189.5 35q198 0 303 -131h6l16 94h103l-62 -907q39 -27 96 -27q88 0 164.5 57.5t124.5 145.5t75.5 187t27.5 188q0 149 -64 287t-171 237.5t-252.5 159 t-301.5 59.5q-169 0 -310.5 -46.5t-246.5 -132t-178 -205.5t-109.5 -268.5t-36.5 -319.5q0 -143 49.5 -272.5t133 -225t190 -166t224 -106t231.5 -35.5q296 0 567 182l57 -80q-291 -201 -630 -201q-107 0 -217 28.5t-213 81t-193.5 133t-158.5 178t-107 222.5t-39 261z M604 430q0 -168 67.5 -261t190.5 -93q22 0 46.5 5.5t61 23.5t70.5 47.5t73 82.5t72.5 122.5t65 174t52.5 230.5q-49 90 -134.5 130t-167.5 40q-83 0 -151 -29.5t-113 -79t-75.5 -115t-44 -135.5t-13.5 -143z" />
<glyph unicode="A" horiz-adv-x="1265" d="M66 0l518 1421h108l506 -1421h-117l-116 322h-666l-117 -322h-116zM328 422h610l-297 835h-6z" />
<glyph unicode="B" horiz-adv-x="1300" d="M201 0v1421h434q256 0 372.5 -93t116.5 -269q0 -121 -68 -205t-190 -113v-6q164 -19 255 -116.5t91 -249.5q0 -177 -123 -273t-350 -96h-538zM311 96h430q180 0 270.5 72.5t90.5 206.5q0 70 -24 124.5t-63 88.5t-94 55.5t-111.5 30t-119.5 8.5h-379v-586zM311 778h332 q95 0 177.5 27.5t140 91.5t57.5 156q0 137 -88.5 204.5t-296.5 67.5h-322v-547z" />
<glyph unicode="C" horiz-adv-x="1384" d="M137 727q0 111 20.5 213t68 196.5t117 163.5t175.5 110.5t236 41.5q387 0 514 -313q-9 -2 -49.5 -15.5t-49.5 -15.5q-111 246 -415 246q-108 0 -195 -36.5t-144 -97t-95.5 -142.5t-55 -169.5t-16.5 -181.5q0 -111 15.5 -205.5t52.5 -179t94 -144t144.5 -94t199.5 -34.5 q93 0 176 26.5t153.5 88t104.5 149.5l98 -29q-45 -154 -192.5 -245t-339.5 -91q-136 0 -242.5 39.5t-176 108t-115 166t-64.5 207t-19 237.5z" />
<glyph unicode="D" horiz-adv-x="1404" d="M201 0v1421h362q121 0 223 -22.5t175 -61.5t130 -94.5t93 -117.5t59 -135t32 -142t9 -143q0 -110 -20.5 -208t-71 -190.5t-126.5 -159.5t-195.5 -107t-270.5 -40h-399zM311 96h291q127 0 227 34.5t163 92t104.5 137.5t58 164.5t16.5 180.5q0 65 -7 125t-26 123.5 t-48.5 116.5t-77 101t-109 81.5t-148 53t-190.5 19.5h-254v-1229z" />
<glyph unicode="E" horiz-adv-x="1282" d="M201 0v1421h913v-96h-803v-551h639v-96h-639v-582h803v-96h-913z" />
<glyph unicode="F" horiz-adv-x="1173" d="M201 0v1421h882v-96h-772v-551h611v-96h-611v-678h-110z" />
<glyph unicode="G" horiz-adv-x="1384" d="M113 725q0 113 23 217t73 197.5t122.5 162t178.5 108.5t235 40q76 0 146 -13.5t142 -44t131.5 -90.5t95.5 -143l-95 -41q-38 75 -90 125t-112.5 72.5t-110 30.5t-107.5 8q-165 0 -284 -83t-177.5 -224t-58.5 -322q0 -115 15.5 -209t54 -178.5t99 -142.5t154.5 -91.5 t216 -33.5q79 0 181 27t179 79v502h-307v96h418v-653q-95 -70 -228.5 -110t-240.5 -40q-147 0 -261 38.5t-187 105t-120 163.5t-66 206t-19 241z" />
<glyph unicode="H" horiz-adv-x="1366" d="M201 0v1421h110v-647h744v647h110v-1421h-110v678h-744v-678h-110z" />
<glyph unicode="I" horiz-adv-x="514" d="M201 0v1421h110v-1421h-110z" />
<glyph unicode="J" horiz-adv-x="512" d="M6 -418q116 66 155.5 171.5t39.5 287.5v1380h110v-1380q0 -103 -10.5 -178t-37.5 -145t-77.5 -124t-128.5 -96z" />
<glyph unicode="K" horiz-adv-x="1263" d="M199 0v1421h112v-1421h-112zM362 715l685 725l79 -66l-626 -653v-4l698 -717h-143z" />
<glyph unicode="L" horiz-adv-x="1134" d="M201 0v1421h110v-1325h762v-96h-872z" />
<glyph unicode="M" horiz-adv-x="1710" d="M201 0v1421h127l536 -1155h6l506 1155h133v-1421h-106v1210h-4l-494 -1120h-74l-520 1120h-4v-1210h-106z" />
<glyph unicode="N" horiz-adv-x="1404" d="M201 0v1421h112l781 -1214h4v1214h106v-1421h-112l-779 1214h-6v-1214h-106z" />
<glyph unicode="O" horiz-adv-x="1423" d="M121 702q0 122 19.5 229t64.5 203.5t112.5 165.5t168.5 109.5t227 40.5q129 0 230.5 -40t168.5 -108t110.5 -164.5t62 -204t18.5 -231.5t-19 -230t-63.5 -199.5t-112 -159.5t-169 -104t-230.5 -38q-130 0 -231.5 37t-168 101.5t-109.5 158.5t-61 200.5t-18 233.5z M236 702q0 -634 473 -634q104 0 186.5 32.5t137 89.5t90.5 138t51.5 173.5t15.5 200.5q0 109 -15 202.5t-50 177.5t-89 143.5t-136.5 94t-186.5 34.5q-102 0 -183.5 -35t-136 -94.5t-90.5 -143.5t-51.5 -178t-15.5 -201z" />
<glyph unicode="P" horiz-adv-x="1212" d="M201 0v1421h405q97 0 175.5 -11.5t151 -41.5t121.5 -78.5t78 -126.5t29 -182q0 -438 -555 -438h-293v-543h-112zM311 639h289q72 0 130 7t120 29.5t103.5 59t68.5 100t27 148.5q0 87 -27 151t-68.5 100t-104 57t-120 27.5t-131.5 6.5h-287v-686z" />
<glyph unicode="Q" horiz-adv-x="1425" d="M121 702q0 122 19.5 229t64.5 203.5t112.5 165.5t168.5 109.5t227 40.5q129 0 230.5 -40t168.5 -108t110.5 -164.5t62 -204t18.5 -231.5t-19 -230t-63.5 -199.5t-112 -159.5t-169 -104t-230.5 -38q-130 0 -231.5 37t-168 101.5t-109.5 158.5t-61 200.5t-18 233.5z M236 702q0 -634 473 -634q104 0 186.5 32.5t137 89.5t90.5 138t51.5 173.5t15.5 200.5q0 109 -15 202.5t-50 177.5t-89 143.5t-136.5 94t-186.5 34.5q-102 0 -183.5 -35t-136 -94.5t-90.5 -143.5t-51.5 -178t-15.5 -201zM627 -250l499 -4v-100h-499v104z" />
<glyph unicode="R" d="M201 0v1421h377q86 0 161 -11t150 -40.5t128.5 -76t86.5 -122.5t33 -174q0 -70 -20 -128.5t-54 -99t-80.5 -73t-98.5 -48.5q-53 -16 -109 -28q-52 -11 -101 -11h-9q-54 1 -104 5v-4l582 -610h-135l-596 618l34 95q47 -9 97 -14q36 -4 75 -4q16 0 32 1q58 2 110 11.5 t100.5 32t84 55.5t56.5 84.5t21 117.5q0 77 -27 136.5t-69.5 95t-102.5 58t-119 30.5t-126 8h-267v-1325h-110z" />
<glyph unicode="S" horiz-adv-x="1269" d="M129 276l96 37q27 -64 73.5 -112.5t100 -75t104.5 -39t99 -12.5q107 0 199.5 28.5t155.5 91.5t63 150q0 50 -21 95t-52 78t-83.5 67t-97 56t-111.5 52q-24 11 -68.5 29.5t-70 29.5t-65.5 29.5t-64 32t-56.5 34t-52 38.5t-41.5 42.5t-33.5 49t-19.5 54.5t-8 63 q0 74 28.5 135t77 101.5t114 68t137 39.5t149.5 12q151 0 276.5 -76.5t176.5 -212.5l-95 -35q-51 116 -147.5 172t-210.5 56q-75 0 -142.5 -14t-125.5 -43t-92.5 -81t-34.5 -120q0 -42 25 -81.5t60.5 -67.5t87.5 -56t94 -45t93.5 -37t71.5 -29q72 -32 124.5 -60t109.5 -68.5 t92.5 -83t59 -100.5t23.5 -124q0 -91 -46 -163t-122.5 -115.5t-168 -66t-189.5 -22.5h-8q-149 1 -277 77q-132 78 -188 222z" />
<glyph unicode="T" horiz-adv-x="1079" d="M57 1321v100h965v-100h-428v-1321h-111v1321h-426z" />
<glyph unicode="U" horiz-adv-x="1314" d="M182 463v958h111v-958q0 -101 35 -179t92 -122.5t123 -67t135 -22.5q62 0 121.5 23t110.5 68t82.5 121.5t31.5 172.5v964h109v-964q0 -119 -40 -214t-106.5 -152.5t-145.5 -87.5t-163 -30q-73 0 -142.5 17.5t-134 56.5t-113 94.5t-77.5 138.5t-29 183z" />
<glyph unicode="V" horiz-adv-x="1204" d="M68 1421h116l428 -1239h4l406 1239h115l-469 -1421h-111z" />
<glyph unicode="W" horiz-adv-x="1708" d="M76 1421h112l318 -1253h4l274 1120h144l286 -1122h7l303 1255h108l-346 -1421h-137l-291 1147h-4l-281 -1147h-137z" />
<glyph unicode="X" horiz-adv-x="1175" d="M57 1421h129l406 -620h4l399 620h119l-461 -714l461 -707h-127l-403 618h-4l-404 -618h-117l465 709z" />
<glyph unicode="Y" horiz-adv-x="1132" d="M66 1419h118l396 -854h4l366 854l117 2l-403 -923q-27 -69 -27 -123v-375h-113v371q0 63 -26 116z" />
<glyph unicode="Z" horiz-adv-x="1230" d="M102 57l873 1258v6h-821v100h938l38 -57l-870 -1258v-6h854v-100h-975z" />
<glyph unicode="[" horiz-adv-x="583" d="M164 -330v1866h321v-96h-211v-1673h211v-97h-321z" />
<glyph unicode="\" horiz-adv-x="960" d="M197 1454h108l447 -1487h-111z" />
<glyph unicode="]" horiz-adv-x="585" d="M102 -233h211v1673h-211v96h322v-1866h-322v97z" />
<glyph unicode="^" horiz-adv-x="1142" d="M158 594l370 827h90l365 -827h-111l-297 688h-4l-301 -688h-112z" />
<glyph unicode="_" horiz-adv-x="1214" d="M195 -133h852v-96h-852v96z" />
<glyph unicode="`" horiz-adv-x="925" d="M338 1614h111q0 -95 91 -199t251 -190l-39 -86q-199 94 -307 218t-107 257z" />
<glyph unicode="a" horiz-adv-x="1110" d="M109 840q87 115 191.5 153.5t242.5 38.5q395 0 395 -409v-623h-94l-15 113h-6q-56 -45 -160.5 -90.5t-209.5 -45.5q-63 0 -119.5 14t-106 44t-79 84.5t-29.5 128.5q0 82 27.5 139.5t75 89t106.5 51t127.5 34t132 30.5t126.5 47t105 76q-5 60 -32 105t-68 70t-85 36.5 t-91 11.5q-118 0 -197 -32.5t-153 -125.5zM225 254q0 -48 20 -84t54 -56.5t75 -30t89 -9.5q170 0 368 157v375h-4q-43 -42 -109 -70t-130 -39.5t-131 -28t-117.5 -36.5t-82.5 -65t-32 -113z" />
<glyph unicode="b" horiz-adv-x="1193" d="M188 0v1421l111 60v-590h4q57 64 143 101.5t177 37.5q197 0 332 -144.5t135 -391.5q0 -123 -38.5 -223t-104.5 -163t-150.5 -97t-178.5 -34q-90 0 -174.5 35t-138.5 99h-6l-14 -111h-97zM299 242q55 -85 140.5 -125.5t162.5 -40.5q75 0 142 27.5t120 78.5t84 131.5 t31 180.5q0 198 -110 318t-263 120q-77 0 -164 -42t-143 -128v-520z" />
<glyph unicode="c" horiz-adv-x="1138" d="M104 500q0 109 30 203t88.5 166.5t153.5 114.5t216 42q144 0 258.5 -65.5t163.5 -188.5l-99 -33q-28 68 -83.5 112.5t-114.5 61.5t-123 17q-94 0 -167.5 -35t-119 -95t-69 -136.5t-23.5 -163.5q0 -187 97 -306.5t282 -119.5q62 0 125 20.5t121 68t86 113.5l96 -36 q-51 -125 -176.5 -195t-253.5 -70q-97 0 -178 27.5t-137.5 75.5t-96 114t-58 143.5t-18.5 164.5z" />
<glyph unicode="d" horiz-adv-x="1193" d="M104 494q0 125 38 227.5t103 168.5t149.5 102t178.5 36q90 0 175 -36.5t143 -100.5h4v530l111 60v-1481h-97l-14 111h-6q-54 -64 -138.5 -99t-175.5 -35q-94 0 -178.5 34t-150 97t-104 163t-38.5 223zM215 494q0 -196 109.5 -307t267.5 -111q78 0 163.5 40t139.5 126v518 q-56 87 -143 129.5t-164 42.5q-153 0 -263 -120t-110 -318z" />
<glyph unicode="e" horiz-adv-x="1134" d="M104 510q0 80 18.5 155t57.5 141t94.5 114.5t135.5 77t174 28.5q78 0 142 -14.5t122.5 -52t97.5 -97t61 -154.5q19 -84 19 -190v-29h-815q3 -188 95.5 -301.5t260.5 -113.5q238 0 344 194l97 -39q-34 -72 -88.5 -124t-117 -79t-120.5 -39t-115 -12q-221 0 -342 148 t-121 387zM215 578h703q-3 103 -30.5 175t-76 110.5t-104 54.5t-125.5 16q-84 0 -151.5 -29.5t-111.5 -80t-70 -113t-34 -133.5z" />
<glyph unicode="f" horiz-adv-x="638" d="M55 897v96h133q1 128 24.5 227.5t61.5 162t92 102.5t110.5 55.5t121.5 15.5q92 0 176.5 -34.5t136.5 -91.5l-67 -72q-40 45 -108 72.5t-140 27.5h-5q-65 0 -115 -25q-52 -26 -85 -69t-54 -105t-30 -126.5t-10 -139.5h276v-96h-276v-897h-109v897h-133z" />
<glyph unicode="g" horiz-adv-x="1116" d="M86 -225q0 167 178 239q-149 59 -149 203q0 67 38.5 126.5t94.5 90.5q-109 95 -109 246v5q0 141 107 237q109 97 317 100q181 0 289 -78v236h104v-273l-24 -47q51 -77 51 -180q0 -69 -25.5 -129.5t-75.5 -108.5t-132 -76t-187 -28q-136 0 -231 45q-51 -24 -82 -69 q-31 -44 -31 -94q0 -160 254 -163q62 4 100 4q241 0 365.5 -73t124.5 -213q0 -142 -123 -217.5t-367 -75.5q-239 0 -363 76t-124 217zM195 -225q0 -100 95.5 -151.5t282.5 -51.5q383 0 383 203q0 196 -383 196q-378 0 -378 -196zM246 680q0 -111 79 -180.5t238 -69.5 q152 0 234 70.5t82 179.5q0 105 -82.5 177.5t-233.5 72.5q-153 0 -235 -72t-82 -178z" />
<glyph unicode="h" horiz-adv-x="1163" d="M188 0v1421l111 60v-609h4q55 81 147 119.5t189 38.5q150 0 252 -99.5t102 -277.5v-653h-110v610q0 143 -66 230.5t-203 87.5q-38 0 -78 -8.5t-83.5 -31.5t-76.5 -57.5t-55 -93t-22 -131.5v-606h-111z" />
<glyph unicode="i" horiz-adv-x="489" d="M188 0v993h113v-993h-113zM188 1225v205h113v-205h-113z" />
<glyph unicode="j" horiz-adv-x="489" d="M-6 -420q196 117 196 391v1022h111v-1022q0 -334 -254 -475zM188 1225v205h113v-205h-113z" />
<glyph unicode="k" horiz-adv-x="1062" d="M188 0v1421l111 60v-1481h-111zM338 555l539 475l67 -78l-457 -401v-6l529 -545h-137z" />
<glyph unicode="l" horiz-adv-x="487" d="M188 0v1421l111 60v-1481h-111z" />
<glyph unicode="m" horiz-adv-x="1736" d="M188 0v993h93l16 -121h4q103 158 299 158q104 0 183.5 -49.5t115.5 -144.5h4q30 68 83 113t111.5 63t125.5 18q148 0 246 -94.5t98 -271.5v-664h-113v616q0 312 -256 312q-38 0 -74 -9.5t-71 -33.5t-61 -59t-42 -91t-16 -125v-610h-111v616q0 70 -11.5 123.5t-39 97.5 t-77.5 67.5t-122 23.5q-46 0 -92 -18t-88.5 -54t-69 -101t-26.5 -149v-606h-109z" />
<glyph unicode="n" horiz-adv-x="1163" d="M188 0v993h95l14 -121h4q58 81 150 119.5t190 38.5q71 0 134 -24t112 -70t77.5 -118.5t28.5 -162.5v-655h-110v610q0 68 -14.5 123.5t-45 100t-83 69.5t-124.5 25q-38 0 -77.5 -8.5t-84 -31t-78.5 -57t-56.5 -93t-22.5 -132.5v-606h-109z" />
<glyph unicode="o" horiz-adv-x="1177" d="M104 500q0 148 55.5 266.5t168 190t264.5 71.5q153 0 263.5 -71.5t164 -189.5t53.5 -267q0 -151 -53.5 -268t-164 -187t-263.5 -70q-122 0 -216.5 40t-153 111.5t-88.5 166t-30 207.5zM215 500q0 -193 95 -310.5t282 -117.5q177 0 274 119t97 309q0 189 -97 310.5 t-274 121.5q-176 0 -276.5 -122t-100.5 -310z" />
<glyph unicode="p" horiz-adv-x="1191" d="M188 -475v1468h93l12 -114h6q53 66 141.5 108.5t175.5 42.5q197 0 334 -143t137 -377q0 -126 -37 -228t-101.5 -168t-150 -101.5t-182.5 -35.5q-89 0 -175.5 33.5t-137.5 93.5h-4v-579h-111zM299 231q62 -84 145 -119.5t160 -35.5q159 0 266 114t107 320 q0 185 -109 303.5t-264 118.5q-72 0 -156.5 -42.5t-148.5 -129.5v-529z" />
<glyph unicode="q" horiz-adv-x="1140" d="M104 510q0 118 38 217t102 164.5t149 102t180 36.5q87 0 177.5 -42.5t142.5 -108.5h6l12 114h93v-1468h-111v579h-4q-51 -59 -138 -93t-176 -34q-97 0 -182.5 35.5t-150 101.5t-101.5 168t-37 228zM215 510q0 -206 107 -320t266 -114q48 0 95.5 10.5t107 47.5t102.5 97 v529q-63 88 -148 130t-157 42q-155 0 -264 -118.5t-109 -303.5z" />
<glyph unicode="r" horiz-adv-x="800" d="M188 0v993h95l12 -131h4q27 49 62.5 84t73.5 52.5t71 24.5t67 7q155 0 252 -143l-71 -68q-45 59 -91 83t-108 24q-105 0 -181.5 -100t-76.5 -226v-600h-109z" />
<glyph unicode="s" horiz-adv-x="1019" d="M90 240l96 34q27 -67 82.5 -115t116 -68.5t121.5 -20.5q124 0 207.5 47.5t83.5 126.5q0 28 -11.5 54t-27.5 45t-45 37.5t-51.5 30t-60.5 25t-58.5 20t-57.5 17.5q-46 15 -74.5 25t-69 27t-65 32t-53 38t-44 47t-26 56.5t-10.5 69.5q0 127 100.5 195.5t272.5 68.5 q137 0 231 -52.5t156 -168.5l-92 -39q-56 94 -128.5 130t-168.5 36q-120 0 -192 -44t-72 -124q0 -31 14 -56.5t33 -43t56.5 -36t66 -29.5t80.5 -30q8 -3 13 -4.5t12.5 -4.5t13.5 -5q43 -13 66.5 -20.5t67.5 -24.5t71 -32.5t61 -41t53.5 -52.5t33 -64.5t13.5 -79.5 q0 -127 -117.5 -200t-283.5 -73q-85 0 -163.5 26.5t-147.5 88.5t-103 152z" />
<glyph unicode="t" horiz-adv-x="700" d="M39 897v96h149v428l109 60v-488h268v-96h-268v-653q0 -84 42.5 -123t98.5 -39q82 0 162 80l55 -70q-47 -52 -109 -81t-124 -29q-117 0 -175.5 73.5t-58.5 184.5v657h-149z" />
<glyph unicode="u" horiz-adv-x="1165" d="M170 344v649h113v-614q0 -141 64 -227t202 -86q37 0 76 8t83.5 31t78.5 58t56.5 95t22.5 137v598h111v-993h-94l-19 121h-4q-58 -79 -149.5 -118.5t-186.5 -39.5q-96 0 -175 41.5t-129 130t-50 209.5z" />
<glyph unicode="v" horiz-adv-x="999" d="M59 993h113l338 -868h6l313 868h111l-362 -993h-132z" />
<glyph unicode="w" horiz-adv-x="1564" d="M78 993h110l269 -864h6l256 813h131l256 -807h4l268 858h107l-307 -993h-134l-260 807h-4l-254 -807h-137z" />
<glyph unicode="x" horiz-adv-x="1034" d="M80 0l373 504l-363 489h129l311 -415h5l311 415h119l-373 -501l364 -492h-131l-311 416h-4l-311 -416h-119z" />
<glyph unicode="y" horiz-adv-x="991" d="M66 993h114l344 -817h4l295 817h111l-531 -1468h-104l160 463q4 24 4 40.5t-10 44t-18 46t-21 45.5t-19 43z" />
<glyph unicode="z" horiz-adv-x="1028" d="M88 61l678 830v6h-631v96h758l35 -59l-676 -832v-6h666v-96h-797z" />
<glyph unicode="{" horiz-adv-x="675" d="M55 553v90q160 0 160 213q0 43 -1 130t-1 130t1.5 77t6.5 76t14 74t25 64.5t38 53t54.5 33.5t73.5 13h68v-96h-64q-104 0 -104 -231q4 -270 4 -342q0 -87 -32 -154t-89 -80v-4q55 -18 87 -89t32 -157q0 -40 -2 -128.5t-2 -133.5q2 -163 19 -222q24 -85 87 -85h64v-96h-68 q-41 0 -73.5 13t-54.5 33.5t-38 53t-25 64.5t-14 74t-6.5 76t-1.5 77q0 46 1 130.5t1 131.5q0 101 -40 156t-120 55z" />
<glyph unicode="|" horiz-adv-x="749" d="M319 -57v1568h111v-1568h-111z" />
<glyph unicode="}" horiz-adv-x="692" d="M201 -215h63q19 0 34.5 7t26 23t18.5 30.5t13 43t8 46t4.5 53t1.5 51.5t1 53q0 45 -2 133.5t-2 128.5q0 86 31.5 157t86.5 89v4q-57 13 -88.5 80t-31.5 154q0 72 4 342q0 231 -105 231h-63v96h67q41 0 73.5 -13t54.5 -33.5t38 -53t25 -64.5t14 -74t6.5 -76t1.5 -77 t-1 -130t-1 -130q0 -213 160 -213v-90q-80 0 -120 -55t-40 -156q0 -47 1 -131.5t1 -130.5q0 -43 -1.5 -77t-6.5 -76t-14 -74t-25 -64.5t-38 -53t-54.5 -33.5t-73.5 -13h-67v96z" />
<glyph unicode="~" horiz-adv-x="1277" d="M217 516q40 45 105 77t118 32q46 0 100.5 -19t95.5 -42.5t87 -42.5t78 -19q64 0 99.5 21t80.5 73l70 -76q-53 -67 -108 -97t-134 -30q-42 0 -91 19.5t-87 43t-87.5 43t-92.5 19.5q-41 0 -89.5 -23.5t-82.5 -56.5z" />
<glyph unicode="&#xa1;" horiz-adv-x="755" d="M317 -522v1179h111v-1122zM317 791v202h111v-202h-111z" />
<glyph unicode="&#xa2;" d="M170 500q0 109 30 203t88.5 166.5t153 114.5t215.5 42q25 0 37 -2l31 174l106 -20l-30 -170q97 -26 169.5 -85.5t108.5 -150.5l-98 -33q-28 68 -83.5 112.5t-115 61.5t-123.5 17q-94 0 -167.5 -35t-118.5 -95t-68.5 -136.5t-23.5 -163.5q0 -187 96.5 -306.5t281.5 -119.5 q62 0 125 20.5t121 68t86 113.5l96 -36q-51 -125 -176.5 -195t-253.5 -70q-7 0 -21.5 1t-21.5 1l-30 -163l-107 20l29 160q-164 44 -250 181.5t-86 324.5z" />
<glyph unicode="&#xa3;" d="M160 608v97h237q-64 96 -109.5 194t-45.5 162q0 166 132 267.5t343 101.5q54 0 111 -14t117.5 -44.5t113 -88.5t82.5 -136l-97 -29q-28 62 -70.5 107t-89 67t-86.5 31.5t-77 9.5q-162 0 -263.5 -72.5t-101.5 -205.5q0 -59 38 -137.5t124 -212.5h543v-97h-492 q37 -58 59.5 -120.5t22.5 -104.5q0 -87 -62.5 -157t-166.5 -117v-5h659v-104h-884l-21 70q61 22 118.5 50t115.5 67t93.5 89t35.5 101q0 25 -2.5 41.5t-23.5 66.5t-64 123h-289z" />
<glyph unicode="&#xa4;" horiz-adv-x="1243" d="M207 823l76 74l120 -121q97 74 215 74q126 0 222 -80l125 125l69 -70l-127 -127q70 -96 70 -209q0 -118 -74 -215l133 -131l-73 -75l-136 131q-90 -68 -209 -68q-120 0 -210 68l-129 -129l-70 69l127 127q-80 96 -80 223q0 120 72 211zM362 489q0 -106 75 -181t181 -75 q103 0 177.5 75.5t74.5 180.5q0 107 -74.5 183t-177.5 76q-106 0 -181 -76t-75 -183z" />
<glyph unicode="&#xa5;" d="M121 1421h119l395 -856h4l369 856h114l-403 -929h332v-97h-357q-2 -12 -2 -182h359v-98h-359v-115h-110v115h-363v98h363q0 178 -2 182h-361v97h334z" />
<glyph unicode="&#xa6;" horiz-adv-x="731" d="M309 -57v632h111v-632h-111zM309 891v635h111v-635h-111z" />
<glyph unicode="&#xa7;" horiz-adv-x="1085" d="M174.5 817q46.5 186 212.5 303q-76 113 -96 156q-33 69 -33 133q0 51 23 100t61.5 86.5t92.5 60t112.5 25t125 -24t126.5 -81.5l-70 -66q-53 47 -108.5 66t-99.5 10.5t-79.5 -32.5t-54.5 -61.5t-18 -78.5q0 -79 61 -170l393 -571q256 -361 -127 -680q5 -8 24 -35 t24.5 -36.5t20.5 -33t20.5 -35t15.5 -32.5t13.5 -36.5t7 -34.5t3.5 -38q0 -62 -32 -120.5t-87.5 -96.5t-123 -54t-146.5 7t-149 86l65 78q53 -50 108.5 -69.5t100 -10.5t80 34.5t55 63.5t19.5 78q0 42 -18.5 86t-67.5 113l-396 571q-105 154 -58.5 340zM268.5 669.5 q9.5 -72.5 55.5 -139.5l313 -454q88 70 135.5 150.5t45 176.5t-65.5 189l-303 444q-59 -48 -101.5 -105.5t-65.5 -123t-13.5 -138z" />
<glyph unicode="&#xa8;" horiz-adv-x="1107" d="M258 1276v205h113v-205h-113zM733 1276v205h113v-205h-113z" />
<glyph unicode="&#xa9;" horiz-adv-x="1861" d="M117 694q0 219 107.5 408.5t295.5 302.5t412 113q167 0 318.5 -66.5t259.5 -178.5t171.5 -263.5t63.5 -315.5q0 -166 -63.5 -317.5t-171.5 -262.5t-259.5 -177t-318.5 -66q-168 0 -319.5 66t-260 177t-172 262.5t-63.5 317.5zM203 694q0 -201 96 -371.5t264 -271 t369 -100.5q149 0 284 59.5t232 159.5t154 237t57 287q0 148 -57 285t-153.5 238t-232 161t-284.5 60q-150 0 -286 -60t-232.5 -161t-153.5 -238t-57 -285zM449 700q0 98 30 187.5t87 163t152 117.5t214 44q133 0 252.5 -66.5t156.5 -170.5l-84 -27q-23 52 -62.5 89 t-86 55.5t-89 26t-87.5 7.5q-98 0 -175 -35.5t-123 -96.5t-69.5 -135.5t-23.5 -158.5q0 -202 101 -322t308 -120q101 0 195.5 48t128.5 140l84 -26q-22 -75 -92 -134t-153.5 -87.5t-162.5 -28.5q-128 0 -225.5 41t-157 114.5t-89 167.5t-29.5 207z" />
<glyph unicode="&#xaa;" horiz-adv-x="917" d="M94 1286q53 78 156.5 118t210.5 40q51 0 91 -6.5t83.5 -28t72 -57.5t47.5 -100t19 -150v-518h-84l-10 94h-4q-1 -1 -13.5 -9t-24 -15t-32 -18.5t-40 -20.5t-45.5 -19t-51 -17t-54 -11.5t-56 -4.5q-48 0 -91 11t-82 36t-62 72t-23 111q0 63 31.5 110t80 73.5t112.5 51 t124.5 43.5t121 51.5t96.5 73.5q-8 45 -25.5 77.5t-37 49t-48.5 25.5t-49 10.5t-49 1.5q-85 0 -165 -31t-132 -96zM197 793q0 -55 28 -89.5t64.5 -45.5t81.5 -11q123 0 309 131l-2 320h-4q-44 -36 -112.5 -66.5t-128 -50.5t-115.5 -44t-88.5 -59.5t-32.5 -84.5z" />
<glyph unicode="&#xab;" horiz-adv-x="1179" d="M168 469v78l426 407v-127l-324 -317v-4l324 -324v-125zM586 469v78l426 407v-127l-324 -317v-4l324 -324v-125z" />
<glyph unicode="&#xac;" d="M195 643v100h852v-544h-107v444h-745z" />
<glyph unicode="&#xad;" horiz-adv-x="1705" />
<glyph unicode="&#xae;" horiz-adv-x="1304" d="M123 973q0 145 71.5 269.5t194 197.5t266.5 73q145 0 269 -73t196 -197.5t72 -269.5q0 -109 -42.5 -208.5t-115 -171.5t-171.5 -114.5t-208 -42.5q-144 0 -266.5 71.5t-194 195.5t-71.5 270zM201 973q0 -191 133.5 -327t320.5 -136q124 0 230 62.5t167.5 169t61.5 231.5 q0 126 -61.5 233.5t-167.5 170.5t-230 63q-187 0 -320.5 -137.5t-133.5 -329.5zM422 641v672h225q39 0 73.5 -4.5t72.5 -18t65 -36t44.5 -61.5t17.5 -91q0 -44 -14 -76.5t-36.5 -51.5t-58 -30.5t-69.5 -16t-80 -5.5v-4l247 -277h-104l-279 305l15 49q52 -9 96.5 -11t93.5 5 t78 36t29 79q0 135 -191 135h-143v-598h-82z" />
<glyph unicode="&#xaf;" horiz-adv-x="1103" d="M203 1280v104h704v-104h-704z" />
<glyph unicode="&#xb0;" horiz-adv-x="964" d="M207 1083q0 141 98.5 239.5t239.5 98.5q142 0 241 -98.5t99 -239.5t-98.5 -238t-241.5 -97q-141 0 -239.5 97t-98.5 238zM295 1083q0 -106 72.5 -181t177.5 -75q106 0 180 75t74 181t-74.5 182t-179.5 76t-177.5 -75.5t-72.5 -182.5z" />
<glyph unicode="&#xb1;" d="M195 575v97h372v372h107v-372h373v-97h-373v-370h-107v370h-372zM197 0v96h850v-96h-850z" />
<glyph unicode="&#xb2;" horiz-adv-x="864" d="M102 1225q29 105 119 161t205 56q47 0 89 -5.5t86 -21.5t75.5 -41t51.5 -67.5t20 -98.5q0 -59 -33.5 -109.5t-91 -95.5t-120.5 -88.5t-136 -108.5t-123 -136v-4h510v-82h-609l-28 55q52 92 127 171.5t143 130t129.5 95t98 87.5t36.5 87q0 46 -21.5 78t-57.5 47.5t-72 22 t-76 6.5q-45 0 -89 -14.5t-85 -52t-60 -91.5z" />
<glyph unicode="&#xb3;" horiz-adv-x="876" d="M96 774l86 19q17 -49 45 -82.5t62 -48t60.5 -20t53.5 -5.5q114 0 183 42.5t69 123.5q0 82 -69.5 124.5t-216.5 49.5l-2 74q133 7 200.5 49.5t67.5 111.5q0 52 -32.5 86t-78.5 47t-102 13q-22 0 -50.5 -6t-68 -20.5t-73 -49.5t-48.5 -84l-86 16q14 56 47 99t69.5 66 t80.5 37t73.5 18t55.5 4q59 0 112.5 -12.5t98 -38t70.5 -69.5t26 -101q0 -49 -20 -87t-52.5 -60.5t-66 -35t-68.5 -16.5v-4q42 -2 80 -14t72.5 -36t55 -67t20.5 -100q0 -115 -93.5 -177.5t-253.5 -62.5q-40 0 -78 7t-85.5 27.5t-86 67t-57.5 115.5z" />
<glyph unicode="&#xb4;" horiz-adv-x="888" d="M342 1225q159 87 251.5 190.5t92.5 198.5h109q0 -134 -108.5 -257.5t-307.5 -217.5z" />
<glyph unicode="&#xb5;" horiz-adv-x="1183" d="M188 -469v1462h111v-592q0 -87 27.5 -154t71.5 -104t91 -55t93 -18q47 0 97 18t97.5 55t78 104t30.5 154v592h110v-993h-94l-18 123h-4q-39 -65 -129 -107.5t-166 -42.5q-67 0 -151.5 39t-127.5 109h-6v-590h-111z" />
<glyph unicode="&#xb6;" horiz-adv-x="1220" d="M147 1032q0 158 110.5 265.5t268.5 107.5h95v-1405h-105v664q-151 2 -260 110t-109 258zM911 0v1405h103v-1405h-103z" />
<glyph unicode="&#xb7;" horiz-adv-x="616" d="M326 422v203h114v-203h-114z" />
<glyph unicode="&#xb8;" horiz-adv-x="1107" d="M342 -211h252q29 38 33.5 79.5t-9 78t-43.5 82.5h107q113 -163 -29 -338h-311v98z" />
<glyph unicode="&#xb9;" horiz-adv-x="501" d="M29 1354l315 84v-863h-94v756h-4l-205 -55z" />
<glyph unicode="&#xba;" horiz-adv-x="978" d="M113 991q0 90 20 166t63 140t119 100.5t179 36.5q82 0 147 -24.5t106.5 -65.5t69 -99t38.5 -120.5t11 -133.5q0 -91 -19 -165.5t-60.5 -137.5t-116 -98t-176.5 -35q-86 0 -153 23.5t-109.5 63.5t-69.5 97t-38 118.5t-11 133.5zM213 991q0 -356 281 -356q272 0 272 356 q0 75 -13.5 137t-43 114.5t-84.5 82t-131 29.5q-63 0 -112 -20t-80 -53.5t-51.5 -81t-29 -98.5t-8.5 -110z" />
<glyph unicode="&#xbb;" horiz-adv-x="1179" d="M162 57v125l323 324v4l-323 317v127l426 -407v-78zM580 57v125l323 324v4l-323 317v127l426 -407v-78z" />
<glyph unicode="&#xbc;" horiz-adv-x="1628" d="M63 1354l316 84v-863h-94v756h-4l-205 -55zM211 -66l956 1514h103l-955 -1514h-104zM877 160l268 639l100 8l-254 -602v-2h287v125l92 12v-137h158v-78h-158v-166h-92v166h-373z" />
<glyph unicode="&#xbd;" horiz-adv-x="1716" d="M63 1354l316 84v-863h-94v756h-4l-205 -55zM180 -66l957 1514h102l-954 -1514h-105zM973 602q20 71 70 121t114.5 73t138.5 23q47 0 89 -5.5t86 -21t75.5 -40.5t51.5 -67.5t20 -98.5q0 -50 -25 -94.5t-64 -79t-93.5 -75.5t-108 -79t-112 -94t-101.5 -117v-4h510v-82h-608 l-29 55q52 92 127 171.5t143 130t130 95.5t98.5 88t36.5 87q0 46 -21.5 78t-58 47.5t-72.5 21.5t-76 6q-45 0 -88.5 -14.5t-84.5 -51.5t-60 -91z" />
<glyph unicode="&#xbe;" horiz-adv-x="1871" d="M131 774l86 19q17 -49 45 -82.5t62 -48t60.5 -20t53.5 -5.5q114 0 183 42.5t69 123.5q0 82 -69.5 124.5t-217.5 49.5l-2 74q134 7 201.5 49.5t67.5 111.5q0 52 -32.5 86t-78.5 47t-102 13q-22 0 -50.5 -6t-68 -20.5t-73 -49.5t-48.5 -84l-86 16q14 56 47 99t69.5 66 t80.5 37t73.5 18t55.5 4q59 0 112.5 -12.5t98 -38t70.5 -69.5t26 -101q0 -49 -20 -87t-52.5 -60.5t-66 -35t-68.5 -16.5v-4q42 -2 79.5 -14t72 -36t55 -67t20.5 -100q0 -115 -93 -177.5t-253 -62.5q-40 0 -78 7t-85.5 27.5t-86 67t-57.5 115.5zM489 -66l957 1514h102 l-954 -1514h-105zM1126 160l269 639l100 8l-254 -602v-2h287v125l92 12v-137h158v-78h-158v-166h-92v166h-373z" />
<glyph unicode="&#xbf;" horiz-adv-x="874" d="M70 -147q0 64 29 121.5t75 101.5t101.5 84.5t111 77.5t101.5 72.5t75 76.5t29 84q0 52 -29 82.5t-88 30.5q-27 0 -65.5 -18t-55.5 -52l-78 55q26 53 91.5 84t111.5 31q110 0 163.5 -57.5t53.5 -155.5q0 -55 -28.5 -106.5t-74 -92t-100.5 -80t-110 -77.5t-100.5 -77 t-74 -86.5t-28.5 -98.5q0 -56 20 -100t52.5 -71t76 -45t86.5 -25t89 -7q58 0 106 9t100.5 32.5t98.5 72.5t80 121l94 -30q-57 -152 -186.5 -227t-294.5 -75q-64 0 -124 11.5t-116.5 38t-98.5 65.5t-67.5 98.5t-25.5 131.5zM442 791v202h115v-202h-115z" />
<glyph unicode="&#xc0;" horiz-adv-x="1265" d="M66 0l518 1421h108l506 -1421h-117l-116 322h-666l-117 -322h-116zM328 422h610l-297 835h-6zM408 2042h110q0 -95 91 -199t251 -190l-39 -86q-198 94 -306 218t-107 257z" />
<glyph unicode="&#xc1;" horiz-adv-x="1265" d="M66 0l518 1421h108l506 -1421h-117l-116 322h-666l-117 -322h-116zM328 422h610l-297 835h-6zM449 1653q159 87 251.5 190.5t92.5 198.5h108q0 -134 -108.5 -257.5t-307.5 -217.5z" />
<glyph unicode="&#xc2;" horiz-adv-x="1265" d="M66 0l518 1421h108l506 -1421h-117l-116 322h-666l-117 -322h-116zM229 1653q135 74 233 191t113 198h113q16 -84 115 -200.5t233 -188.5l-41 -80q-123 62 -216 157.5t-144 184.5h-6q-54 -91 -145.5 -185.5t-213.5 -156.5zM328 422h610l-297 835h-6z" />
<glyph unicode="&#xc3;" horiz-adv-x="1265" d="M66 0l518 1421h108l506 -1421h-117l-116 322h-666l-117 -322h-116zM227 1739q-3 91 52.5 153t136.5 62q58 0 119.5 -26.5t105.5 -58.5t96 -58.5t92 -26.5q43 0 75.5 32.5t35.5 81.5h94q3 -95 -57.5 -155t-138.5 -60q-49 0 -96.5 17.5t-85.5 42.5t-74 50t-77 42.5 t-81 17.5q-44 0 -71 -34.5t-27 -79.5h-99zM328 422h610l-297 835h-6z" />
<glyph unicode="&#xc4;" horiz-adv-x="1265" d="M66 0l518 1421h108l506 -1421h-117l-116 322h-666l-117 -322h-116zM328 422h610l-297 835h-6zM332 1704v205h112v-205h-112zM807 1704v205h113v-205h-113z" />
<glyph unicode="&#xc5;" horiz-adv-x="1265" d="M66 0l518 1421h108l506 -1421h-117l-116 322h-666l-117 -322h-116zM328 422h610l-297 835h-6zM393 1833q0 98 69 159.5t169 61.5q101 0 170 -61.5t69 -159.5q0 -99 -69 -161t-170 -62q-100 0 -169 62.5t-69 160.5zM487 1833q0 -66 41.5 -108t102.5 -42q62 0 103.5 41.5 t41.5 108.5q0 65 -41.5 107t-103.5 42q-61 0 -102.5 -42t-41.5 -107z" />
<glyph unicode="&#xc6;" horiz-adv-x="1943" d="M66 0l735 1421h977v-96h-803v-551h639v-96h-639v-586h803v-92h-914v322h-508l-172 -322h-118zM397 416h467v884h-6z" />
<glyph unicode="&#xc7;" horiz-adv-x="1384" d="M137 727q0 111 20.5 213t68 196.5t117 163.5t175.5 110.5t236 41.5q387 0 514 -313q-9 -2 -49.5 -15.5t-49.5 -15.5q-111 246 -415 246q-108 0 -195 -36.5t-144 -97t-95.5 -142.5t-55 -169.5t-16.5 -181.5q0 -111 15.5 -205.5t52.5 -179t94 -144t144.5 -94t199.5 -34.5 q93 0 176 26.5t153.5 88t104.5 149.5l98 -29q-41 -136 -161.5 -223.5t-284.5 -106.5q59 -139 -58 -284h-311v98h252q61 82 14 180q-132 2 -236 43t-171.5 109.5t-111.5 165.5t-62.5 205t-18.5 235z" />
<glyph unicode="&#xc8;" horiz-adv-x="1282" d="M201 0v1421h913v-96h-803v-551h639v-96h-639v-582h803v-96h-913zM418 2042h110q0 -95 91 -199t251 -190l-39 -86q-198 94 -306 218t-107 257z" />
<glyph unicode="&#xc9;" horiz-adv-x="1282" d="M201 0v1421h913v-96h-803v-551h639v-96h-639v-582h803v-96h-913zM463 1653q159 87 251.5 190.5t92.5 198.5h108q0 -134 -108 -257.5t-307 -217.5z" />
<glyph unicode="&#xca;" horiz-adv-x="1282" d="M201 0v1421h913v-96h-803v-551h639v-96h-639v-582h803v-96h-913zM242 1653q135 74 233 191t113 198h112q16 -83 115.5 -200t233.5 -189l-41 -80q-123 62 -216.5 158t-144.5 184h-6q-54 -92 -145 -186t-213 -156z" />
<glyph unicode="&#xcb;" horiz-adv-x="1282" d="M201 0v1421h913v-96h-803v-551h639v-96h-639v-582h803v-96h-913zM342 1704v205h113v-205h-113zM817 1704v205h113v-205h-113z" />
<glyph unicode="&#xcc;" horiz-adv-x="514" d="M33 2042h110q0 -95 91 -199t251 -190l-39 -86q-198 94 -306 218t-107 257zM201 0v1421h110v-1421h-110z" />
<glyph unicode="&#xcd;" horiz-adv-x="514" d="M74 1653q159 87 251.5 190.5t92.5 198.5h108q0 -134 -108 -257.5t-307 -217.5zM201 0v1421h110v-1421h-110z" />
<glyph unicode="&#xce;" horiz-adv-x="514" d="M-145 1653q135 74 233 191t113 198h112q16 -83 115.5 -200t233.5 -189l-41 -80q-123 62 -216.5 158t-144.5 184h-6q-54 -92 -145 -186t-213 -156zM201 0v1421h110v-1421h-110z" />
<glyph unicode="&#xcf;" horiz-adv-x="514" d="M-43 1704v205h113v-205h-113zM201 0v1421h110v-1421h-110zM432 1704v205h113v-205h-113z" />
<glyph unicode="&#xd0;" horiz-adv-x="1388" d="M2 680v90h199v651h362q121 0 223 -22.5t175 -61.5t130 -94.5t93 -117.5t59 -135t32 -142t9 -143q0 -110 -20.5 -208t-71 -190.5t-126.5 -159.5t-195.5 -107t-270.5 -40h-399v680h-199zM311 96h291q127 0 227 34.5t163 92t104.5 137.5t58 164.5t16.5 180.5q0 65 -7 125 t-26 123.5t-48.5 116.5t-77 101t-109 81.5t-148 53t-190.5 19.5h-254v-555h576v-90h-576v-584z" />
<glyph unicode="&#xd1;" horiz-adv-x="1404" d="M201 0v1421h112l781 -1214h4v1214h106v-1421h-112l-779 1214h-6v-1214h-106zM281 1739q-3 91 52.5 153t135.5 62q58 0 120 -26.5t105.5 -58.5t96 -58.5t92.5 -26.5q43 0 75 32.5t35 81.5h94q3 -95 -57.5 -155t-138.5 -60q-49 0 -96.5 17.5t-85.5 42.5t-74 50t-77 42.5 t-81 17.5q-44 0 -71 -34.5t-27 -79.5h-98z" />
<glyph unicode="&#xd2;" horiz-adv-x="1423" d="M121 702q0 122 19.5 229t64.5 203.5t112.5 165.5t168.5 109.5t227 40.5q129 0 230.5 -40t168.5 -108t110.5 -164.5t62 -204t18.5 -231.5t-19 -230t-63.5 -199.5t-112 -159.5t-169 -104t-230.5 -38q-130 0 -231.5 37t-168 101.5t-109.5 158.5t-61 200.5t-18 233.5z M236 702q0 -634 473 -634q104 0 186.5 32.5t137 89.5t90.5 138t51.5 173.5t15.5 200.5q0 109 -15 202.5t-50 177.5t-89 143.5t-136.5 94t-186.5 34.5q-102 0 -183.5 -35t-136 -94.5t-90.5 -143.5t-51.5 -178t-15.5 -201zM485 2042h111q0 -95 91 -199t251 -190l-39 -86 q-199 94 -307 218t-107 257z" />
<glyph unicode="&#xd3;" horiz-adv-x="1423" d="M121 702q0 122 19.5 229t64.5 203.5t112.5 165.5t168.5 109.5t227 40.5q129 0 230.5 -40t168.5 -108t110.5 -164.5t62 -204t18.5 -231.5t-19 -230t-63.5 -199.5t-112 -159.5t-169 -104t-230.5 -38q-130 0 -231.5 37t-168 101.5t-109.5 158.5t-61 200.5t-18 233.5z M236 702q0 -634 473 -634q104 0 186.5 32.5t137 89.5t90.5 138t51.5 173.5t15.5 200.5q0 109 -15 202.5t-50 177.5t-89 143.5t-136.5 94t-186.5 34.5q-102 0 -183.5 -35t-136 -94.5t-90.5 -143.5t-51.5 -178t-15.5 -201zM526 1653q159 87 251.5 190.5t92.5 198.5h109 q0 -134 -108.5 -257.5t-307.5 -217.5z" />
<glyph unicode="&#xd4;" horiz-adv-x="1423" d="M121 702q0 122 19.5 229t64.5 203.5t112.5 165.5t168.5 109.5t227 40.5q129 0 230.5 -40t168.5 -108t110.5 -164.5t62 -204t18.5 -231.5t-19 -230t-63.5 -199.5t-112 -159.5t-169 -104t-230.5 -38q-130 0 -231.5 37t-168 101.5t-109.5 158.5t-61 200.5t-18 233.5z M236 702q0 -634 473 -634q104 0 186.5 32.5t137 89.5t90.5 138t51.5 173.5t15.5 200.5q0 109 -15 202.5t-50 177.5t-89 143.5t-136.5 94t-186.5 34.5q-102 0 -183.5 -35t-136 -94.5t-90.5 -143.5t-51.5 -178t-15.5 -201zM309 1653q135 74 233 191t113 198h113 q16 -84 115 -200.5t233 -188.5l-41 -80q-123 62 -216 157.5t-144 184.5h-6q-54 -91 -145.5 -185.5t-213.5 -156.5z" />
<glyph unicode="&#xd5;" horiz-adv-x="1423" d="M121 702q0 122 19.5 229t64.5 203.5t112.5 165.5t168.5 109.5t227 40.5q129 0 230.5 -40t168.5 -108t110.5 -164.5t62 -204t18.5 -231.5t-19 -230t-63.5 -199.5t-112 -159.5t-169 -104t-230.5 -38q-130 0 -231.5 37t-168 101.5t-109.5 158.5t-61 200.5t-18 233.5z M236 702q0 -634 473 -634q104 0 186.5 32.5t137 89.5t90.5 138t51.5 173.5t15.5 200.5q0 109 -15 202.5t-50 177.5t-89 143.5t-136.5 94t-186.5 34.5q-102 0 -183.5 -35t-136 -94.5t-90.5 -143.5t-51.5 -178t-15.5 -201zM307 1739q-3 91 52.5 153t136.5 62q58 0 119.5 -26.5 t105.5 -58.5t96 -58.5t92 -26.5q43 0 75.5 32.5t35.5 81.5h94q3 -95 -57.5 -155t-138.5 -60q-49 0 -96.5 17.5t-85.5 42.5t-74 50t-77 42.5t-81 17.5q-44 0 -71 -34.5t-27 -79.5h-99z" />
<glyph unicode="&#xd6;" horiz-adv-x="1423" d="M121 702q0 122 19.5 229t64.5 203.5t112.5 165.5t168.5 109.5t227 40.5q129 0 230.5 -40t168.5 -108t110.5 -164.5t62 -204t18.5 -231.5t-19 -230t-63.5 -199.5t-112 -159.5t-169 -104t-230.5 -38q-130 0 -231.5 37t-168 101.5t-109.5 158.5t-61 200.5t-18 233.5z M236 702q0 -634 473 -634q104 0 186.5 32.5t137 89.5t90.5 138t51.5 173.5t15.5 200.5q0 109 -15 202.5t-50 177.5t-89 143.5t-136.5 94t-186.5 34.5q-102 0 -183.5 -35t-136 -94.5t-90.5 -143.5t-51.5 -178t-15.5 -201zM412 1704v205h112v-205h-112zM887 1704v205h112v-205 h-112z" />
<glyph unicode="&#xd7;" d="M264 764l76 76l285 -285l280 283l70 -70l-283 -283l285 -284l-74 -74l-285 285l-282 -283l-70 70l283 282z" />
<glyph unicode="&#xd8;" horiz-adv-x="1423" d="M121 702q0 122 19.5 229t64.5 203.5t112.5 165.5t168.5 109.5t227 40.5q8 0 24.5 -1t24.5 -1l20 139l109 -14l-23 -139q117 -27 203 -95.5t135.5 -168.5t73 -216t23.5 -252q0 -124 -19 -230t-63.5 -199.5t-112 -159.5t-169 -104t-230.5 -38h-17l-22 -157l-107 16l21 152 q-463 71 -463 720zM236 702q0 -634 473 -634q104 0 186.5 32.5t137 89.5t90.5 138t51.5 173.5t15.5 200.5q0 109 -15 202.5t-50 177.5t-89 143.5t-136.5 94t-186.5 34.5q-102 0 -183.5 -35t-136 -94.5t-90.5 -143.5t-51.5 -178t-15.5 -201z" />
<glyph unicode="&#xd9;" horiz-adv-x="1314" d="M182 463v958h111v-958q0 -101 35 -179t92 -122.5t123 -67t135 -22.5q62 0 121.5 23t110.5 68t82.5 121.5t31.5 172.5v964h109v-964q0 -119 -40 -214t-106.5 -152.5t-145.5 -87.5t-163 -30q-73 0 -142.5 17.5t-134 56.5t-113 94.5t-77.5 138.5t-29 183zM432 2042h111 q0 -95 91 -199t251 -190l-39 -86q-199 94 -307 218t-107 257z" />
<glyph unicode="&#xda;" horiz-adv-x="1314" d="M182 463v958h111v-958q0 -101 35 -179t92 -122.5t123 -67t135 -22.5q62 0 121.5 23t110.5 68t82.5 121.5t31.5 172.5v964h109v-964q0 -119 -40 -214t-106.5 -152.5t-145.5 -87.5t-163 -30q-73 0 -142.5 17.5t-134 56.5t-113 94.5t-77.5 138.5t-29 183zM473 1653 q159 87 251.5 190.5t92.5 198.5h109q0 -134 -108.5 -257.5t-307.5 -217.5z" />
<glyph unicode="&#xdb;" horiz-adv-x="1314" d="M182 463v958h111v-958q0 -101 35 -179t92 -122.5t123 -67t135 -22.5q62 0 121.5 23t110.5 68t82.5 121.5t31.5 172.5v964h109v-964q0 -119 -40 -214t-106.5 -152.5t-145.5 -87.5t-163 -30q-73 0 -142.5 17.5t-134 56.5t-113 94.5t-77.5 138.5t-29 183zM254 1653 q135 74 233 191t113 198h113q16 -84 115 -200.5t233 -188.5l-41 -80q-123 62 -216.5 158t-144.5 184h-6q-54 -92 -145 -186t-213 -156z" />
<glyph unicode="&#xdc;" horiz-adv-x="1314" d="M182 463v958h111v-958q0 -101 35 -179t92 -122.5t123 -67t135 -22.5q62 0 121.5 23t110.5 68t82.5 121.5t31.5 172.5v964h109v-964q0 -119 -40 -214t-106.5 -152.5t-145.5 -87.5t-163 -30q-73 0 -142.5 17.5t-134 56.5t-113 94.5t-77.5 138.5t-29 183zM356 1704v205h113 v-205h-113zM831 1704v205h113v-205h-113z" />
<glyph unicode="&#xdd;" horiz-adv-x="1132" d="M66 1419h118l396 -854h4l366 854l117 2l-403 -923q-27 -69 -27 -123v-375h-113v371q0 63 -26 116zM381 1653q159 87 251.5 190.5t92.5 198.5h109q0 -134 -108.5 -257.5t-307.5 -217.5z" />
<glyph unicode="&#xde;" horiz-adv-x="1267" d="M205 0v1405h112v-248h281q82 0 156 -11t150 -41.5t130 -78t88.5 -126.5t34.5 -181q0 -104 -34.5 -183.5t-89 -127t-130.5 -77.5t-149.5 -41t-155.5 -11h-279v-279h-114zM317 371h281q66 0 125 9t119.5 33t103.5 62t70.5 100.5t27.5 143.5q0 83 -27.5 145.5t-70.5 99 t-104 59.5t-119 30.5t-125 7.5h-281v-690z" />
<glyph unicode="&#xdf;" horiz-adv-x="1337" d="M205 0v870q0 279 118 425.5t351 146.5q114 0 210 -32.5t158 -101t62 -161.5q0 -53 -29 -125q-213 -31 -213 -209q0 -39 27 -81t67 -77t87.5 -80t87.5 -88.5t67 -103.5t27 -125q0 -125 -110.5 -205t-260.5 -80q-57 0 -115 11t-123.5 38t-120 83t-83.5 135l94 32 q87 -200 344 -200q107 0 185.5 52t78.5 138q0 56 -27 108t-67 90.5t-87 81.5t-87 80.5t-67 88.5t-27 104q0 118 55.5 186t171.5 91q12 30 12 63q0 58 -46 102t-117 65t-154 21q-175 0 -267 -119.5t-92 -353.5v-870h-110z" />
<glyph unicode="&#xe0;" horiz-adv-x="1110" d="M109 840q87 115 191.5 153.5t242.5 38.5q395 0 395 -409v-623h-94l-15 113h-6q-56 -45 -160.5 -90.5t-209.5 -45.5q-63 0 -119.5 14t-106 44t-79 84.5t-29.5 128.5q0 82 27.5 139.5t75 89t106.5 51t127.5 34t132 30.5t126.5 47t105 76q-5 60 -32 105t-68 70t-85 36.5 t-91 11.5q-118 0 -197 -32.5t-153 -125.5zM225 254q0 -48 20 -84t54 -56.5t75 -30t89 -9.5q170 0 368 157v375h-4q-43 -42 -109 -70t-130 -39.5t-131 -28t-117.5 -36.5t-82.5 -65t-32 -113zM305 1614h111q0 -95 91 -199t251 -190l-39 -86q-199 94 -307 218t-107 257z" />
<glyph unicode="&#xe1;" horiz-adv-x="1110" d="M109 840q87 115 191.5 153.5t242.5 38.5q395 0 395 -409v-623h-94l-15 113h-6q-56 -45 -160.5 -90.5t-209.5 -45.5q-63 0 -119.5 14t-106 44t-79 84.5t-29.5 128.5q0 82 27.5 139.5t75 89t106.5 51t127.5 34t132 30.5t126.5 47t105 76q-5 60 -32 105t-68 70t-85 36.5 t-91 11.5q-118 0 -197 -32.5t-153 -125.5zM225 254q0 -48 20 -84t54 -56.5t75 -30t89 -9.5q170 0 368 157v375h-4q-43 -42 -109 -70t-130 -39.5t-131 -28t-117.5 -36.5t-82.5 -65t-32 -113zM307 1225q159 87 251.5 190.5t92.5 198.5h109q0 -134 -108.5 -257.5t-307.5 -217.5 z" />
<glyph unicode="&#xe2;" horiz-adv-x="1110" d="M109 840q87 115 191.5 153.5t242.5 38.5q395 0 395 -409v-623h-94l-15 113h-6q-56 -45 -160.5 -90.5t-209.5 -45.5q-63 0 -119.5 14t-106 44t-79 84.5t-29.5 128.5q0 82 27.5 139.5t75 89t106.5 51t127.5 34t132 30.5t126.5 47t105 76q-5 60 -32 105t-68 70t-85 36.5 t-91 11.5q-118 0 -197 -32.5t-153 -125.5zM117 1225q135 74 233 191t113 198h112q16 -83 115.5 -200t233.5 -189l-41 -80q-123 62 -216.5 158t-144.5 184h-6q-54 -92 -145 -186t-213 -156zM225 254q0 -48 20 -84t54 -56.5t75 -30t89 -9.5q170 0 368 157v375h-4 q-43 -42 -109 -70t-130 -39.5t-131 -28t-117.5 -36.5t-82.5 -65t-32 -113z" />
<glyph unicode="&#xe3;" horiz-adv-x="1110" d="M109 840q87 115 191.5 153.5t242.5 38.5q395 0 395 -409v-623h-94l-15 113h-6q-56 -45 -160.5 -90.5t-209.5 -45.5q-63 0 -119.5 14t-106 44t-79 84.5t-29.5 128.5q0 82 27.5 139.5t75 89t106.5 51t127.5 34t132 30.5t126.5 47t105 76q-5 60 -32 105t-68 70t-85 36.5 t-91 11.5q-118 0 -197 -32.5t-153 -125.5zM121 1311q-3 91 52.5 153t135.5 62q58 0 120 -26.5t105.5 -58.5t96 -58.5t92.5 -26.5q43 0 75.5 32.5t35.5 81.5h94q3 -95 -57.5 -155t-139.5 -60q-49 0 -96.5 17.5t-85.5 42.5t-74 50t-77 42.5t-81 17.5q-44 0 -71 -34.5 t-27 -79.5h-98zM225 254q0 -48 20 -84t54 -56.5t75 -30t89 -9.5q170 0 368 157v375h-4q-43 -42 -109 -70t-130 -39.5t-131 -28t-117.5 -36.5t-82.5 -65t-32 -113z" />
<glyph unicode="&#xe4;" horiz-adv-x="1093" d="M109 840q87 115 191.5 153.5t242.5 38.5q395 0 395 -409v-623h-94l-15 113h-6q-56 -45 -160.5 -90.5t-209.5 -45.5q-63 0 -119.5 14t-106 44t-79 84.5t-29.5 128.5q0 82 27.5 139.5t75 89t106.5 51t127.5 34t132 30.5t126.5 47t105 76q-5 60 -32 105t-68 70t-85 36.5 t-91 11.5q-118 0 -197 -32.5t-153 -125.5zM225 254q0 -48 20 -84t54 -56.5t75 -30t89 -9.5q170 0 368 157v375h-4q-43 -42 -109 -70t-130 -39.5t-131 -28t-117.5 -36.5t-82.5 -65t-32 -113zM225 1276v205h113v-205h-113zM700 1276v205h113v-205h-113z" />
<glyph unicode="&#xe5;" horiz-adv-x="1110" d="M109 840q87 115 191.5 153.5t242.5 38.5q395 0 395 -409v-623h-94l-15 113h-6q-56 -45 -160.5 -90.5t-209.5 -45.5q-63 0 -119.5 14t-106 44t-79 84.5t-29.5 128.5q0 82 27.5 139.5t75 89t106.5 51t127.5 34t132 30.5t126.5 47t105 76q-5 60 -32 105t-68 70t-85 36.5 t-91 11.5q-118 0 -197 -32.5t-153 -125.5zM225 254q0 -48 20 -84t54 -56.5t75 -30t89 -9.5q170 0 368 157v375h-4q-43 -42 -109 -70t-130 -39.5t-131 -28t-117.5 -36.5t-82.5 -65t-32 -113zM285 1405q0 98 68.5 159.5t168.5 61.5q101 0 170.5 -61.5t69.5 -159.5 q0 -99 -69.5 -161t-170.5 -62q-100 0 -168.5 62.5t-68.5 160.5zM379 1405q0 -66 41 -108t102 -42q62 0 104 41.5t42 108.5q0 65 -42 107t-104 42q-61 0 -102 -42t-41 -107z" />
<glyph unicode="&#xe6;" horiz-adv-x="1816" d="M111 840q79 107 182.5 148.5t232.5 41.5q154 0 241.5 -53.5t125.5 -157.5h4q66 114 160 161.5t225 47.5q46 0 88 -5.5t89 -21t86 -40.5t75.5 -67t61 -97t37.5 -134t10 -174h-795q3 -203 93.5 -310t240.5 -107q38 0 70 3.5t72.5 15.5t74 33t68.5 58t63 88l94 -41 q-38 -74 -92 -126.5t-114.5 -79t-117 -37.5t-116.5 -11q-82 0 -145 19.5t-125.5 75.5t-110.5 151h-4q-32 -64 -88 -114t-118 -77t-119 -40t-105 -13q-47 0 -91.5 7t-89.5 26t-78 48.5t-54 77t-21 108.5q0 82 29 140.5t78 91.5t110 55t131 37t133.5 30.5t123.5 43t97 67.5 q-5 29 -12 51.5t-20.5 50t-35 48t-51.5 38.5t-75 27.5t-101 9.5q-59 0 -116 -12.5t-119.5 -49t-99.5 -94.5zM225 250q0 -43 16 -76.5t40.5 -52t57 -30.5t61 -15.5t57.5 -3.5q52 0 114 20.5t120.5 57t98 97.5t39.5 132v225h-4q-44 -41 -111.5 -68.5t-131 -39t-130 -29 t-115.5 -38.5t-80.5 -66t-31.5 -113zM934 578h686q-1 83 -22 147.5t-53.5 103t-77.5 63t-88.5 33.5t-92.5 9q-48 0 -93 -8.5t-92.5 -33t-82.5 -63t-58.5 -103t-25.5 -148.5z" />
<glyph unicode="&#xe7;" horiz-adv-x="1138" d="M104 500q0 109 30 203t88.5 166.5t153.5 114.5t216 42q144 0 258.5 -65.5t163.5 -188.5l-99 -33q-28 68 -83.5 112.5t-114.5 61.5t-123 17q-94 0 -167.5 -35t-119 -95t-69 -136.5t-23.5 -163.5q0 -187 97 -306.5t282 -119.5q62 0 125 20.5t121 68t86 113.5l96 -36 q-42 -104 -138 -170t-208 -86q69 -143 -53 -293h-312v98h252q62 84 12 186q-117 3 -208.5 45.5t-148 115t-85.5 165t-29 199.5z" />
<glyph unicode="&#xe8;" horiz-adv-x="1138" d="M104 510q0 80 18.5 155t57.5 141t94.5 114.5t135.5 77t174 28.5q78 0 142 -14.5t122.5 -52t97.5 -97t61 -154.5t19 -219h-815q3 -188 95.5 -301.5t260.5 -113.5q238 0 344 194l97 -39q-34 -72 -88.5 -124t-117 -79t-120.5 -39t-115 -12q-221 0 -342 148t-121 387z M215 578h703q-3 103 -30.5 175t-76 110.5t-104 54.5t-125.5 16q-84 0 -151.5 -29.5t-111.5 -80t-70 -113t-34 -133.5zM338 1614h111q0 -95 91 -199t251 -190l-39 -86q-199 94 -307 218t-107 257z" />
<glyph unicode="&#xe9;" horiz-adv-x="1136" d="M104 510q0 80 18.5 155t57.5 141t94.5 114.5t135.5 77t174 28.5q78 0 142 -14.5t122.5 -52t97.5 -97t61 -154.5t19 -219h-815q3 -188 95.5 -301.5t260.5 -113.5q238 0 344 194l97 -39q-34 -72 -88.5 -124t-117 -79t-120.5 -39t-115 -12q-221 0 -342 148t-121 387z M215 578h703q-3 103 -30.5 175t-76 110.5t-104 54.5t-125.5 16q-84 0 -151.5 -29.5t-111.5 -80t-70 -113t-34 -133.5zM389 1225q159 87 251.5 190.5t92.5 198.5h109q0 -134 -108.5 -257.5t-307.5 -217.5z" />
<glyph unicode="&#xea;" horiz-adv-x="1136" d="M104 510q0 80 18.5 155t57.5 141t94.5 114.5t135.5 77t174 28.5q78 0 142 -14.5t122.5 -52t97.5 -97t61 -154.5t19 -219h-815q3 -188 95.5 -301.5t260.5 -113.5q238 0 344 194l97 -39q-34 -72 -88.5 -124t-117 -79t-120.5 -39t-115 -12q-221 0 -342 148t-121 387z M174 1225q135 74 233 191t113 198h113q16 -84 115 -200.5t233 -188.5l-41 -80q-123 62 -216 157.5t-144 184.5h-7q-54 -92 -145 -186t-213 -156zM215 578h703q-3 103 -30.5 175t-76 110.5t-104 54.5t-125.5 16q-84 0 -151.5 -29.5t-111.5 -80t-70 -113t-34 -133.5z" />
<glyph unicode="&#xeb;" horiz-adv-x="1136" d="M104 510q0 80 18.5 155t57.5 141t94.5 114.5t135.5 77t174 28.5q78 0 142 -14.5t122.5 -52t97.5 -97t61 -154.5t19 -219h-815q3 -188 95.5 -301.5t260.5 -113.5q238 0 344 194l97 -39q-34 -72 -88.5 -124t-117 -79t-120.5 -39t-115 -12q-221 0 -342 148t-121 387z M215 578h703q-3 103 -30.5 175t-76 110.5t-104 54.5t-125.5 16q-84 0 -151.5 -29.5t-111.5 -80t-70 -113t-34 -133.5zM274 1276v205h113v-205h-113zM750 1276v205h112v-205h-112z" />
<glyph unicode="&#xec;" horiz-adv-x="489" d="M20 1614h111q0 -95 91 -199t251 -190l-39 -86q-199 94 -307 218t-107 257zM188 0v993h113v-993h-113z" />
<glyph unicode="&#xed;" horiz-adv-x="489" d="M61 1225q160 87 252.5 190.5t92.5 198.5h108q0 -134 -108.5 -257.5t-307.5 -217.5zM188 0v993h113v-993h-113z" />
<glyph unicode="&#xee;" horiz-adv-x="489" d="M-160 1225q135 74 233 191t113 198h113q16 -84 115 -200.5t233 -188.5l-41 -80q-123 62 -216 157.5t-144 184.5h-6q-54 -91 -145.5 -185.5t-213.5 -156.5zM188 0v993h113v-993h-113z" />
<glyph unicode="&#xef;" horiz-adv-x="489" d="M-55 1276v205h112v-205h-112zM188 0v993h113v-993h-113zM420 1276v205h112v-205h-112z" />
<glyph unicode="&#xf0;" horiz-adv-x="1239" d="M139 436q0 205 126 336t333 131q116 0 227.5 -63t153.5 -140h6q-7 496 -209 648l-139 -236l-84 53l135 230q-65 20 -129 20q-82 0 -163.5 -35.5t-137.5 -107.5l-76 59q72 93 175.5 136.5t203.5 43.5q101 0 180 -30l121 207l84 -54l-117 -196q271 -178 271 -785 q0 -331 -121.5 -506.5t-366.5 -175.5q-128 0 -234 53t-172.5 161t-66.5 251zM250 432q0 -160 109 -264.5t253 -104.5q74 0 136 26.5t104 70t72 101.5t43.5 120.5t13.5 126.5q0 40 -30 91.5t-78 97.5t-117.5 78t-139.5 32q-165 0 -265.5 -107t-100.5 -268z" />
<glyph unicode="&#xf1;" horiz-adv-x="1165" d="M178 1311q-3 91 52.5 153t136.5 62q58 0 119.5 -26.5t105.5 -58.5t96 -58.5t92 -26.5q43 0 75.5 32.5t35.5 81.5h94q3 -95 -57.5 -155t-139.5 -60q-49 0 -96.5 17.5t-85 42.5t-73.5 50t-77 42.5t-81 17.5q-44 0 -71.5 -34.5t-27.5 -79.5h-98zM188 0v993h95l14 -121h4 q58 81 150 119.5t190 38.5q71 0 134 -24t112 -70t77.5 -118.5t28.5 -162.5v-655h-110v610q0 68 -14.5 123.5t-45 100t-83 69.5t-124.5 25q-38 0 -77.5 -8.5t-84 -31t-78.5 -57t-56.5 -93t-22.5 -132.5v-606h-109z" />
<glyph unicode="&#xf2;" horiz-adv-x="1177" d="M104 500q0 148 55.5 266.5t168 190t264.5 71.5q153 0 263.5 -71.5t164 -189.5t53.5 -267q0 -151 -53.5 -268t-164 -187t-263.5 -70q-122 0 -216.5 40t-153 111.5t-88.5 166t-30 207.5zM215 500q0 -193 95 -310.5t282 -117.5q177 0 274 119t97 309q0 189 -97 310.5 t-274 121.5q-176 0 -276.5 -122t-100.5 -310zM362 1614h111q0 -95 91 -199t251 -190l-39 -86q-199 94 -307 218t-107 257z" />
<glyph unicode="&#xf3;" horiz-adv-x="1177" d="M104 500q0 148 55.5 266.5t168 190t264.5 71.5q153 0 263.5 -71.5t164 -189.5t53.5 -267q0 -151 -53.5 -268t-164 -187t-263.5 -70q-122 0 -216.5 40t-153 111.5t-88.5 166t-30 207.5zM215 500q0 -193 95 -310.5t282 -117.5q177 0 274 119t97 309q0 189 -97 310.5 t-274 121.5q-176 0 -276.5 -122t-100.5 -310zM403 1225q160 87 252.5 190.5t92.5 198.5h108q0 -134 -108.5 -257.5t-307.5 -217.5z" />
<glyph unicode="&#xf4;" horiz-adv-x="1177" d="M104 500q0 148 55.5 266.5t168 190t264.5 71.5q153 0 263.5 -71.5t164 -189.5t53.5 -267q0 -151 -53.5 -268t-164 -187t-263.5 -70q-122 0 -216.5 40t-153 111.5t-88.5 166t-30 207.5zM186 1225q135 74 233 191t113 198h113q16 -84 115 -200.5t233 -188.5l-41 -80 q-123 62 -216 157.5t-144 184.5h-6q-54 -91 -145.5 -185.5t-213.5 -156.5zM215 500q0 -193 95 -310.5t282 -117.5q177 0 274 119t97 309q0 189 -97 310.5t-274 121.5q-176 0 -276.5 -122t-100.5 -310z" />
<glyph unicode="&#xf5;" horiz-adv-x="1177" d="M104 500q0 148 55.5 266.5t168 190t264.5 71.5q153 0 263.5 -71.5t164 -189.5t53.5 -267q0 -151 -53.5 -268t-164 -187t-263.5 -70q-122 0 -216.5 40t-153 111.5t-88.5 166t-30 207.5zM186 1311q-3 91 52.5 153t136.5 62q58 0 119.5 -26.5t105.5 -58.5t96 -58.5t92 -26.5 q43 0 75.5 32.5t35.5 81.5h94q3 -95 -57.5 -155t-138.5 -60q-49 0 -96.5 17.5t-85.5 42.5t-74 50t-77 42.5t-81 17.5q-44 0 -71 -34.5t-27 -79.5h-99zM215 500q0 -193 95 -310.5t282 -117.5q177 0 274 119t97 309q0 189 -97 310.5t-274 121.5q-176 0 -276.5 -122 t-100.5 -310z" />
<glyph unicode="&#xf6;" horiz-adv-x="1177" d="M104 500q0 148 55.5 266.5t168 190t264.5 71.5q153 0 263.5 -71.5t164 -189.5t53.5 -267q0 -151 -53.5 -268t-164 -187t-263.5 -70q-122 0 -216.5 40t-153 111.5t-88.5 166t-30 207.5zM215 500q0 -193 95 -310.5t282 -117.5q177 0 274 119t97 309q0 189 -97 310.5 t-274 121.5q-176 0 -276.5 -122t-100.5 -310zM289 1276v205h112v-205h-112zM764 1276v205h113v-205h-113z" />
<glyph unicode="&#xf7;" d="M197 446v99h850v-99h-850zM557 -14v200h115v-200h-115zM557 807v199h115v-199h-115z" />
<glyph unicode="&#xf8;" horiz-adv-x="1177" d="M104 500q0 148 55.5 266.5t168 190t264.5 71.5q21 0 61 -4l41 170l103 -23l-39 -170q152 -50 233.5 -184.5t81.5 -316.5q0 -151 -53.5 -268t-164 -187t-263.5 -70q-10 0 -68 5l-35 -162l-106 22l35 160q-156 48 -235 180.5t-79 319.5zM215 500q0 -193 95 -310.5 t282 -117.5q177 0 274 119t97 309q0 189 -97 310.5t-274 121.5q-176 0 -276.5 -122t-100.5 -310z" />
<glyph unicode="&#xf9;" horiz-adv-x="1165" d="M170 344v649h113v-614q0 -141 64 -227t202 -86q37 0 76 8t83.5 31t78.5 58t56.5 95t22.5 137v598h111v-993h-94l-19 121h-4q-58 -79 -149.5 -118.5t-186.5 -39.5q-96 0 -175 41.5t-129 130t-50 209.5zM356 1614h111q0 -95 91 -199t251 -190l-39 -86q-199 94 -307 218 t-107 257z" />
<glyph unicode="&#xfa;" horiz-adv-x="1165" d="M170 344v649h113v-614q0 -141 64 -227t202 -86q37 0 76 8t83.5 31t78.5 58t56.5 95t22.5 137v598h111v-993h-94l-19 121h-4q-58 -79 -149.5 -118.5t-186.5 -39.5q-96 0 -175 41.5t-129 130t-50 209.5zM373 1225q159 87 251.5 190.5t92.5 198.5h108q0 -134 -108 -257.5 t-307 -217.5z" />
<glyph unicode="&#xfb;" horiz-adv-x="1165" d="M170 344v649h113v-614q0 -141 64 -227t202 -86q37 0 76 8t83.5 31t78.5 58t56.5 95t22.5 137v598h111v-993h-94l-19 121h-4q-58 -79 -149.5 -118.5t-186.5 -39.5q-96 0 -175 41.5t-129 130t-50 209.5zM180 1225q135 74 233 191t113 198h113q16 -84 115 -200.5t233 -188.5 l-41 -80q-123 62 -216 157.5t-144 184.5h-6q-54 -91 -145.5 -185.5t-213.5 -156.5z" />
<glyph unicode="&#xfc;" horiz-adv-x="1165" d="M170 344v649h113v-614q0 -141 64 -227t202 -86q37 0 76 8t83.5 31t78.5 58t56.5 95t22.5 137v598h111v-993h-94l-19 121h-4q-58 -79 -149.5 -118.5t-186.5 -39.5q-96 0 -175 41.5t-129 130t-50 209.5zM274 1276v205h113v-205h-113zM750 1276v205h112v-205h-112z" />
<glyph unicode="&#xfd;" horiz-adv-x="991" d="M66 993h114l344 -817h4l295 817h111l-531 -1468h-104l160 463q4 24 4 40.5t-10 44t-18 46t-21 45.5t-19 43zM319 1225q160 87 252.5 190.5t92.5 198.5h108q0 -134 -108.5 -257.5t-307.5 -217.5z" />
<glyph unicode="&#xfe;" horiz-adv-x="1183" d="M188 -475v1896l111 60v-602h4q55 67 140.5 109t172.5 42q197 0 334 -143t137 -377q0 -126 -37.5 -228t-102 -168t-149.5 -101.5t-182 -35.5q-89 0 -174.5 33.5t-136.5 93.5h-6v-579h-111zM299 233q111 -157 305 -157q159 0 266 114t107 320q0 185 -109 303.5t-264 118.5 q-72 0 -156.5 -41.5t-148.5 -130.5v-527z" />
<glyph unicode="&#xff;" horiz-adv-x="991" d="M66 993h114l344 -817h4l295 817h111l-531 -1468h-104l160 463q4 24 4 40.5t-10 44t-18 46t-21 45.5t-19 43zM207 1276v205h112v-205h-112zM682 1276v205h113v-205h-113z" />
<glyph unicode="&#x152;" horiz-adv-x="2269" d="M121 702q0 122 19.5 229t64.5 203t112.5 165t168.5 109t227 40q48 0 90 -4.5t99.5 -22t105 -47.5t97 -85.5t85.5 -131.5v264h911v-96h-801v-551h639v-96h-639v-582h801v-96h-911v260q-40 -87 -100.5 -147t-129 -88.5t-128.5 -40t-123 -11.5q-130 0 -231.5 37t-168 101 t-109.5 157.5t-61 200t-18 233.5zM238 702q0 -639 471 -639q104 0 186.5 33t137 90.5t90.5 139.5t51.5 175t15.5 201q0 109 -15 203t-50 178.5t-89 144.5t-136.5 95t-186.5 35q-102 0 -183.5 -35.5t-135.5 -95.5t-89.5 -145t-51 -179t-15.5 -201z" />
<glyph unicode="&#x153;" horiz-adv-x="1970" d="M104 500q0 148 56 266.5t169 190t265 71.5q156 0 263.5 -74t160.5 -204q52 127 159.5 201.5t264.5 74.5q80 0 145 -14.5t123.5 -52t97 -97t60 -154.5t18.5 -219h-817q3 -188 95.5 -301.5t260.5 -113.5q239 0 347 194l96 -39q-35 -72 -90 -124t-117.5 -79t-120.5 -39 t-115 -12q-151 0 -253.5 71t-153.5 198q-53 -126 -160.5 -197.5t-263.5 -71.5q-123 0 -218 40t-153.5 111.5t-88.5 166t-30 207.5zM215 500q0 -193 95.5 -310.5t283.5 -117.5q176 0 273.5 119t97.5 309q0 188 -98 310t-273 122q-177 0 -278 -122.5t-101 -309.5zM1073 578 h703q-3 103 -30.5 175t-76 110.5t-104 54.5t-125.5 16q-84 0 -151.5 -29.5t-111.5 -80t-70 -113t-34 -133.5z" />
<glyph unicode="&#x178;" horiz-adv-x="1132" d="M66 1419h118l396 -854h4l366 854l117 2l-403 -923q-27 -69 -27 -123v-375h-113v371q0 63 -26 116zM264 1704v205h113v-205h-113zM739 1704v205h113v-205h-113z" />
<glyph unicode="&#x2c6;" horiz-adv-x="1107" d="M150 1225q135 74 233 191t113 198h112q16 -84 115 -200.5t233 -188.5l-41 -80q-123 62 -216 157.5t-144 184.5h-6q-54 -91 -145.5 -185.5t-213.5 -156.5z" />
<glyph unicode="&#x2dc;" horiz-adv-x="1122" d="M147 1311q-3 91 52.5 153t136.5 62q58 0 120 -26.5t105.5 -58.5t96 -58.5t92.5 -26.5q43 0 75 32.5t35 81.5h94q3 -95 -57.5 -155t-138.5 -60q-49 0 -96.5 17.5t-85.5 42.5t-74 50t-77 42.5t-81 17.5q-44 0 -71 -34.5t-27 -79.5h-99z" />
<glyph unicode="&#x2000;" horiz-adv-x="1027" />
<glyph unicode="&#x2001;" horiz-adv-x="2054" />
<glyph unicode="&#x2002;" horiz-adv-x="1027" />
<glyph unicode="&#x2003;" horiz-adv-x="2054" />
<glyph unicode="&#x2004;" horiz-adv-x="684" />
<glyph unicode="&#x2005;" horiz-adv-x="513" />
<glyph unicode="&#x2006;" horiz-adv-x="342" />
<glyph unicode="&#x2007;" horiz-adv-x="342" />
<glyph unicode="&#x2008;" horiz-adv-x="256" />
<glyph unicode="&#x2009;" horiz-adv-x="410" />
<glyph unicode="&#x200a;" horiz-adv-x="114" />
<glyph unicode="&#x2010;" horiz-adv-x="954" d="M178 436v101h596v-101h-596z" />
<glyph unicode="&#x2011;" horiz-adv-x="954" d="M178 436v101h596v-101h-596z" />
<glyph unicode="&#x2012;" horiz-adv-x="954" d="M178 436v101h596v-101h-596z" />
<glyph unicode="&#x2013;" horiz-adv-x="1234" d="M197 434v98h850v-98h-850z" />
<glyph unicode="&#x2014;" horiz-adv-x="1632" d="M184 434v98h1270v-98h-1270z" />
<glyph unicode="&#x2018;" horiz-adv-x="528" d="M172 1217q0 177 121 284l61 -55q-34 -27 -60 -80t-26 -119h31v-196h-102q-25 95 -25 166z" />
<glyph unicode="&#x2019;" horiz-adv-x="528" d="M174 1087q34 25 60 78t26 119h-33v197h103q24 -91 24 -166q0 -180 -118 -285z" />
<glyph unicode="&#x201a;" horiz-adv-x="528" d="M174 -197q34 25 60 78t26 119h-33v197h103q24 -91 24 -166q0 -180 -118 -285z" />
<glyph unicode="&#x201c;" horiz-adv-x="841" d="M174 1217q0 177 121 284l61 -55q-34 -27 -60 -80t-26 -119h31v-196h-102q-25 95 -25 166zM489 1217q0 177 121 284l62 -55q-34 -27 -60 -80t-26 -119h30v-196h-102q-25 95 -25 166z" />
<glyph unicode="&#x201d;" horiz-adv-x="839" d="M174 1087q34 25 60 78t26 119h-33v197h103q24 -91 24 -166q0 -180 -118 -285zM489 1087q34 25 60 78t26 119h-32v197h102q25 -95 25 -166q0 -180 -119 -285z" />
<glyph unicode="&#x201e;" horiz-adv-x="839" d="M174 -197q34 25 60 78t26 119h-33v197h103q24 -91 24 -166q0 -180 -118 -285zM489 -197q34 25 60 78t26 119h-32v197h102q25 -95 25 -166q0 -180 -119 -285z" />
<glyph unicode="&#x2022;" horiz-adv-x="681" d="M39 606q0 90 60 151.5t149 61.5q88 0 149.5 -62t61.5 -151q0 -88 -61.5 -148.5t-149.5 -60.5q-89 0 -149 60.5t-60 148.5z" />
<glyph unicode="&#x2026;" horiz-adv-x="1286" d="M260 0v203h115v-203h-115zM674 0v203h114v-203h-114zM1087 0v203h115v-203h-115z" />
<glyph unicode="&#x202f;" horiz-adv-x="410" />
<glyph unicode="&#x2039;" horiz-adv-x="759" d="M168 469v78l426 407v-127l-324 -317v-4l324 -324v-125z" />
<glyph unicode="&#x203a;" horiz-adv-x="759" d="M162 57v125l323 324v4l-323 317v127l426 -407v-78z" />
<glyph unicode="&#x205f;" horiz-adv-x="513" />
<glyph unicode="&#x20ac;" d="M27 512v90h84q-5 93 -5 115q0 17 5 104h-84v90h96q21 111 65.5 206t111.5 171.5t163.5 120t212.5 43.5q105 0 194.5 -29.5t162.5 -99.5t106 -174q-3 -1 -40 -17t-46 -18q-101 240 -377 240q-91 0 -168.5 -35.5t-132 -98t-91.5 -140.5t-57 -169h686v-90h-700 q-6 -53 -6 -104q0 -41 4 -115h702v-90h-692q34 -204 147 -323t310 -119q70 0 149 32.5t145 93.5t89 134l90 -35q-26 -96 -107 -172.5t-178.5 -115t-187.5 -38.5q-102 0 -187 26.5t-146.5 74t-108 116t-74 149.5t-41.5 177h-94z" />
<glyph unicode="&#x2122;" horiz-adv-x="1835" d="M98 1432v77h658v-77h-283v-781h-94v781h-281zM907 651v858h115l307 -659h4l281 659h125v-858h-94v692h-5l-280 -630h-66l-293 630h-6v-692h-88z" />
<glyph unicode="&#x25fc;" horiz-adv-x="993" d="M0 0v993h993v-993h-993z" />
</font>
</defs>
</svg>
