<?xml version="1.0" encoding="utf-8"?>
<!-- Generator: Adobe Illustrator 20.1.0, SVG Export Plug-In . SVG Version: 6.00 Build 0)  -->
<svg version="1.1" id="Layer_1" xmlns="http://www.w3.org/2000/svg" xmlns:xlink="http://www.w3.org/1999/xlink" x="0px" y="0px"
	 viewBox="0 0 15 15" style="enable-background:new 0 0 15 15;" xml:space="preserve">
<g>
	<path d="M7.5,1.3c2,0,2.2,0,3,0c0.7,0,1.1,0.2,1.4,0.3c0.3,0.1,0.6,0.3,0.9,0.6c0.2,0.2,0.4,0.5,0.6,0.9c0.1,0.3,0.2,0.7,0.3,1.4
		c0,0.8,0,1,0,3s0,2.2,0,3c0,0.7-0.2,1.1-0.3,1.4c-0.2,0.6-0.8,1.2-1.4,1.4c-0.3,0.1-0.7,0.2-1.4,0.3c-0.8,0-1,0-3,0s-2.2,0-3,0
		c-0.7,0-1.1-0.2-1.4-0.3c-0.3-0.1-0.6-0.3-0.9-0.6c-0.2-0.2-0.4-0.5-0.6-0.9c-0.1-0.3-0.2-0.7-0.3-1.4c0-0.8,0-1,0-3s0-2.2,0-3
		c0-0.7,0.2-1.1,0.3-1.4C1.8,2.7,2,2.5,2.2,2.2C2.4,2,2.7,1.8,3.1,1.7c0.3-0.1,0.7-0.2,1.4-0.3C5.3,1.4,5.5,1.3,7.5,1.3 M7.5,0
		c-2,0-2.3,0-3.1,0S3.1,0.2,2.6,0.4C2.1,0.6,1.6,0.9,1.3,1.3C0.9,1.6,0.6,2.1,0.4,2.6C0.2,3.1,0.1,3.6,0,4.4c0,0.8,0,1,0,3.1
		s0,2.3,0,3.1c0,0.8,0.2,1.3,0.3,1.8c0.2,0.5,0.5,0.9,0.9,1.3c0.4,0.4,0.8,0.7,1.3,0.9c0.5,0.2,1,0.3,1.8,0.3c0.8,0,1.1,0,3.1,0
		s2.3,0,3.1,0c0.8,0,1.3-0.2,1.8-0.3c1-0.4,1.8-1.2,2.2-2.2c0.2-0.5,0.3-1,0.3-1.8c0-0.8,0-1.1,0-3.1s0-2.3,0-3.1
		c0-0.8-0.2-1.3-0.3-1.8c-0.2-0.5-0.5-0.9-0.9-1.3c-0.4-0.4-0.8-0.7-1.3-0.9c-0.5-0.2-1-0.3-1.8-0.3C9.8,0,9.5,0,7.5,0L7.5,0L7.5,0z
		"/>
	<path d="M7.5,3.6c-2.1,0-3.8,1.7-3.8,3.8s1.7,3.8,3.8,3.8s3.8-1.7,3.8-3.8l0,0C11.3,5.4,9.6,3.6,7.5,3.6z M7.5,10
		C6.1,10,5,8.9,5,7.5S6.1,5,7.5,5S10,6.1,10,7.5S8.9,10,7.5,10z"/>
	<circle cx="11.5" cy="3.5" r="0.9"/>
</g>
</svg>
